<svg width="301" height="188" viewBox="0 0 301 188" fill="none" xmlns="http://www.w3.org/2000/svg">
<path d="M78.6668 114.576C110.293 114.576 135.931 88.9273 135.931 57.288C135.931 25.6487 110.293 0 78.6668 0C47.0405 0 21.4023 25.6487 21.4023 57.288C21.4023 88.9273 47.0405 114.576 78.6668 114.576Z" fill="#F2F2F2"/>
<path d="M0 13.7578C0 34.6015 13.0708 51.4679 29.2239 51.4679L0 13.7578Z" fill="#2F2E41"/>
<path d="M29.2227 51.4658C29.2227 30.388 43.809 13.332 61.8348 13.332L29.2227 51.4658Z" fill="#F26722"/>
<path d="M10.5859 15.6445C10.5859 35.4438 18.921 51.4651 29.2215 51.4651L10.5859 15.6445Z" fill="#F26722"/>
<path d="M29.2227 51.4687C29.2227 24.5359 46.0822 2.74219 66.9173 2.74219L29.2227 51.4687Z" fill="#2F2E41"/>
<path d="M23.0781 51.7325C23.0781 51.7325 27.2226 51.6049 28.4716 50.7151C29.7206 49.8253 34.8468 48.7628 35.1566 50.1899C35.4665 51.6169 41.3849 57.2872 36.7059 57.3249C32.0268 57.3627 25.8339 56.5958 24.5872 55.8361C23.3406 55.0765 23.0781 51.7325 23.0781 51.7325Z" fill="#A8A8A8"/>
<path opacity="0.2" d="M36.7894 56.8276C32.1103 56.8654 25.9174 56.0985 24.6707 55.3388C23.7214 54.7603 23.3431 52.6843 23.2165 51.7266C23.1288 51.7303 23.0781 51.7319 23.0781 51.7319C23.0781 51.7319 23.3406 55.0758 24.5872 55.8355C25.8339 56.5952 32.0268 57.3621 36.7059 57.3243C38.0565 57.3134 38.5231 56.8327 38.4975 56.1207C38.3098 56.5509 37.7947 56.8195 36.7894 56.8276Z" fill="black"/>
<path d="M53.3955 121.017C81.1614 121.017 103.67 117.953 103.67 114.174C103.67 110.395 81.1614 107.332 53.3955 107.332C25.6297 107.332 3.12109 110.395 3.12109 114.174C3.12109 117.953 25.6297 121.017 53.3955 121.017Z" fill="#3F3D56"/>
<path opacity="0.1" d="M53.3965 119.919C76.7079 119.919 95.6056 117.347 95.6056 114.174C95.6056 111.002 76.7079 108.43 53.3965 108.43C30.0851 108.43 11.1875 111.002 11.1875 114.174C11.1875 117.347 30.0851 119.919 53.3965 119.919Z" fill="black"/>
<path d="M224.916 187.999C266.936 187.999 301 183.363 301 177.644C301 171.925 266.936 167.289 224.916 167.289C182.896 167.289 148.832 171.925 148.832 177.644C148.832 183.363 182.896 187.999 224.916 187.999Z" fill="#3F3D56"/>
<path d="M83.5087 179.831C108.75 179.831 129.213 177.046 129.213 173.611C129.213 170.176 108.75 167.391 83.5087 167.391C58.2671 167.391 37.8047 170.176 37.8047 173.611C37.8047 177.046 58.2671 179.831 83.5087 179.831Z" fill="#3F3D56"/>
<path d="M124.375 168.366C148.571 174.552 195.082 160.298 200.19 144.16" stroke="#2F2E41" stroke-width="2" stroke-miterlimit="10"/>
<path d="M83.2383 69.6623C83.2383 69.6623 118.188 59.9799 120.339 91.179C122.49 122.378 91.5725 131.254 115.769 137.44" stroke="#2F2E41" stroke-width="2" stroke-miterlimit="10"/>
<path d="M49.4688 144.505C49.4688 144.505 59.974 141.595 60.6205 150.972C61.267 160.349 51.9738 163.017 59.2467 164.876" stroke="#2F2E41" stroke-width="2" stroke-miterlimit="10"/>
<path d="M209.353 151.491L207.235 165.018C207.235 165.018 196.809 170.559 204.14 170.722C211.471 170.885 246.008 170.722 246.008 170.722C246.008 170.722 252.688 170.722 242.098 164.855L239.98 150.676L209.353 151.491Z" fill="#2F2E41"/>
<path opacity="0.1" d="M202.667 170.575C204.332 169.093 207.237 167.549 207.237 167.549L209.355 154.022L239.982 154.051L242.1 167.386C244.569 168.754 246.099 169.803 246.994 170.608C248.354 170.297 249.84 169.144 242.1 164.855L239.982 150.676L209.355 151.491L207.237 165.018C207.237 165.018 198.476 169.675 202.667 170.575Z" fill="black"/>
<path d="M288.647 57.2031H160.363C157.684 57.2031 155.512 59.3761 155.512 62.0567V148.507C155.512 151.188 157.684 153.361 160.363 153.361H288.647C291.326 153.361 293.498 151.188 293.498 148.507V62.0567C293.498 59.3761 291.326 57.2031 288.647 57.2031Z" fill="#2F2E41"/>
<path d="M288.853 62.3398H160.152V134.377H288.853V62.3398Z" fill="#3F3D56"/>
<path d="M224.502 60.8681C224.952 60.8681 225.317 60.5032 225.317 60.0532C225.317 59.6031 224.952 59.2383 224.502 59.2383C224.052 59.2383 223.688 59.6031 223.688 60.0532C223.688 60.5032 224.052 60.8681 224.502 60.8681Z" fill="#F2F2F2"/>
<path d="M293.498 140.078V148.507C293.499 149.145 293.373 149.776 293.129 150.365C292.886 150.954 292.528 151.489 292.078 151.94C291.627 152.39 291.092 152.748 290.504 152.992C289.915 153.236 289.284 153.361 288.647 153.361H160.363C159.726 153.361 159.095 153.236 158.507 152.992C157.918 152.748 157.383 152.39 156.933 151.94C156.482 151.489 156.125 150.954 155.881 150.365C155.637 149.776 155.512 149.145 155.512 148.507V140.078H293.498Z" fill="#2F2E41"/>
<path d="M260.506 179.524V181.153H172.859V179.85L172.98 179.524L175.14 173.656H258.714L260.506 179.524Z" fill="#2F2E41"/>
<path d="M294.235 177.924C294.076 178.607 293.473 179.328 292.111 180.009C287.223 182.454 277.286 179.357 277.286 179.357C277.286 179.357 269.629 178.053 269.629 174.63C269.844 174.483 270.068 174.35 270.3 174.231C272.355 173.144 279.168 170.46 291.248 174.345C292.138 174.624 292.933 175.145 293.544 175.85C294.034 176.423 294.418 177.151 294.235 177.924Z" fill="#2F2E41"/>
<path opacity="0.1" d="M294.236 177.924C288.254 180.217 282.922 180.389 277.449 176.586C274.69 174.67 272.182 174.195 270.301 174.231C272.356 173.144 279.169 170.46 291.249 174.345C292.139 174.624 292.934 175.145 293.545 175.85C294.035 176.423 294.418 177.151 294.236 177.924Z" fill="black"/>
<path d="M286.735 176.585C287.905 176.585 288.853 176.293 288.853 175.933C288.853 175.573 287.905 175.281 286.735 175.281C285.565 175.281 284.617 175.573 284.617 175.933C284.617 176.293 285.565 176.585 286.735 176.585Z" fill="#F2F2F2"/>
<path d="M224.502 149.857C226.211 149.857 227.597 148.471 227.597 146.761C227.597 145.05 226.211 143.664 224.502 143.664C222.792 143.664 221.406 145.05 221.406 146.761C221.406 148.471 222.792 149.857 224.502 149.857Z" fill="#F2F2F2"/>
<path opacity="0.1" d="M260.506 179.52V181.149H172.859V179.846L172.98 179.52H260.506Z" fill="black"/>
<path d="M85.1156 42.7656H29.1953V107.853H85.1156V42.7656Z" fill="#2F2E41"/>
<path d="M90.7704 36.3086H23.5586V59.439H90.7704V36.3086Z" fill="#3F3D56"/>
<path d="M90.7704 63.7422H23.5586V86.8726H90.7704V63.7422Z" fill="#3F3D56"/>
<path d="M90.7704 91.1758H23.5586V114.306H90.7704V91.1758Z" fill="#3F3D56"/>
<path opacity="0.4" d="M77.3253 40.3438H73.0234V44.6471H77.3253V40.3438Z" fill="#F26722"/>
<path opacity="0.8" d="M83.5089 40.3438H79.207V44.6471H83.5089V40.3438Z" fill="#F26722"/>
<path d="M89.6886 40.3438H85.3867V44.6471H89.6886V40.3438Z" fill="#F26722"/>
<path opacity="0.4" d="M77.3253 67.5078H73.0234V71.8111H77.3253V67.5078Z" fill="#F26722"/>
<path opacity="0.8" d="M83.5089 67.5078H79.207V71.8111H83.5089V67.5078Z" fill="#F26722"/>
<path d="M89.6886 67.5078H85.3867V71.8111H89.6886V67.5078Z" fill="#F26722"/>
<path opacity="0.4" d="M77.3253 94.6758H73.0234V98.9791H77.3253V94.6758Z" fill="#F26722"/>
<path opacity="0.8" d="M83.5089 94.6758H79.207V98.9791H83.5089V94.6758Z" fill="#F26722"/>
<path d="M89.6886 94.6758H85.3867V98.9791H89.6886V94.6758Z" fill="#F26722"/>
<path d="M85.1217 165.945C96.8517 165.945 106.361 156.432 106.361 144.697C106.361 132.962 96.8517 123.449 85.1217 123.449C73.3918 123.449 63.8828 132.962 63.8828 144.697C63.8828 156.432 73.3918 165.945 85.1217 165.945Z" fill="#2F2E41"/>
<path d="M81.8942 161.375H75.4414V172.94H81.8942V161.375Z" fill="#2F2E41"/>
<path d="M94.7966 161.375H88.3438V172.94H94.7966V161.375Z" fill="#2F2E41"/>
<path d="M80.8187 175.093C83.7886 175.093 86.1961 174.19 86.1961 173.076C86.1961 171.962 83.7886 171.059 80.8187 171.059C77.8489 171.059 75.4414 171.962 75.4414 173.076C75.4414 174.19 77.8489 175.093 80.8187 175.093Z" fill="#2F2E41"/>
<path d="M93.7211 174.823C96.6909 174.823 99.0984 173.92 99.0984 172.806C99.0984 171.692 96.6909 170.789 93.7211 170.789C90.7513 170.789 88.3438 171.692 88.3438 172.806C88.3438 173.92 90.7513 174.823 93.7211 174.823Z" fill="#2F2E41"/>
<path d="M85.6573 146.582C89.6663 146.582 92.9162 143.331 92.9162 139.32C92.9162 135.31 89.6663 132.059 85.6573 132.059C81.6483 132.059 78.3984 135.31 78.3984 139.32C78.3984 143.331 81.6483 146.582 85.6573 146.582Z" fill="white"/>
<path d="M85.6581 141.744C86.9945 141.744 88.0779 140.66 88.0779 139.323C88.0779 137.986 86.9945 136.902 85.6581 136.902C84.3217 136.902 83.2383 137.986 83.2383 139.323C83.2383 140.66 84.3217 141.744 85.6581 141.744Z" fill="#3F3D56"/>
<path d="M64.5171 124.936C62.8022 117.253 68.2842 109.489 76.7615 107.595C85.2388 105.702 93.5013 110.395 95.2163 118.079C96.9312 125.762 91.313 128.596 82.8356 130.49C74.3583 132.383 66.2321 132.62 64.5171 124.936Z" fill="#F26722"/>
<path d="M105.039 140.46C110.431 138.151 114.214 134.907 113.49 133.213C112.765 131.52 107.807 132.019 102.415 134.328C97.0233 136.636 93.2396 139.881 93.9641 141.574C94.6886 143.267 99.6469 142.768 105.039 140.46Z" fill="#2F2E41"/>
<path d="M65.2536 154.718C70.6454 152.409 74.4291 149.165 73.7046 147.471C72.9802 145.778 68.0219 146.277 62.63 148.585C57.2382 150.894 53.4545 154.138 54.179 155.832C54.9034 157.525 59.8617 157.026 65.2536 154.718Z" fill="#2F2E41"/>
<path d="M97.4848 150.885C97.4848 152.964 92.1325 157.071 86.1932 157.071C80.254 157.071 74.6328 153.233 74.6328 151.154C74.6328 149.074 80.254 149.54 86.1932 149.54C92.1325 149.54 97.4848 148.805 97.4848 150.885Z" fill="white"/>
</svg>
