<svg width="434" height="731" viewBox="0 0 434 731" fill="none" xmlns="http://www.w3.org/2000/svg">
<g filter="url(#filter0_b_8937_128931)">
<rect width="434" height="731" rx="8" fill="white" fill-opacity="0.8"/>
</g>
<path d="M75.2786 425C73.4586 425 72.0486 424.42 71.0486 423.26C70.1886 422.26 69.7586 420.97 69.7586 419.39V407.63L73.5386 405.65V419.21C73.5386 419.99 73.6986 420.55 74.0186 420.89C74.3386 421.21 74.8786 421.37 75.6386 421.37H78.3386V425H75.2786ZM78.8814 402.82L80.2314 399.94L88.1514 398.5L86.8014 401.38L78.8814 402.82ZM78.1914 407.05L79.5414 404.14L87.4314 402.73L86.0814 405.61L78.1914 407.05ZM87.2097 421.37H89.9097V425H86.8497C85.3897 425 84.1797 424.61 83.2197 423.83C82.2597 424.61 81.0497 425 79.5897 425H76.5297V421.37H79.2297C79.9897 421.37 80.5297 421.21 80.8497 420.89C81.1697 420.55 81.3297 419.99 81.3297 419.21V413.66L85.1097 411.68V419.21C85.1097 419.99 85.2697 420.55 85.5897 420.89C85.9097 421.21 86.4497 421.37 87.2097 421.37ZM79.4397 427.73C80.0397 427.73 80.5097 427.9 80.8497 428.24C81.2097 428.6 81.3897 429.08 81.3897 429.68C81.3897 431.02 80.7397 431.69 79.4397 431.69C78.8397 431.69 78.3597 431.51 77.9997 431.15C77.6397 430.79 77.4597 430.3 77.4597 429.68C77.4597 428.38 78.1197 427.73 79.4397 427.73ZM84.0597 427.73C84.6597 427.73 85.1297 427.9 85.4697 428.24C85.8297 428.6 86.0097 429.08 86.0097 429.68C86.0097 431.02 85.3597 431.69 84.0597 431.69C83.4597 431.69 82.9797 431.51 82.6197 431.15C82.2597 430.79 82.0797 430.3 82.0797 429.68C82.0797 428.38 82.7397 427.73 84.0597 427.73ZM88.102 425V421.37H89.992C90.912 421.37 91.562 421.17 91.942 420.77C92.342 420.37 92.542 419.69 92.542 418.73V407.66L96.292 405.65V418.76C96.292 420.7 95.702 422.25 94.522 423.41C93.442 424.47 92.002 425 90.202 425H88.102ZM107.212 425C105.392 425 103.982 424.42 102.982 423.26C102.122 422.26 101.692 420.97 101.692 419.39V407.63L105.472 405.65V419.21C105.472 419.99 105.632 420.55 105.952 420.89C106.272 421.21 106.812 421.37 107.572 421.37H110.272V425H107.212ZM108.463 425V421.37H112.933C116.453 421.37 119.253 420.32 121.333 418.22C119.973 415.84 118.323 414.65 116.383 414.65C114.783 414.65 113.033 415.52 111.133 417.26V413.93C112.813 412.09 114.713 411.17 116.833 411.17C118.393 411.17 119.913 411.74 121.393 412.88C122.873 414.02 124.183 415.64 125.323 417.74V419.24C123.883 421.08 122.083 422.5 119.923 423.5C117.783 424.5 115.443 425 112.903 425H108.463ZM149.871 434.57C148.131 435.69 146.161 436.25 143.961 436.25C141.561 436.25 139.641 435.49 138.201 433.97C136.821 432.51 136.131 430.59 136.131 428.21C136.131 425.71 136.861 423.75 138.321 422.33C138.961 421.71 139.651 421.24 140.391 420.92C141.151 420.6 142.491 420.21 144.411 419.75C146.151 419.33 147.381 418.84 148.101 418.28C146.721 415.86 145.061 414.65 143.121 414.65C141.481 414.65 139.731 415.52 137.871 417.26V413.93C139.531 412.09 141.421 411.17 143.541 411.17C145.121 411.17 146.651 411.74 148.131 412.88C149.611 414.02 150.921 415.64 152.061 417.74V419.24C151.461 420.28 150.691 421.07 149.751 421.61C148.831 422.15 147.361 422.66 145.341 423.14C143.201 423.64 141.771 424.21 141.051 424.85C140.191 425.65 139.761 426.78 139.761 428.24C139.761 431.16 141.291 432.62 144.351 432.62C146.311 432.62 148.151 432.08 149.871 431V434.57ZM161.792 425C159.972 425 158.562 424.42 157.562 423.26C156.702 422.26 156.272 420.97 156.272 419.39V407.63L160.052 405.65V419.21C160.052 419.99 160.212 420.55 160.532 420.89C160.852 421.21 161.392 421.37 162.152 421.37H164.852V425H161.792ZM165.893 409.04C165.293 409.04 164.813 408.86 164.453 408.5C164.093 408.14 163.913 407.65 163.913 407.03C163.913 406.45 164.093 405.98 164.453 405.62C164.813 405.26 165.293 405.08 165.893 405.08C166.493 405.08 166.963 405.26 167.303 405.62C167.663 405.96 167.843 406.43 167.843 407.03C167.843 408.37 167.193 409.04 165.893 409.04ZM170.483 409.04C169.883 409.04 169.403 408.86 169.043 408.5C168.683 408.12 168.503 407.63 168.503 407.03C168.503 406.45 168.683 405.98 169.043 405.62C169.423 405.26 169.903 405.08 170.483 405.08C171.083 405.08 171.553 405.26 171.893 405.62C172.253 405.96 172.433 406.43 172.433 407.03C172.433 408.37 171.783 409.04 170.483 409.04ZM173.723 421.37H176.423V425H173.363C171.903 425 170.693 424.61 169.733 423.83C168.773 424.61 167.563 425 166.103 425H163.043V421.37H165.743C166.503 421.37 167.043 421.21 167.363 420.89C167.683 420.55 167.843 419.99 167.843 419.21V413.66L171.623 411.68V419.21C171.623 419.99 171.783 420.55 172.103 420.89C172.423 421.21 172.963 421.37 173.723 421.37ZM179.416 416.72C179.416 414.92 179.976 413.51 181.096 412.49C182.076 411.61 183.336 411.17 184.876 411.17C186.856 411.17 188.396 411.9 189.496 413.36C190.436 414.58 190.906 416.15 190.906 418.07C190.906 420.29 190.316 422.04 189.136 423.32C188.076 424.44 186.726 425 185.086 425C183.486 425 182.176 424.65 181.156 423.95C180.196 424.65 179.036 425 177.676 425H174.616V421.37H177.316C178.076 421.37 178.616 421.21 178.936 420.89C179.256 420.55 179.416 419.99 179.416 419.21V416.72ZM183.196 419.69C183.196 420.81 183.786 421.37 184.966 421.37C186.446 421.37 187.186 420.23 187.186 417.95C187.186 415.77 186.416 414.68 184.876 414.68C183.756 414.68 183.196 415.34 183.196 416.66V419.69ZM210.589 421.37H213.289V425H210.229C209.549 425 208.919 424.91 208.339 424.73C208.079 426.65 207.309 428.17 206.029 429.29C204.869 430.29 203.479 430.79 201.859 430.79C200.599 430.79 199.369 430.47 198.169 429.83V426.53C199.209 427.11 200.229 427.4 201.229 427.4C202.329 427.4 203.179 427.04 203.779 426.32C204.399 425.62 204.709 424.64 204.709 423.38V413.66L207.169 412.37L208.459 411.68V411.71L208.489 411.68V419.21C208.489 419.99 208.649 420.55 208.969 420.89C209.289 421.21 209.829 421.37 210.589 421.37ZM222.18 421.37H224.88V425H221.82C220.36 425 219.15 424.61 218.19 423.83C217.23 424.61 216.02 425 214.56 425H211.5V421.37H214.2C214.96 421.37 215.5 421.21 215.82 420.89C216.14 420.55 216.3 419.99 216.3 419.21V413.66L220.08 411.68V419.21C220.08 419.99 220.24 420.55 220.56 420.89C220.88 421.21 221.42 421.37 222.18 421.37ZM214.41 427.73C215.01 427.73 215.48 427.9 215.82 428.24C216.18 428.6 216.36 429.08 216.36 429.68C216.36 431.02 215.71 431.69 214.41 431.69C213.81 431.69 213.33 431.51 212.97 431.15C212.61 430.79 212.43 430.3 212.43 429.68C212.43 428.38 213.09 427.73 214.41 427.73ZM219.03 427.73C219.63 427.73 220.1 427.9 220.44 428.24C220.8 428.6 220.98 429.08 220.98 429.68C220.98 431.02 220.33 431.69 219.03 431.69C218.43 431.69 217.95 431.51 217.59 431.15C217.23 430.79 217.05 430.3 217.05 429.68C217.05 428.38 217.71 427.73 219.03 427.73ZM233.033 408.65C232.433 408.65 231.953 408.47 231.593 408.11C231.233 407.75 231.053 407.26 231.053 406.64C231.053 406.06 231.233 405.59 231.593 405.23C231.953 404.87 232.433 404.69 233.033 404.69C233.633 404.69 234.103 404.87 234.443 405.23C234.803 405.57 234.983 406.04 234.983 406.64C234.983 407.98 234.333 408.65 233.033 408.65ZM239.693 421.37V425H223.073V421.37H227.513C226.953 420.27 226.673 419.05 226.673 417.71C226.673 415.59 227.413 413.91 228.893 412.67C230.093 411.67 231.483 411.17 233.063 411.17C235.203 411.17 236.933 412.09 238.253 413.93V417.26C236.793 415.54 235.203 414.68 233.483 414.68C232.563 414.68 231.823 414.97 231.263 415.55C230.723 416.11 230.453 416.87 230.453 417.83C230.453 418.93 230.793 419.8 231.473 420.44C232.173 421.06 233.123 421.37 234.323 421.37H239.693ZM269.526 421.37H272.646V425H269.166C268.566 425 267.906 424.85 267.186 424.55C266.746 426.53 265.716 428.09 264.096 429.23C262.636 430.23 260.906 430.73 258.906 430.73C256.066 430.73 253.866 429.79 252.306 427.91C251.106 426.47 250.506 424.76 250.506 422.78C250.506 421.22 250.866 419.84 251.586 418.64L255.306 417.8C254.486 419.1 254.076 420.59 254.076 422.27C254.076 423.75 254.506 424.92 255.366 425.78C256.246 426.66 257.426 427.1 258.906 427.1C260.366 427.1 261.526 426.69 262.386 425.87C263.246 425.05 263.676 423.93 263.676 422.51V407.66L267.426 405.65V419.21C267.426 419.99 267.586 420.55 267.906 420.89C268.226 421.21 268.766 421.37 269.526 421.37ZM281.536 421.37H284.236V425H281.176C279.716 425 278.506 424.61 277.546 423.83C276.586 424.61 275.376 425 273.916 425H270.856V421.37H273.556C274.316 421.37 274.856 421.21 275.176 420.89C275.496 420.55 275.656 419.99 275.656 419.21V413.66L279.436 411.68V419.21C279.436 419.99 279.596 420.55 279.916 420.89C280.236 421.21 280.776 421.37 281.536 421.37ZM273.766 427.73C274.366 427.73 274.836 427.9 275.176 428.24C275.536 428.6 275.716 429.08 275.716 429.68C275.716 431.02 275.066 431.69 273.766 431.69C273.166 431.69 272.686 431.51 272.326 431.15C271.966 430.79 271.786 430.3 271.786 429.68C271.786 428.38 272.446 427.73 273.766 427.73ZM278.386 427.73C278.986 427.73 279.456 427.9 279.796 428.24C280.156 428.6 280.336 429.08 280.336 429.68C280.336 431.02 279.686 431.69 278.386 431.69C277.786 431.69 277.306 431.51 276.946 431.15C276.586 430.79 276.406 430.3 276.406 429.68C276.406 428.38 277.066 427.73 278.386 427.73ZM301.988 421.37H304.508V425H301.958C300.378 425 299.108 424.83 298.148 424.49C297.208 424.13 296.328 423.51 295.508 422.63C293.008 424.21 290.128 425 286.868 425H282.428V421.37H286.898C290.418 421.37 293.218 420.32 295.298 418.22C293.938 415.84 292.288 414.65 290.348 414.65C288.748 414.65 286.998 415.52 285.098 417.26V413.93C286.778 412.09 288.678 411.17 290.798 411.17C292.358 411.17 293.878 411.74 295.358 412.88C296.838 414.02 298.148 415.64 299.288 417.74V419.24C298.968 419.66 298.548 420.13 298.028 420.65C298.828 421.13 300.148 421.37 301.988 421.37ZM293.678 427.73C294.278 427.73 294.748 427.9 295.088 428.24C295.448 428.6 295.628 429.08 295.628 429.68C295.628 431.02 294.978 431.69 293.678 431.69C293.078 431.69 292.598 431.51 292.238 431.15C291.878 430.79 291.698 430.3 291.698 429.68C291.698 429.1 291.878 428.63 292.238 428.27C292.598 427.91 293.078 427.73 293.678 427.73ZM302.702 425V421.37H305.882C306.642 421.37 307.182 421.21 307.502 420.89C307.842 420.55 308.012 419.99 308.012 419.21V415.25L311.792 413.27V419.21C311.792 419.99 311.952 420.55 312.272 420.89C312.592 421.21 313.132 421.37 313.892 421.37H315.932C316.692 421.37 317.232 421.21 317.552 420.89C317.872 420.55 318.032 419.99 318.032 419.21V414.47L321.812 412.46V419.21C321.812 419.99 321.972 420.55 322.292 420.89C322.632 421.21 323.182 421.37 323.942 421.37H325.982C326.742 421.37 327.282 421.21 327.602 420.89C327.922 420.55 328.082 419.99 328.082 419.21V413.66L331.862 411.68V418.73C331.862 419.69 332.052 420.37 332.432 420.77C332.832 421.17 333.492 421.37 334.412 421.37H337.172V425H334.202C332.522 425 331.172 424.52 330.152 423.56C329.252 424.5 328.042 424.98 326.522 425H323.552C322.072 425 320.862 424.56 319.922 423.68C319.062 424.54 317.922 424.98 316.502 425H313.532C312.052 425 310.842 424.56 309.902 423.68C308.962 424.56 307.752 425 306.272 425H302.702ZM338.218 409.04C337.618 409.04 337.138 408.86 336.778 408.5C336.418 408.14 336.238 407.65 336.238 407.03C336.238 406.45 336.418 405.98 336.778 405.62C337.138 405.26 337.618 405.08 338.218 405.08C338.818 405.08 339.288 405.26 339.628 405.62C339.988 405.96 340.168 406.43 340.168 407.03C340.168 408.37 339.518 409.04 338.218 409.04ZM342.808 409.04C342.208 409.04 341.728 408.86 341.368 408.5C341.008 408.12 340.828 407.63 340.828 407.03C340.828 406.45 341.008 405.98 341.368 405.62C341.748 405.26 342.228 405.08 342.808 405.08C343.408 405.08 343.878 405.26 344.218 405.62C344.578 405.96 344.758 406.43 344.758 407.03C344.758 408.37 344.108 409.04 342.808 409.04ZM346.048 421.37H348.748V425H345.688C344.228 425 343.018 424.61 342.058 423.83C341.098 424.61 339.888 425 338.428 425H335.368V421.37H338.068C338.828 421.37 339.368 421.21 339.688 420.89C340.008 420.55 340.168 419.99 340.168 419.21V413.66L343.948 411.68V419.21C343.948 419.99 344.108 420.55 344.428 420.89C344.748 421.21 345.288 421.37 346.048 421.37ZM346.94 425V421.37H348.83C349.75 421.37 350.4 421.17 350.78 420.77C351.18 420.37 351.38 419.69 351.38 418.73V407.66L355.13 405.65V418.76C355.13 420.7 354.54 422.25 353.36 423.41C352.28 424.47 350.84 425 349.04 425H346.94ZM360.53 425V407.66L364.31 405.65V425H360.53Z" fill="#F26722"/>
<g clip-path="url(#clip0_8937_128931)">
<path d="M217 314.73C213.214 314.73 210.145 317.8 210.145 321.586V327.527H223.856V321.586C223.855 317.8 220.786 314.73 217 314.73ZM216.899 336.669C213.235 336.721 210.226 339.706 210.146 343.37C210.089 345.971 211.483 348.25 213.572 349.46V353.807C213.572 355.7 215.107 357.234 217 357.234C218.893 357.234 220.428 355.7 220.428 353.807V349.46C222.476 348.274 223.855 346.061 223.855 343.524C223.855 339.704 220.732 336.614 216.899 336.669Z" fill="#F26722"/>
<path d="M217 291C190.49 291 169 312.49 169 339C169 365.51 190.49 387 217 387C243.51 387 265 365.51 265 339C265 312.49 243.51 291 217 291ZM242.137 359.52C242.137 363.306 239.067 366.375 235.281 366.375H198.719C194.933 366.375 191.863 363.306 191.863 359.52V334.383C191.863 330.597 194.933 327.527 198.719 327.527H203.289V321.586C203.289 314.014 209.428 307.875 217 307.875C224.572 307.875 230.711 314.014 230.711 321.586V327.527H235.281C239.067 327.527 242.137 330.597 242.137 334.383V359.52Z" fill="#F26722"/>
</g>
<defs>
<filter id="filter0_b_8937_128931" x="-2" y="-2" width="438" height="735" filterUnits="userSpaceOnUse" color-interpolation-filters="sRGB">
<feFlood flood-opacity="0" result="BackgroundImageFix"/>
<feGaussianBlur in="BackgroundImageFix" stdDeviation="1"/>
<feComposite in2="SourceAlpha" operator="in" result="effect1_backgroundBlur_8937_128931"/>
<feBlend mode="normal" in="SourceGraphic" in2="effect1_backgroundBlur_8937_128931" result="shape"/>
</filter>
<clipPath id="clip0_8937_128931">
<rect width="96" height="96" fill="white" transform="translate(169 291)"/>
</clipPath>
</defs>
</svg>
