<svg width="19" height="19" viewBox="0 0 19 19" fill="none" xmlns="http://www.w3.org/2000/svg">
    <path d="M18.7121 9.07464H16.4266V6.20538C16.4266 5.96196 16.2655 5.76462 16.0668 5.76462H15.2544V0.587675C15.2544 0.263102 15.0395 0 14.7746 0H0.479798C0.214806 0 0 0.263102 0 0.587675V11.823C0 12.1475 0.214806 12.4106 0.479798 12.4106H5.44412C5.34864 13.0826 5.14334 14.1928 4.73014 15.2949C4.66191 15.4768 4.67405 15.6888 4.76228 15.8574C4.85052 16.0259 5.00271 16.1279 5.16618 16.1279H8.5501V17.6718C8.5501 17.9152 8.71116 18.1126 8.90994 18.1126H14.0906V18.6474C14.0906 18.8421 14.2195 19 14.3784 19H18.7121C18.8711 19 19 18.8421 19 18.6474V9.42725C19 9.23249 18.8711 9.07464 18.7121 9.07464ZM8.5501 6.20538V11.2353H0.959596V1.17535H14.2948V5.76456H8.90994C8.71121 5.76462 8.5501 5.9619 8.5501 6.20538ZM14.0906 17.231H9.26979V16.7192H12.1286V16.7606C12.1286 17.0041 12.2896 17.2014 12.4884 17.2014C12.6872 17.2014 12.8483 17.0041 12.8483 16.7606V16.7192H14.0906V17.231ZM14.0906 9.42725V15.8377H9.26979V6.64613H15.7069V9.07464H14.3784C14.2194 9.07464 14.0906 9.23249 14.0906 9.42725ZM18.4242 18.2948H14.6663V17.8796H16.2574V17.9147C16.2574 18.1094 16.3863 18.2673 16.5453 18.2673C16.7043 18.2673 16.8332 18.1094 16.8332 17.9147V17.8796H18.4242V18.2948ZM18.4242 17.1743H14.6663V10.9003H18.4242V17.1743ZM18.4242 10.195H14.6663V9.77985H18.4242V10.195Z" fill="black"/>
</svg>
