<svg width="19" height="19" viewBox="0 0 19 19" fill="none" xmlns="http://www.w3.org/2000/svg">
    <path d="M17.8125 0H3.5625C2.61767 0 1.71153 0.33363 1.04343 0.927495C0.375334 1.52136 0 2.32681 0 3.16667V15.8333C0 16.6732 0.375334 17.4786 1.04343 18.0725C1.71153 18.6664 2.61767 19 3.5625 19H17.8125C18.1274 19 18.4295 18.8888 18.6522 18.6908C18.8749 18.4929 19 18.2244 19 17.9444V1.05556C19 0.775605 18.8749 0.50712 18.6522 0.309165C18.4295 0.11121 18.1274 0 17.8125 0V0ZM3.5625 16.8889C3.24756 16.8889 2.94551 16.7777 2.72281 16.5797C2.50011 16.3818 2.375 16.1133 2.375 15.8333C2.375 15.5534 2.50011 15.2849 2.72281 15.0869C2.94551 14.889 3.24756 14.7778 3.5625 14.7778H16.625V16.8889H3.5625Z" fill="black"/>
</svg>
