<svg width="19" height="20" viewBox="0 0 19 20" fill="none" xmlns="http://www.w3.org/2000/svg">
    <path d="M0 16.4802C0 18.0961 1.235 19.3317 2.85 19.3317H16.15C17.765 19.3317 19 18.0961 19 16.4802V8.87625H0V16.4802ZM16.15 2.22277H14.25V1.27227C14.25 0.701976 13.87 0.321777 13.3 0.321777C12.73 0.321777 12.35 0.701976 12.35 1.27227V2.22277H6.65V1.27227C6.65 0.701976 6.27 0.321777 5.7 0.321777C5.13 0.321777 4.75 0.701976 4.75 1.27227V2.22277H2.85C1.235 2.22277 0 3.45842 0 5.07426V6.97526H19V5.07426C19 3.45842 17.765 2.22277 16.15 2.22277Z" fill="black"/>
</svg>
