<svg width="19" height="20" viewBox="0 0 19 20" fill="none" xmlns="http://www.w3.org/2000/svg">
    <g>
        <path d="M5.42857 11.4814H1.35714C0.607614 11.4814 0 12.1907 0 13.0656V17.8181C0 18.693 0.607614 19.4023 1.35714 19.4023H5.42857C6.1781 19.4023 6.78571 18.693 6.78571 17.8181V13.0656C6.78571 12.1907 6.1781 11.4814 5.42857 11.4814Z" fill="black"/>
        <path d="M3.39286 7.52033C3.12546 7.52123 2.86058 7.46007 2.61362 7.34041C2.36665 7.22075 2.14253 7.04497 1.95429 6.8233L1.27571 6.03122C0.991376 5.6989 0.79778 5.27568 0.71938 4.81501C0.640979 4.35434 0.68129 3.87688 0.835221 3.44294C0.989152 3.009 1.2498 2.63803 1.58424 2.3769C1.91868 2.11576 2.31192 1.97618 2.71429 1.97576C2.86963 1.97683 3.0244 1.99808 3.17571 2.03913L4.58714 0.391602H1.35714C0.997536 0.392855 0.652966 0.56016 0.398684 0.856977C0.144403 1.15379 0.00107399 1.556 0 1.97576V6.72825C0.00107399 7.14801 0.144403 7.55022 0.398684 7.84704C0.652966 8.14385 0.997536 8.31116 1.35714 8.31241H5.42857C5.78818 8.31116 6.13275 8.14385 6.38703 7.84704C6.64131 7.55022 6.78464 7.14801 6.78571 6.72825V4.54211L4.83143 6.8233C4.64318 7.04497 4.41906 7.22075 4.1721 7.34041C3.92513 7.46007 3.66025 7.52123 3.39286 7.52033ZM8.82143 3.55993H18.3214C18.5014 3.55993 18.674 3.47647 18.8013 3.32793C18.9285 3.17939 19 2.97792 19 2.76784C19 2.55777 18.9285 2.3563 18.8013 2.20776C18.674 2.05922 18.5014 1.97576 18.3214 1.97576H8.82143C8.64146 1.97576 8.46886 2.05922 8.34161 2.20776C8.21435 2.3563 8.14286 2.55777 8.14286 2.76784C8.14286 2.97792 8.21435 3.17939 8.34161 3.32793C8.46886 3.47647 8.64146 3.55993 8.82143 3.55993ZM8.82143 6.72825H14.9286C15.1085 6.72825 15.2811 6.6448 15.4084 6.49626C15.5357 6.34771 15.6071 6.14624 15.6071 5.93617C15.6071 5.7261 15.5357 5.52463 15.4084 5.37608C15.2811 5.22754 15.1085 5.14409 14.9286 5.14409H8.82143C8.64146 5.14409 8.46886 5.22754 8.34161 5.37608C8.21435 5.52463 8.14286 5.7261 8.14286 5.93617C8.14286 6.14624 8.21435 6.34771 8.34161 6.49626C8.46886 6.6448 8.64146 6.72825 8.82143 6.72825ZM18.3214 13.0649H8.82143C8.64146 13.0649 8.46886 13.1483 8.34161 13.2969C8.21435 13.4454 8.14286 13.6469 8.14286 13.857C8.14286 14.0671 8.21435 14.2685 8.34161 14.4171C8.46886 14.5656 8.64146 14.6491 8.82143 14.6491H18.3214C18.5014 14.6491 18.674 14.5656 18.8013 14.4171C18.9285 14.2685 19 14.0671 19 13.857C19 13.6469 18.9285 13.4454 18.8013 13.2969C18.674 13.1483 18.5014 13.0649 18.3214 13.0649ZM14.9286 16.2332H8.82143C8.64146 16.2332 8.46886 16.3167 8.34161 16.4652C8.21435 16.6138 8.14286 16.8152 8.14286 17.0253C8.14286 17.2354 8.21435 17.4368 8.34161 17.5854C8.46886 17.7339 8.64146 17.8174 8.82143 17.8174H14.9286C15.1085 17.8174 15.2811 17.7339 15.4084 17.5854C15.5357 17.4368 15.6071 17.2354 15.6071 17.0253C15.6071 16.8152 15.5357 16.6138 15.4084 16.4652C15.2811 16.3167 15.1085 16.2332 14.9286 16.2332Z" fill="black"/>
        <path d="M5.62729 1.41515L3.39275 4.02348L3.19393 3.7914C3.06595 3.64711 2.89454 3.56728 2.71662 3.56908C2.5387 3.57088 2.36851 3.65419 2.24269 3.80105C2.11688 3.9479 2.04552 4.14657 2.04397 4.35425C2.04242 4.56193 2.11082 4.76201 2.23443 4.9114L2.913 5.70348C3.04025 5.85197 3.21282 5.93539 3.39275 5.93539C3.57268 5.93539 3.74525 5.85197 3.8725 5.70348L6.58679 2.53516C6.6516 2.46209 6.70329 2.37469 6.73885 2.27805C6.77442 2.18141 6.79314 2.07748 6.79392 1.9723C6.7947 1.86713 6.77753 1.76283 6.74341 1.66549C6.7093 1.56814 6.65891 1.47971 6.5952 1.40533C6.53148 1.33096 6.45572 1.27215 6.37233 1.23232C6.28893 1.1925 6.19958 1.17246 6.10948 1.17337C6.01938 1.17428 5.93034 1.19613 5.84755 1.23765C5.76476 1.27916 5.68988 1.3395 5.62729 1.41515Z" fill="black"/>
    </g>
</svg>
