<svg width="19" height="20" viewBox="0 0 19 20" fill="none" xmlns="http://www.w3.org/2000/svg">
    <path d="M17.8125 5.10796H10.7374V8.67232H19V6.29608C19 5.98097 18.8749 5.67876 18.6522 5.45595C18.4295 5.23313 18.1274 5.10796 17.8125 5.10796ZM1.1875 5.10796C0.872555 5.10796 0.57051 5.23313 0.347811 5.45595C0.125111 5.67876 0 5.98097 0 6.29608L0 8.67232H8.3125V5.10796H1.1875ZM1.1875 9.86044V18.1773C1.1875 18.4924 1.31261 18.7946 1.53531 19.0174C1.75801 19.2402 2.06006 19.3654 2.375 19.3654H8.3125V9.86044H1.1875ZM16.625 19.3654C16.9399 19.3654 17.242 19.2402 17.4647 19.0174C17.6874 18.7946 17.8125 18.4924 17.8125 18.1773V9.86044H10.7374V19.3654H16.625ZM9.49881 3.91033H9.50237C9.50103 3.91333 9.50023 3.91655 9.5 3.91983H14.25C15.8899 3.91983 16.625 3.12142 16.625 2.13765C16.625 1.15389 15.8899 0.355469 14.25 0.355469C12.7146 0.355469 11.5057 1.04696 10.6875 1.84894C10.3185 1.62661 9.89628 1.50836 9.46556 1.50676C9.03569 1.50676 8.63787 1.62795 8.28875 1.82518C7.47175 1.0327 6.27 0.355469 4.75 0.355469C3.11006 0.355469 2.375 1.15389 2.375 2.13765C2.375 3.12142 3.11006 3.91983 4.75 3.91983H9.5L9.49881 3.91033ZM15.4375 2.13765C15.4375 2.62835 14.7915 2.73171 14.25 2.73171H11.5532C11.5437 2.71508 11.5354 2.69726 11.5259 2.68181C12.1291 2.09488 13.0435 1.54359 14.25 1.54359C14.7915 1.54359 15.4375 1.64696 15.4375 2.13765ZM3.5625 2.13765C3.5625 1.64696 4.2085 1.54359 4.75 1.54359C5.93038 1.54359 6.82575 2.0723 7.429 2.63904C7.41 2.66874 7.39575 2.70082 7.37794 2.73171H4.75C4.2085 2.73171 3.5625 2.62835 3.5625 2.13765Z" fill="black"/>
</svg>
