<svg width="38" height="26" viewBox="0 0 38 26" fill="none" xmlns="http://www.w3.org/2000/svg">
    <path d="M37.8965 9.36589C37.7118 9.0365 37.3421 8.95243 37.0714 9.17649C35.638 10.3703 34.2012 11.6417 32.7991 12.9577C32.5986 13.1471 32.2315 13.2935 32.1091 13.0793L27.2461 4.44524C27.1192 4.22299 27.3837 3.85369 27.5879 3.70311C28.6255 2.93274 29.6573 2.13333 30.6544 1.32694C30.9278 1.10641 31.0022 0.656934 30.821 0.32401C30.6395 -0.00891371 30.2711 -0.100764 29.9979 0.121125C29.0137 0.91692 27.9949 1.70575 26.9715 2.46553C26.6256 2.72099 26.3587 3.07663 26.1978 3.47624C23.147 3.47624 17.0145 3.47624 11.8022 3.47624C11.6413 3.07672 11.3746 2.72126 11.0296 2.46625C10.005 1.70575 8.98622 0.917011 8.00196 0.121125C7.72913 -0.100764 7.36068 -0.00891371 7.17887 0.32401C6.99765 0.656934 7.07219 1.10641 7.34554 1.32694C8.34257 2.13342 9.37435 2.93274 10.4132 3.70383C10.7778 3.97305 10.8084 4.35122 10.7541 4.44452L5.89082 13.0794C5.76506 13.2995 5.39535 13.1404 5.19995 12.9571C3.79876 11.6418 2.36193 10.3703 0.928596 9.17649C0.658068 8.9517 0.288134 9.03659 0.103501 9.36589C-0.0814289 9.69592 -0.0118668 10.1468 0.258884 10.3724C1.67366 11.5498 3.09222 12.8051 4.47426 14.1027C5.33625 14.9162 6.38941 14.7503 6.86959 13.8992L7.12067 13.4535C7.405 13.7695 7.72787 14.186 7.88778 14.5799C7.95615 14.7479 8.00901 14.8897 8.07746 15.0764C7.93217 15.2148 7.79609 15.3689 7.6834 15.5546C7.0076 16.6678 7.2004 18.2433 8.1125 19.0659L8.18674 19.1331C8.18704 19.1338 8.18733 19.1338 8.18733 19.1338C8.57397 19.4829 9.02661 19.6645 9.60048 19.5992C9.65215 20.4181 9.9696 21.0464 10.438 21.469H10.4383C10.8795 21.8672 11.4377 22.0564 12.0376 21.9338C12.118 22.6746 12.43 23.2662 12.8695 23.6628C13.331 24.0794 13.901 24.268 14.5545 24.1015C14.6447 24.6802 14.9005 25.1912 15.2911 25.5428C16.0459 26.2248 17.111 26.1524 17.8052 25.2675C18.8107 25.9458 20.0252 25.556 20.6479 24.4508C20.8517 24.089 20.9618 23.6862 21.0031 23.2781L21.2872 23.525C22.2765 24.3532 23.6348 24.0455 24.3145 22.8394C24.5198 22.4749 24.63 22.0687 24.6702 21.6569C25.6964 22.4089 26.9536 22.0069 27.5828 20.8908C27.7844 20.533 27.8984 20.128 27.9401 19.7092L27.9699 19.7338C28.9552 20.5598 30.3115 20.265 30.9972 19.0482C31.6762 17.8425 31.4237 16.1872 30.431 15.356L30.3395 15.2805L31.5569 14.382C32.1779 14.8322 32.9581 14.6383 33.525 14.1036C34.9079 12.8052 36.3264 11.5499 37.7412 10.3724C38.0118 10.1469 38.0815 9.69601 37.8965 9.36589ZM8.89409 17.9702L8.81985 17.9031C8.43314 17.554 8.35163 16.8868 8.63782 16.4153C8.92936 15.936 9.47665 15.849 9.85749 16.1927L9.93233 16.2606C10.2592 16.5556 10.3652 17.0771 10.2184 17.5162C10.1574 17.6188 9.9837 17.9111 9.97472 17.9266C9.67294 18.2371 9.2255 18.2696 8.89409 17.9702ZM11.1444 20.3055C10.7638 19.9616 10.6483 19.309 10.9262 18.7934C11.0263 18.6595 11.4272 17.9654 11.6164 17.6466C11.9118 17.1608 12.4833 17.036 12.9014 17.4127C13.3087 17.7802 13.3948 18.4828 13.0933 18.979L12.4297 20.0717C12.1274 20.5686 11.5539 20.6734 11.1444 20.3055ZM13.5762 22.4993H13.5759C13.1679 22.1307 13.0824 21.4319 13.383 20.9345C13.3833 20.934 13.3836 20.9336 13.384 20.9331C13.6689 20.464 14.701 18.7647 14.6379 18.8686C14.9418 18.3688 15.5171 18.2685 15.9228 18.6346C16.3293 19.0019 16.4179 19.7013 16.1147 20.2009L14.8608 22.2654C14.5604 22.7595 13.9872 22.8701 13.5762 22.4993ZM17.1874 23.9107L17.0149 24.1942C16.7763 24.5872 16.3191 24.6698 15.9973 24.3793C15.997 24.3793 15.997 24.3793 15.9967 24.3793C15.6761 24.0902 15.6043 23.5362 15.8451 23.1389L16.0176 22.8548C16.2573 22.461 16.712 22.3772 17.0355 22.6696C17.3582 22.9608 17.426 23.5171 17.1874 23.9107ZM30.018 18.229C29.7212 18.7562 29.1123 18.9357 28.6388 18.5378C20.1894 11.4905 23.1036 13.9211 22.4732 13.3953C22.2033 13.1677 21.8333 13.2525 21.6478 13.5819C21.462 13.9119 21.5306 14.3622 21.8012 14.5883L26.3483 18.3937C26.7926 18.7653 26.9178 19.5149 26.6039 20.0708C26.2952 20.6201 25.6785 20.7592 25.228 20.3832L20.6806 16.5772C20.3674 16.3137 19.9743 16.5108 19.8021 16.8295C19.6209 17.1624 19.6957 17.6112 19.9691 17.8324L23.0794 20.3429C23.529 20.7196 23.6438 21.4723 23.3353 22.0201C23.026 22.5685 22.4087 22.7077 21.9678 22.3388L19.0404 19.7951C18.7726 19.5633 18.4024 19.6382 18.2122 19.9647C18.022 20.2898 18.084 20.7421 18.3511 20.974C19.8012 22.3202 19.3063 21.8649 19.413 21.9543C19.8627 22.331 19.9775 23.083 19.6687 23.6315C19.4001 24.1087 18.8836 24.298 18.4335 24.0381C18.6523 23.1257 18.4044 22.1041 17.7419 21.5062C17.5287 21.3136 17.2897 21.1825 17.0392 21.1107L17.069 21.0616C17.7627 19.9199 17.5632 18.3134 16.6292 17.4711C15.9159 16.8268 14.9912 16.8206 14.2921 17.332C14.151 16.9157 13.9257 16.5361 13.6077 16.2491C12.9066 15.6158 11.9957 15.5924 11.287 16.1005C11.1476 15.716 10.9358 15.365 10.6395 15.0977L10.5647 15.0298C10.1638 14.668 9.67887 14.5118 9.18734 14.555C9.09506 14.3064 9.04175 14.1584 8.95163 13.9371C8.67494 13.2555 8.16692 12.6386 7.79884 12.2488L11.7331 5.26348C11.7931 5.15688 11.8393 5.04204 11.8769 4.9235H14.5644C13.2948 5.81259 12.5065 7.46336 12.5065 9.25114V10.153C12.5065 11.3278 13.4421 12.1452 14.3463 11.7991C15.0131 11.546 15.5651 10.9523 15.9432 10.0823C16.3175 9.22146 17.046 8.68647 17.845 8.68647C18.5663 8.68647 19.2256 9.07025 19.6089 9.71275C20.0505 10.4534 20.9089 11.3362 22.4915 11.3362C23.1137 11.3362 23.715 11.561 24.2307 11.9865L29.7618 16.5516C30.2117 16.9285 30.3264 17.6812 30.018 18.229ZM24.8966 10.788C24.1837 10.2 23.3519 9.88894 22.4917 9.88894C21.6226 9.88894 20.9761 9.54335 20.5696 8.86202C19.9637 7.8457 18.9452 7.23921 17.8453 7.23921C16.6055 7.23921 15.4746 8.06894 14.8939 9.40553C14.6626 9.93772 14.3599 10.2784 13.9937 10.417C13.8466 10.475 13.6942 10.3434 13.6942 10.1534V9.25151C13.6942 7.96732 14.2659 6.77987 15.1861 6.15366L16.994 4.92386C17.949 4.92386 23.8787 4.92386 26.1229 4.92386C26.1606 5.04259 26.2068 5.1576 26.267 5.26457L30.7743 13.267L29.2569 14.3868L24.8966 10.788Z" fill="black"/>
</svg>
