<svg width="70" height="65" viewBox="0 0 70 65" fill="none" xmlns="http://www.w3.org/2000/svg">
    <path fill-rule="evenodd" clip-rule="evenodd" d="M4.31636 0H65.6842C68.0586 0 70 3.31818 70 7.35454V57.6464C70 61.6818 68.0529 65 65.6842 65H4.31636C1.94769 65 0 61.6896 0 57.6455V7.35454C0 3.30944 1.94256 0 4.31636 0ZM18.5472 14.0617V43.5711H22.1361V50.9373H12.5851V14.0617H18.5472ZM29.5543 14.0617V50.9373H23.5927V14.0617H29.5543ZM46.0564 14.0617L43.0411 50.9373H34.0262L30.5723 14.0617H36.8523C37.5609 24.2317 38.0771 32.8334 38.4012 39.8647C38.7196 32.7557 39.0478 26.4464 39.3804 20.9378L39.7752 14.0617H46.0564ZM47.0829 14.0617H57.0099V21.427H53.0456V28.4661H56.7496V35.4586H53.0456V43.5701H57.4149V50.9363H47.0829V14.0617Z" fill="#000000"/>
</svg>
