<svg width="19" height="19" viewBox="0 0 19 19" fill="none" xmlns="http://www.w3.org/2000/svg">
<path d="M9.5 0C6.98131 0.00226306 4.56659 0.803722 2.78561 2.22855C1.00463 3.65337 0.00282875 5.58519 0 7.6002C0 10.6925 2.80606 13.2604 5.77838 15.9785C6.71888 16.8392 7.69263 17.7294 8.5595 18.63C8.67043 18.7451 8.81291 18.8383 8.97596 18.9025C9.13902 18.9666 9.3183 19 9.5 19C9.6817 19 9.86098 18.9666 10.024 18.9025C10.1871 18.8383 10.3296 18.7451 10.4405 18.63C11.3074 17.7294 12.2811 16.8392 13.2216 15.9785C16.1939 13.2604 19 10.6925 19 7.6002C18.9972 5.58519 17.9954 3.65337 16.2144 2.22855C14.4334 0.803722 12.0187 0.00226306 9.5 0ZM9.5 10.4503C8.7954 10.4503 8.10663 10.2831 7.52078 9.96995C6.93493 9.65678 6.47832 9.21166 6.20868 8.69087C5.93904 8.17009 5.86849 7.59704 6.00595 7.04418C6.14341 6.49132 6.48271 5.98348 6.98093 5.58489C7.47916 5.1863 8.11393 4.91486 8.80499 4.80489C9.49605 4.69492 10.2123 4.75136 10.8633 4.96707C11.5143 5.18279 12.0707 5.54809 12.4621 6.01678C12.8536 6.48547 13.0625 7.03651 13.0625 7.6002C13.0625 8.35608 12.6872 9.08101 12.0191 9.61551C11.351 10.15 10.4448 10.4503 9.5 10.4503Z" fill="black"/>
</svg>
