<svg width="24" height="24" viewBox="0 0 24 24" fill="none" xmlns="http://www.w3.org/2000/svg">
    <path fill-rule="evenodd" clip-rule="evenodd" d="M5.66662 4.66666C6.95527 4.66666 7.99992 3.622 7.99992 2.33333C7.99992 1.04467 6.95527 0 5.66662 0C4.37797 0 3.33331 1.04467 3.33331 2.33333C3.33331 3.622 4.37797 4.66666 5.66662 4.66666ZM9.0989 9.33332C9.1321 9.56825 9.16144 9.81912 9.18697 10.0811C9.3327 11.5777 9.33323 13.2006 9.33323 13.6665C9.33323 14.2188 9.7809 14.6665 10.3332 14.6665C10.8855 14.6665 11.3332 14.2188 11.3332 13.6665V13.662C11.3332 13.1904 11.3332 11.4859 11.1775 9.88719C11.1003 9.09452 10.9797 8.26766 10.7795 7.61679C10.6814 7.29746 10.543 6.94846 10.3325 6.65946C10.1215 6.36979 9.72656 5.99999 9.12564 5.99999H2.20754C1.60664 5.99999 1.21168 6.36979 1.00068 6.65946C0.790176 6.94846 0.651791 7.29746 0.553599 7.61679C0.353469 8.26766 0.232824 9.09452 0.155651 9.88719C-1.32619e-05 11.4859 -6.57932e-06 13.1904 8.72553e-08 13.662V13.6665C8.72553e-08 14.2188 0.447707 14.6665 0.999987 14.6665C1.55226 14.6665 1.99997 14.2188 1.99997 13.6665C1.99997 13.2006 2.00048 11.5777 2.1462 10.0811C2.17171 9.81912 2.20104 9.56825 2.23426 9.33332H2.66663L2.66662 22.9999C2.66662 23.5366 3.09039 23.9777 3.62671 23.9991C4.16304 24.0205 4.62063 23.6147 4.66343 23.0796L5.22976 16H6.10341L6.66974 23.0797C6.71254 23.6148 7.17013 24.0206 7.70646 23.9992C8.24278 23.9778 8.66658 23.5367 8.66658 23V9.33332H9.0989ZM20.6665 2.33333C20.6665 3.622 19.6219 4.66666 18.3332 4.66666C17.0446 4.66666 15.9999 3.622 15.9999 2.33333C15.9999 1.04467 17.0446 0 18.3332 0C19.6219 0 20.6665 1.04467 20.6665 2.33333ZM21.2442 6.03066C21.1643 6.01053 21.0823 6.00033 20.9999 6.00033H17.3334C17.3245 6.00033 17.3155 6.00046 17.3067 6.00066L16.9584 6.00059C16.4172 6.00053 15.8328 6.00053 15.6652 6.00079C15.5833 6.00093 15.5017 6.01106 15.4223 6.03113C14.6798 6.21819 14.181 6.67039 13.867 7.28826C13.5922 7.82906 13.4582 8.50159 13.3469 9.16972L12.6803 13.1697C12.5895 13.7145 12.9575 14.2297 13.5022 14.3205C14.047 14.4113 14.5622 14.0433 14.653 13.4985L15.3197 9.49852C15.3816 9.12712 15.4386 8.84419 15.4965 8.62586L15.6666 10.6668C15.6665 11.9131 14.5373 17.6056 14.1379 19.5802C14.0628 19.9515 14.312 20.3089 14.6867 20.3647C17.4344 20.7743 19.2322 20.7612 21.9791 20.3617C22.3541 20.3072 22.6053 19.9514 22.5318 19.5797C22.1353 17.5739 20.9999 11.7376 20.9999 10.6667L21.17 8.62545C21.2279 8.84379 21.2849 9.12672 21.3468 9.49805L22.0135 13.498C22.1043 14.0428 22.6195 14.4108 23.1642 14.32C23.709 14.2292 24.077 13.714 23.9862 13.1692L23.3196 9.16926C23.2082 8.50112 23.0743 7.82859 22.7995 7.28779C22.4855 6.66992 21.9867 6.21772 21.2442 6.03066ZM16.0051 23.416L15.754 21.4076C16.4603 21.4945 17.132 21.5504 17.7932 21.5758L17.3133 23.495C17.2355 23.8064 16.9468 24.0182 16.6264 23.9988C16.306 23.9794 16.0449 23.7345 16.0051 23.416ZM19.3532 23.4947L18.877 21.5902C19.5418 21.5822 20.2093 21.5432 20.9041 21.474L20.6614 23.4157C20.6216 23.7342 20.3605 23.9791 20.0401 23.9984C19.7197 24.0178 19.431 23.8061 19.3532 23.4947Z" fill="black"/>
</svg>
