<svg width="56" height="56" viewBox="0 0 56 56" fill="none" xmlns="http://www.w3.org/2000/svg">
    <path fill-rule="evenodd" clip-rule="evenodd" d="M55.8605 1.80488L43.605 24.3123C43.5267 24.4796 43.4098 24.6234 43.2652 24.7304C43.1205 24.8374 42.9528 24.9041 42.7773 24.9245C42.6019 24.9449 42.4244 24.9182 42.2613 24.8469C42.0982 24.7756 41.9547 24.662 41.844 24.5166C39.5691 21.5262 36.4785 19.3501 32.9929 18.2847V18.2815C32.8396 18.2352 32.6983 18.1526 32.5797 18.0399C32.461 17.9273 32.3682 17.7875 32.3082 17.6312C32.2482 17.4749 32.2227 17.3062 32.2335 17.1379C32.2443 16.9696 32.2913 16.8061 32.3707 16.6599L41.1425 0.587597C41.2328 0.408769 41.3675 0.259481 41.5322 0.15591C41.697 0.0523388 41.8853 -0.00156668 42.0769 3.46663e-05L54.9593 0.141655C55.1425 0.14316 55.3222 0.195434 55.4804 0.293271C55.6386 0.391108 55.7698 0.531094 55.861 0.699284C55.9522 0.867475 56.0001 1.058 56 1.25189C55.9999 1.44577 55.9518 1.63625 55.8605 1.80434M14.8434 0.677326L23.5794 16.6858C23.6675 16.8311 23.7224 16.996 23.7399 17.1675C23.7574 17.339 23.7369 17.5125 23.6802 17.6743C23.6235 17.836 23.532 17.9816 23.413 18.0996C23.294 18.2175 23.1507 18.3046 22.9945 18.3539C21.2705 18.9051 19.637 19.7337 18.1513 20.8107C16.6669 21.8858 15.3458 23.1938 14.2334 24.6896C14.1289 24.8376 13.9913 24.9559 13.8329 25.0337C13.6745 25.1115 13.5003 25.1464 13.326 25.1353C13.1517 25.1241 12.9827 25.0673 12.8343 24.9698C12.6859 24.8724 12.5628 24.7374 12.4759 24.5771L0.138162 1.80488C0.0470237 1.63601 -0.000616472 1.44478 6.02303e-06 1.25032C0.000628519 1.05585 0.0494916 0.864967 0.141709 0.69675C0.233926 0.528533 0.366266 0.388878 0.525496 0.29175C0.684726 0.194622 0.865266 0.143425 1.04906 0.143277L13.8696 0.12652C14.0639 0.114477 14.2575 0.159748 14.4289 0.257287C14.6003 0.354827 14.7427 0.500803 14.8403 0.678948" fill="#431C10"/>
    <path fill-rule="evenodd" clip-rule="evenodd" d="M28.1028 16.4453C31.7998 16.4453 35.4139 17.6053 38.4879 19.7785C41.5618 21.9517 43.9577 25.0405 45.3725 28.6544C46.7873 32.2683 47.1575 36.2449 46.4363 40.0814C45.715 43.9179 43.9347 47.442 41.3205 50.2079C38.7063 52.9739 35.3756 54.8575 31.7495 55.6206C28.1235 56.3838 24.3651 55.9921 20.9494 54.4952C17.5338 52.9982 14.6144 50.4633 12.5604 47.2109C10.5065 43.9584 9.41016 40.1346 9.41016 36.223C9.41016 30.9776 11.3796 25.9471 14.8851 22.2381C18.3907 18.529 23.1452 16.4453 28.1028 16.4453" fill="#FCB912"/>
    <path fill-rule="evenodd" clip-rule="evenodd" d="M28.1041 16.4453C27.8885 16.4453 27.675 16.4545 27.4609 16.4626C32.3021 16.6403 36.8888 18.8001 40.2541 22.4864C43.6195 26.1728 45.5004 31.0978 45.5004 36.223C45.5004 41.3482 43.6195 46.2732 40.2541 49.9595C36.8888 53.6459 32.3021 55.8056 27.4609 55.9834C27.675 55.9909 27.8885 56.0007 28.1041 56.0007C33.0617 56.0007 37.8163 53.9169 41.3218 50.2079C44.8274 46.4989 46.7968 41.4683 46.7968 36.223C46.7968 30.9776 44.8274 25.9471 41.3218 22.2381C37.8163 18.529 33.0617 16.4453 28.1041 16.4453V16.4453Z" fill="#F2A31E"/>
    <path d="M38.367 26.2449C36.1852 23.9364 33.3143 22.4997 30.2436 22.1797C27.1728 21.8596 24.0922 22.676 21.5266 24.4897C18.961 26.3035 17.0691 29.0023 16.1734 32.1264C15.2776 35.2505 15.4334 38.6066 16.6142 41.6228C17.7949 44.6391 19.9276 47.1288 22.6488 48.6678C25.3701 50.2068 28.5115 50.6999 31.5378 50.0631C34.5641 49.4262 37.2881 47.6988 39.2456 45.1752C41.2032 42.6516 42.2731 39.4879 42.2732 36.2232C42.2755 34.3697 41.9316 32.534 41.2612 30.8216C40.5909 29.1092 39.6073 27.5539 38.367 26.2449M28.9361 19.8828C32.5093 19.8827 35.9719 21.1934 38.7341 23.5917C41.4963 25.99 43.387 29.3274 44.0843 33.0353C44.7815 36.7432 44.242 40.5921 42.5577 43.9264C40.8734 47.2606 38.1486 49.8738 34.8474 51.3206C31.5463 52.7675 27.8731 52.9586 24.4538 51.8612C21.0345 50.7639 18.0805 48.4461 16.0953 45.3027C14.1101 42.1593 13.2164 38.3849 13.5665 34.6225C13.9167 30.8601 15.489 27.3426 18.0155 24.6693C19.448 23.1496 21.1502 21.9444 23.0244 21.123C24.8985 20.3016 26.9075 19.8801 28.9361 19.8828Z" fill="#F2A31E"/>
    <path d="M30.1039 28.0039L31.5394 32.7098L36.2252 32.7001C36.4832 32.7002 36.7345 32.7868 36.9431 32.9475C37.1516 33.1081 37.3068 33.3345 37.3862 33.5942C37.4656 33.8538 37.4653 34.1335 37.3852 34.3929C37.3051 34.6524 37.1494 34.8784 36.9405 35.0384V35.0411L33.1492 37.9465L34.6052 42.6567C34.6856 42.9245 34.6816 43.2126 34.5939 43.4778C34.5062 43.743 34.3395 43.9709 34.1189 44.1273C33.8983 44.2836 33.6356 44.3599 33.3705 44.3448C33.1053 44.3296 32.852 44.2238 32.6486 44.0432L28.9375 41.1784L25.1519 44.1C24.9435 44.2608 24.6923 44.3477 24.4344 44.348C24.1765 44.3484 23.9251 44.2622 23.7163 44.1019C23.5075 43.9416 23.3522 43.7155 23.2725 43.4559C23.1928 43.1963 23.193 42.9167 23.2729 42.6573H23.2698L24.7253 37.9465L20.9315 35.0417C20.7172 34.8756 20.5596 34.6404 20.4825 34.3715C20.4054 34.1025 20.4129 33.8143 20.5039 33.5503C20.595 33.2863 20.7646 33.0607 20.9873 32.9074C21.21 32.7542 21.4737 32.6816 21.7387 32.7006L26.3366 32.7103L27.7753 27.9958C27.8546 27.7342 28.0106 27.5062 28.2207 27.3447C28.4308 27.1832 28.6839 27.0967 28.9436 27.0977C29.2032 27.0986 29.4558 27.187 29.6648 27.3501C29.8738 27.5131 30.0283 27.7423 30.1059 28.0044" fill="#F2A31E"/>
    <path d="M37.5349 26.2449C35.3531 23.9364 32.4823 22.4997 29.4115 22.1797C26.3408 21.8596 23.2602 22.676 20.6946 24.4897C18.129 26.3035 16.2371 29.0023 15.3414 32.1264C14.4456 35.2505 14.6014 38.6066 15.7821 41.6228C16.9629 44.6391 19.0956 47.1288 21.8168 48.6678C24.538 50.2068 27.6794 50.6999 30.7058 50.0631C33.7321 49.4262 36.4561 47.6988 38.4136 45.1752C40.3711 42.6516 41.4411 39.4879 41.4411 36.2232C41.4435 34.3697 41.0996 32.534 40.4292 30.8216C39.7589 29.1092 38.7753 27.5538 37.5349 26.2449M28.1041 19.8828C31.6772 19.8827 35.1399 21.1934 37.9021 23.5917C40.6642 25.99 42.555 29.3274 43.2522 33.0353C43.9494 36.7432 43.4099 40.5922 41.7257 43.9264C40.0414 47.2606 37.3165 49.8738 34.0154 51.3206C30.7143 52.7675 27.0411 52.9586 23.6218 51.8612C20.2024 50.7639 17.2485 48.4461 15.2633 45.3027C13.2781 42.1593 12.3844 38.3849 12.7345 34.6225C13.0846 30.8601 14.6569 27.3426 17.1835 24.6693C18.616 23.1496 20.3182 21.9444 22.1923 21.1229C24.0664 20.3015 26.0755 19.8801 28.1041 19.8828V19.8828Z" fill="#FCF8CF"/>
    <path d="M29.2718 28.0043L30.7074 32.7102L35.3932 32.7005C35.6512 32.7006 35.9025 32.7872 36.111 32.9479C36.3196 33.1085 36.4747 33.3349 36.5542 33.5946C36.6336 33.8542 36.6333 34.1339 36.5532 34.3933C36.4731 34.6528 36.3174 34.8788 36.1084 35.0388V35.0415L32.3172 37.9469L33.7732 42.6571C33.8537 42.925 33.8499 43.2133 33.7622 43.4786C33.6745 43.744 33.5077 43.972 33.2869 44.1284C33.0662 44.2847 32.8034 44.361 32.5381 44.3458C32.2728 44.3305 32.0194 44.2244 31.816 44.0436L28.1034 41.1793L24.3178 44.1009C24.1094 44.2614 23.8583 44.3479 23.6005 44.3481C23.3427 44.3482 23.0915 44.2621 22.8829 44.1019C22.6743 43.9417 22.5189 43.7157 22.4391 43.4564C22.3594 43.197 22.3592 42.9176 22.4388 42.6582H22.4357L23.8938 37.9469L20.0995 35.0421C19.8851 34.876 19.7276 34.6408 19.6504 34.3719C19.5733 34.1029 19.5809 33.8147 19.6719 33.5507C19.763 33.2867 19.9326 33.0611 20.1553 32.9078C20.3779 32.7546 20.6416 32.682 20.9067 32.701L25.5046 32.7107L26.9432 27.9962C27.0225 27.7345 27.1784 27.5064 27.3884 27.3448C27.5984 27.1833 27.8516 27.0967 28.1113 27.0977C28.371 27.0986 28.6236 27.1871 28.8325 27.3502C29.0415 27.5133 29.1959 27.7426 29.2734 28.0048" fill="#FCF8CF"/>
</svg>
