<svg width="14" height="14" viewBox="0 0 14 14" fill="none" xmlns="http://www.w3.org/2000/svg">
<path d="M0.875 0C0.643149 0.000553954 0.420991 0.0744816 0.257046 0.205637C0.0931016 0.336793 0.000692443 0.514519 0 0.7V13.3C0.000692443 13.4855 0.0931016 13.6632 0.257046 13.7944C0.420991 13.9255 0.643149 13.9994 0.875 14H13.125C13.3569 13.9994 13.579 13.9255 13.743 13.7944C13.9069 13.6632 13.9993 13.4855 14 13.3V0.7C13.9993 0.514519 13.9069 0.336793 13.743 0.205637C13.579 0.0744816 13.3569 0.000553954 13.125 0H10.5V1.05C10.5 1.32848 10.3617 1.59555 10.1156 1.79246C9.86944 1.98938 9.5356 2.1 9.1875 2.1H4.8125C4.4644 2.1 4.13056 1.98938 3.88442 1.79246C3.63828 1.59555 3.5 1.32848 3.5 1.05V0H0.875ZM11.8125 11.2H2.1875C2.07147 11.2 1.96019 11.1631 1.87814 11.0975C1.79609 11.0318 1.75 10.9428 1.75 10.85C1.75 10.7572 1.79609 10.6681 1.87814 10.6025C1.96019 10.5369 2.07147 10.5 2.1875 10.5H11.8125C11.9285 10.5 12.0398 10.5369 12.1219 10.6025C12.2039 10.6681 12.25 10.7572 12.25 10.85C12.25 10.9428 12.2039 11.0318 12.1219 11.0975C12.0398 11.1631 11.9285 11.2 11.8125 11.2ZM11.8125 7.7H2.1875C2.07147 7.7 1.96019 7.66313 1.87814 7.59749C1.79609 7.53185 1.75 7.44283 1.75 7.35C1.75 7.25717 1.79609 7.16815 1.87814 7.10251C1.96019 7.03687 2.07147 7 2.1875 7H11.8125C11.9285 7 12.0398 7.03687 12.1219 7.10251C12.2039 7.16815 12.25 7.25717 12.25 7.35C12.25 7.44283 12.2039 7.53185 12.1219 7.59749C12.0398 7.66313 11.9285 7.7 11.8125 7.7ZM11.8125 3.5C11.9285 3.5 12.0398 3.53687 12.1219 3.60251C12.2039 3.66815 12.25 3.75717 12.25 3.85C12.25 3.94283 12.2039 4.03185 12.1219 4.09749C12.0398 4.16313 11.9285 4.2 11.8125 4.2H2.1875C2.07147 4.2 1.96019 4.16313 1.87814 4.09749C1.79609 4.03185 1.75 3.94283 1.75 3.85C1.75 3.75717 1.79609 3.66815 1.87814 3.60251C1.96019 3.53687 2.07147 3.5 2.1875 3.5H11.8125Z" fill="black"/>
</svg>
