<svg width="24" height="24" viewBox="0 0 24 24" fill="none" xmlns="http://www.w3.org/2000/svg">
<path d="M23.9992 1.00629V22.9937C23.9992 23.2606 23.8811 23.5166 23.671 23.7053C23.4609 23.894 23.1759 24 22.8787 24H5.35483C5.05767 24 4.77267 23.894 4.56255 23.7053C4.35242 23.5166 4.23438 23.2606 4.23438 22.9937V7.51698L10.3969 0H22.8787C23.1759 0 23.4609 0.10602 23.671 0.294736C23.8811 0.483451 23.9992 0.739405 23.9992 1.00629Z" fill="#EDEEEF"/>
<path d="M10.3982 0.00976562V6.46511C10.3982 6.732 10.2801 6.98795 10.07 7.17667C9.85985 7.36538 9.57486 7.4714 9.2777 7.4714H4.26367L10.3982 0.00976562Z" fill="#CFD0D1"/>
<path d="M16.4258 13.7461H1.12045C0.501644 13.7461 0 14.1966 0 14.7524V19.804C0 20.3597 0.501644 20.8102 1.12045 20.8102H16.4258C17.0447 20.8102 17.5463 20.3597 17.5463 19.804V14.7524C17.5463 14.1966 17.0447 13.7461 16.4258 13.7461Z" fill="#FF3717"/>
<path d="M5.69159 17.6856V18.7724H4.7168V15.7888H6.06134C6.32304 15.7761 6.58473 15.8138 6.82885 15.8995C7.00259 15.9701 7.14889 16.0858 7.24902 16.2316C7.35035 16.3835 7.40272 16.5576 7.40028 16.7347C7.40686 16.8632 7.3822 16.9914 7.32802 17.1104C7.27384 17.2295 7.19144 17.3365 7.08656 17.424C6.85303 17.6065 6.5497 17.7003 6.24061 17.6856H5.69159ZM5.69159 17.0467H6.01652C6.30224 17.0467 6.44229 16.946 6.44229 16.7498C6.44229 16.5536 6.31344 16.468 6.05014 16.468H5.69159V17.0467ZM7.76443 18.7724V15.7888H8.99132C9.21492 15.7737 9.43934 15.8059 9.64658 15.8828C9.85382 15.9597 10.0381 16.0791 10.1846 16.2316C10.4486 16.5224 10.5895 16.8878 10.5824 17.263C10.606 17.6616 10.4529 18.0523 10.1566 18.3498C10.0159 18.4899 9.84257 18.6004 9.6489 18.6735C9.45524 18.7465 9.24602 18.7803 9.03614 18.7724H7.76443ZM8.73922 18.0831H8.99132C9.07516 18.0818 9.15713 18.0607 9.22894 18.0218C9.30075 17.9829 9.35986 17.9277 9.40029 17.8617C9.51764 17.6804 9.57406 17.4725 9.56276 17.263C9.56714 17.0672 9.51708 16.8735 9.4171 16.6995C9.37784 16.6286 9.31697 16.5693 9.24159 16.5283C9.16621 16.4873 9.07942 16.4664 8.99132 16.468H8.73922V18.0831ZM12.9745 17.6555H11.9437V18.7724H10.9969V15.7888H13.2883V16.4982H11.9437V17.0014H12.9745V17.6555Z" fill="#EDEEEF"/>
</svg>
