<svg width="26" height="26" viewBox="0 0 26 26" fill="none" xmlns="http://www.w3.org/2000/svg">
<path d="M13 13C14.1867 13 15.3467 12.6481 16.3334 11.9888C17.3201 11.3295 18.0892 10.3925 18.5433 9.2961C18.9974 8.19975 19.1162 6.99335 18.8847 5.82946C18.6532 4.66557 18.0818 3.59648 17.2426 2.75736C16.4035 1.91825 15.3344 1.3468 14.1705 1.11529C13.0067 0.88378 11.8003 1.0026 10.7039 1.45673C9.60754 1.91085 8.67047 2.67989 8.01118 3.66658C7.35189 4.65328 7 5.81331 7 7C7 8.5913 7.63214 10.1174 8.75736 11.2426C9.88258 12.3679 11.4087 13 13 13ZM13 16C8.995 16 1 18.01 1 22V25H25V22C25 18.01 17.005 16 13 16Z" stroke="black"/>
</svg>
