<svg width="19" height="19" viewBox="0 0 19 19" fill="none" xmlns="http://www.w3.org/2000/svg">
	<path d="M9.5 19C7.82167 19 6.23833 18.5725 4.75 17.7175C3.29333 16.8625 2.1375 15.7067 1.2825 14.25C0.4275 12.7933 0 11.21 0 9.5C0 7.79 0.4275 6.20667 1.2825 4.75C2.1375 3.29333 3.29333 2.1375 4.75 1.2825C6.20667 0.4275 7.79 0 9.5 0C11.21 0 12.7933 0.4275 14.25 1.2825C15.7067 2.1375 16.8625 3.29333 17.7175 4.75C18.5725 6.20667 19 7.79 19 9.5C19 11.1783 18.5725 12.7617 17.7175 14.25C16.8625 15.7067 15.7067 16.8625 14.25 17.7175C12.7933 18.5725 11.21 19 9.5 19ZM13.3475 9.5L7.22 4.94V14.06L13.3475 9.5Z" fill="black"/>
</svg>
