<svg width="24" height="24" viewBox="0 0 24 24" fill="none" xmlns="http://www.w3.org/2000/svg">
    <path d="M24 3.75002V12.0001C24 12.3979 23.8421 12.7794 23.5609 13.0608L13.0604 23.5608C12.7791 23.842 12.3977 24 11.9999 24C11.6022 24 11.2207 23.842 10.9394 23.5608L0.43937 13.0608C0.300073 12.9215 0.189576 12.7561 0.114189 12.5741C0.0388014 12.3921 0 12.1971 0 12.0001C0 11.8031 0.0388014 11.608 0.114189 11.426C0.189576 11.244 0.300073 11.0787 0.43937 10.9394L10.9394 0.439315C11.2207 0.158058 11.6022 3.52286e-05 11.9999 0H20.25C21.2442 0.00109185 22.1974 0.396533 22.9004 1.09956C23.6035 1.80259 23.9989 2.75579 24 3.75002ZM18.75 3.75002C18.75 4.04669 18.8379 4.33671 19.0028 4.58338C19.1676 4.83006 19.4019 5.02232 19.676 5.13585C19.95 5.24938 20.2516 5.27909 20.5426 5.22121C20.8336 5.16333 21.1009 5.02047 21.3106 4.81069C21.5204 4.60091 21.6633 4.33363 21.7212 4.04266C21.779 3.75168 21.7493 3.45008 21.6358 3.17599C21.5223 2.9019 21.33 2.66763 21.0833 2.50281C20.8367 2.33799 20.5467 2.25001 20.25 2.25001C19.8522 2.25001 19.4706 2.40805 19.1893 2.68935C18.908 2.97066 18.75 3.35219 18.75 3.75002Z" fill="black"/>
    <path d="M14.4999 12.4568C14.776 12.4568 14.9999 12.2368 14.9999 11.9655C14.9999 11.6941 14.776 11.4741 14.4999 11.4741C14.2238 11.4741 14 11.6941 14 11.9655C14 12.2368 14.2238 12.4568 14.4999 12.4568Z" fill="white"/>
    <path d="M15.0004 14.4222C14.8678 14.4222 14.7407 14.3704 14.6469 14.2782C14.5532 14.1861 14.5005 14.0611 14.5005 13.9308C14.5005 13.8005 14.5532 13.6755 14.6469 13.5834C14.7407 13.4912 14.8678 13.4395 15.0004 13.4395C15.5308 13.4395 16.0394 13.2324 16.4144 12.8638C16.7895 12.4952 17.0001 11.9953 17.0001 11.4741V10.9827C17.0001 10.8524 17.0528 10.7274 17.1466 10.6353C17.2403 10.5431 17.3675 10.4914 17.5001 10.4914C17.6327 10.4914 17.7598 10.5431 17.8536 10.6353C17.9473 10.7274 18 10.8524 18 10.9827V11.4741C18 12.2559 17.684 13.0058 17.1214 13.5587C16.5589 14.1116 15.796 14.4222 15.0004 14.4222ZM8.50136 12.7024C8.50136 12.8979 8.42235 13.0854 8.28172 13.2236C8.14109 13.3618 7.95035 13.4395 7.75147 13.4395C7.55258 13.4395 7.36184 13.3618 7.22121 13.2236C7.08058 13.0854 7.00157 12.8979 7.00157 12.7024V11.9654C7.00157 11.8351 6.9489 11.7101 6.85515 11.618C6.76139 11.5258 6.63423 11.4741 6.50165 11.4741C6.36906 11.4741 6.2419 11.5258 6.14814 11.618C6.05439 11.7101 6.00172 11.8351 6.00172 11.9654V12.7024C5.98117 13.1585 6.1458 13.604 6.45941 13.9408C6.77302 14.2776 7.20992 14.4781 7.67398 14.4983C8.13804 14.5185 8.59126 14.3567 8.93393 14.0485C9.27661 13.7402 9.48066 13.3108 9.50122 12.8547C9.66107 12.9142 9.83025 12.9458 10.0011 12.9481C10.3711 12.9459 10.7272 12.8094 11.001 12.5648C11.2748 12.8094 11.6309 12.9459 12.0009 12.9481C12.3986 12.9481 12.7801 12.7928 13.0614 12.5164C13.3426 12.2399 13.5006 11.865 13.5006 11.4741V10.4914C13.5006 10.361 13.448 10.2361 13.3542 10.1439C13.2605 10.0518 13.1333 10 13.0007 10C12.8681 10 12.741 10.0518 12.6472 10.1439C12.5535 10.2361 12.5008 10.361 12.5008 10.4914V11.4741C12.5008 11.6044 12.4481 11.7293 12.3544 11.8215C12.2606 11.9136 12.1334 11.9654 12.0009 11.9654C11.8683 11.9654 11.7411 11.9136 11.6474 11.8215C11.5536 11.7293 11.5009 11.6044 11.5009 11.4741V10.9827C11.5009 10.8524 11.4483 10.7274 11.3545 10.6353C11.2607 10.5431 11.1336 10.4914 11.001 10.4914C10.8684 10.4914 10.7413 10.5431 10.6475 10.6353C10.5537 10.7274 10.5011 10.8524 10.5011 10.9827V11.4741C10.5011 11.6044 10.4484 11.7293 10.3546 11.8215C10.2609 11.9136 10.1337 11.9654 10.0011 11.9654C9.86856 11.9654 9.7414 11.9136 9.64764 11.8215C9.55389 11.7293 9.50122 11.6044 9.50122 11.4741V10.9827C9.50122 10.8524 9.44855 10.7274 9.35479 10.6353C9.26104 10.5431 9.13388 10.4914 9.00129 10.4914C8.8687 10.4914 8.74154 10.5431 8.64778 10.6353C8.55403 10.7274 8.50136 10.8524 8.50136 10.9827V12.7024Z" fill="white"/>
</svg>
