<svg width="30" height="30" viewBox="0 0 30 30" fill="none" xmlns="http://www.w3.org/2000/svg">
<circle cx="15" cy="15" r="15" fill="black" fill-opacity="0.5"/>
<path d="M12.5795 18.9048C14.1992 18.7772 15.8262 18.7772 17.4459 18.9048C18.3278 18.9551 19.2056 19.063 20.0737 19.2278C21.9521 19.5996 23.1784 20.2064 23.704 21.1851C24.0987 21.9488 24.0987 22.8581 23.704 23.6219C23.1784 24.6005 22.0007 25.2464 20.0542 25.5792C19.1868 25.7502 18.3088 25.8614 17.4264 25.9119C16.6088 26 15.7913 26 14.964 26H13.4749C13.1635 25.9609 12.8618 25.9413 12.5698 25.9413C11.6873 25.8969 10.8091 25.789 9.94197 25.6183C8.06357 25.266 6.83725 24.6397 6.31169 23.661C6.1088 23.2819 6.00184 22.8584 6.00012 22.4279C5.99601 21.9948 6.09974 21.5675 6.30195 21.1851C6.81779 20.2064 8.0441 19.5703 9.94197 19.2278C10.8129 19.0606 11.6941 18.9527 12.5795 18.9048ZM15.003 4C18.2657 4 20.9107 6.6596 20.9107 9.94039C20.9107 13.2212 18.2657 15.8808 15.003 15.8808C11.7402 15.8808 9.09523 13.2212 9.09523 9.94039C9.09523 6.6596 11.7402 4 15.003 4Z" fill="white"/>
</svg>
