<svg width="24" height="24" viewBox="0 0 24 24" fill="none" xmlns="http://www.w3.org/2000/svg">
<path d="M6.5459 0.197984C6.43961 0.0711775 6.29582 0 6.14594 0C5.99606 0 5.85228 0.0711775 5.74599 0.197984L2.76098 3.71757L1.69443 2.48892C1.58814 2.36211 1.44435 2.29093 1.29447 2.29093C1.14459 2.29093 1.0008 2.36211 0.894516 2.48892L0.167929 3.35921C0.115606 3.42073 0.074038 3.49416 0.0456605 3.5752C0.0172831 3.65624 0.00266638 3.74326 0.00266638 3.83116C0.00266638 3.91906 0.0172831 4.00608 0.0456605 4.08712C0.074038 4.16816 0.115606 4.24159 0.167929 4.3031L2.39835 6.9356C2.51032 7.06105 2.65779 7.13082 2.81097 7.13082C2.96416 7.13082 3.11163 7.06105 3.2236 6.9356L3.95685 6.0677L7.34115 2.05777C7.39325 1.99623 7.4347 1.92295 7.46311 1.84213C7.49153 1.76131 7.50635 1.67454 7.50672 1.58682C7.50709 1.4991 7.49301 1.41216 7.46528 1.33099C7.43755 1.24983 7.39672 1.17604 7.34515 1.11388L6.5459 0.197984ZM6.5459 9.04015C6.43961 8.91334 6.29582 8.84217 6.14594 8.84217C5.99606 8.84217 5.85228 8.91334 5.74599 9.04015L2.76498 12.5797L1.69843 11.3519C1.59214 11.2251 1.44835 11.1539 1.29847 11.1539C1.14859 11.1539 1.0048 11.2251 0.898516 11.3519L0.165262 12.2238C0.112939 12.2853 0.0713716 12.3587 0.0429942 12.4398C0.0146168 12.5208 0 12.6078 0 12.6957C0 12.7836 0.0146168 12.8706 0.0429942 12.9517C0.0713716 13.0327 0.112939 13.1061 0.165262 13.1677L2.39035 15.8074C2.50224 15.933 2.64974 16.0029 2.80298 16.0029C2.95621 16.0029 3.10371 15.933 3.2156 15.8074L3.94885 14.9355L7.33515 10.9223C7.38713 10.8612 7.42849 10.7883 7.45685 10.7079C7.48522 10.6275 7.50001 10.5411 7.50038 10.4538C7.50075 10.3665 7.4867 10.2799 7.45902 10.1991C7.43135 10.1184 7.3906 10.045 7.33915 9.98324L6.5459 9.04015ZM3.00229 18.667C2.70594 18.6583 2.41114 18.7208 2.13523 18.8509C1.85933 18.981 1.60789 19.176 1.39573 19.4244C1.18357 19.6728 1.01497 19.9697 0.899852 20.2975C0.784737 20.6253 0.725433 20.9774 0.725433 21.3331C0.725433 21.6888 0.784737 22.041 0.899852 22.3688C1.01497 22.6966 1.18357 22.9934 1.39573 23.2418C1.60789 23.4903 1.85933 23.6853 2.13523 23.8153C2.41114 23.9454 2.70594 24.0079 3.00229 23.9992C3.59153 23.9992 4.15665 23.7183 4.57331 23.2183C4.98997 22.7183 5.22404 22.0402 5.22404 21.3331C5.22404 20.626 4.98997 19.9479 4.57331 19.4479C4.15665 18.9479 3.59153 18.667 3.00229 18.667ZM23.2501 19.5557H9.75155C9.55435 19.5542 9.3647 19.6466 9.22414 19.8126C9.08358 19.9785 9.00357 20.2046 9.00163 20.4412V22.2186C9.00224 22.336 9.02213 22.4522 9.06014 22.5604C9.09816 22.6686 9.15357 22.7668 9.22321 22.8493C9.29284 22.9319 9.37534 22.9971 9.466 23.0414C9.55665 23.0856 9.65368 23.108 9.75155 23.1073H23.2501C23.4473 23.1088 23.6369 23.0164 23.7775 22.8505C23.9181 22.6845 23.9981 22.4584 24 22.2218V20.4412C23.9981 20.2046 23.9181 19.9785 23.7775 19.8126C23.6369 19.6466 23.4473 19.5542 23.2501 19.5557ZM23.2501 1.781H9.75155C9.65368 1.78026 9.55665 1.80266 9.466 1.84693C9.37534 1.89119 9.29284 1.95644 9.22321 2.03897C9.15357 2.12149 9.09816 2.21967 9.06014 2.32789C9.02213 2.43611 9.00224 2.55225 9.00163 2.6697V4.44709C9.00224 4.56453 9.02213 4.68067 9.06014 4.7889C9.09816 4.89712 9.15357 4.99529 9.22321 5.07782C9.29284 5.16034 9.37534 5.22559 9.466 5.26986C9.55665 5.31412 9.65368 5.33652 9.75155 5.33578H23.2501C23.3479 5.33652 23.445 5.31412 23.5356 5.26986C23.6263 5.22559 23.7088 5.16034 23.7784 5.07782C23.8481 4.99529 23.9035 4.89712 23.9415 4.7889C23.9795 4.68067 23.9994 4.56453 24 4.44709V2.6697C23.9994 2.55225 23.9795 2.43611 23.9415 2.32789C23.9035 2.21967 23.8481 2.12149 23.7784 2.03897C23.7088 1.95644 23.6263 1.89119 23.5356 1.84693C23.445 1.80266 23.3479 1.78026 23.2501 1.781ZM23.2501 10.668H9.75155C9.65368 10.6672 9.55665 10.6896 9.466 10.7339C9.37534 10.7781 9.29284 10.8434 9.22321 10.9259C9.15357 11.0085 9.09816 11.1066 9.06014 11.2148C9.02213 11.3231 9.00224 11.4392 9.00163 11.5567V13.334C9.00224 13.4515 9.02213 13.5676 9.06014 13.6759C9.09816 13.7841 9.15357 13.8823 9.22321 13.9648C9.29284 14.0473 9.37534 14.1126 9.466 14.1568C9.55665 14.2011 9.65368 14.2235 9.75155 14.2227H23.2501C23.4476 14.2242 23.6376 14.1315 23.7782 13.9651C23.9188 13.7986 23.9986 13.5719 24 13.3348V11.5567C23.9994 11.4392 23.9795 11.3231 23.9415 11.2148C23.9035 11.1066 23.8481 11.0085 23.7784 10.9259C23.7088 10.8434 23.6263 10.7781 23.5356 10.7339C23.445 10.6896 23.3479 10.6672 23.2501 10.668Z" fill="black"/>
</svg>
