<svg width="94" height="85" viewBox="0 0 94 85" fill="none" xmlns="http://www.w3.org/2000/svg">
<path d="M90.0822 0H27.4178C25.2541 0 23.5 1.85046 23.5 4.13313V80.8669C23.5 83.1495 25.2541 85 27.4178 85H90.0822C92.2459 85 94 83.1495 94 80.8669V4.13313C94 1.85046 92.2459 0 90.0822 0Z" fill="#37C6D0"/>
<path d="M23.5 42.5H94V80.8669C94 81.9631 93.5872 83.0143 92.8525 83.7894C92.1178 84.5645 91.1213 85 90.0822 85H27.4178C26.3787 85 25.3822 84.5645 24.6475 83.7894C23.9128 83.0143 23.5 81.9631 23.5 80.8669V42.5Z" fill="#036C70"/>
<path opacity="0.5" d="M23.5 21.25H47C47.8904 21.25 48.7443 21.6231 49.3739 22.2873C50.0034 22.9515 50.3571 23.8524 50.3571 24.7917V66.7002C50.3571 67.243 50.2558 67.7804 50.0589 68.2819C49.862 68.7833 49.5734 69.239 49.2096 69.6228C48.8458 70.0066 48.414 70.311 47.9386 70.5187C47.4633 70.7264 46.9538 70.8333 46.4394 70.8333H23.5V21.25Z" fill="black"/>
<path d="M63.7854 53.125H83.9283V74.375H63.7854V53.125Z" fill="#1A9BA1"/>
<path d="M73.858 35.4173C81.2744 35.4173 87.2866 29.0747 87.2866 21.2507C87.2866 13.4266 81.2744 7.08398 73.858 7.08398C66.4416 7.08398 60.4294 13.4266 60.4294 21.2507C60.4294 29.0747 66.4416 35.4173 73.858 35.4173Z" fill="#1A9BA1"/>
<path d="M73.8578 28.3327C77.566 28.3327 80.5721 25.1614 80.5721 21.2493C80.5721 17.3373 77.566 14.166 73.8578 14.166C70.1496 14.166 67.1436 17.3373 67.1436 21.2493C67.1436 25.1614 70.1496 28.3327 73.8578 28.3327Z" fill="#036C70"/>
<path d="M43.0822 17.709H3.91779C1.75405 17.709 0 19.5594 0 21.8421V63.1592C0 65.4418 1.75405 67.2923 3.91779 67.2923H43.0822C45.2459 67.2923 47 65.4418 47 63.1592V21.8421C47 19.5594 45.2459 17.709 43.0822 17.709Z" fill="#038387"/>
<path d="M33.0154 32.0421H20.2885V40.4961H32.1526V45.5111H20.2885V58.0061H14.531V27.0059H33.0154V32.0421Z" fill="white"/>
</svg>
