<svg width="17" height="19" viewBox="0 0 17 19" fill="none" xmlns="http://www.w3.org/2000/svg">
    <path d="M16.751 2.65913C16.7169 2.41416 16.5407 2.21265 16.3024 2.14642L8.66598 0.0227255C8.55711 -0.00757516 8.44212 -0.00757516 8.33317 0.0227255L0.69674 2.14642C0.458474 2.21265 0.282217 2.41408 0.248108 2.65913C0.203816 2.97762 -0.80662 10.5028 1.78508 14.2463C4.37372 17.9854 8.19251 18.9436 8.35378 18.9826C8.40172 18.9942 8.45056 18.9999 8.49957 18.9999C8.54858 18.9999 8.59743 18.9941 8.64536 18.9826C8.80672 18.9436 12.6255 17.9854 15.2141 14.2463C17.8058 10.5029 16.7953 2.9777 16.751 2.65913ZM13.4241 7.05239L8.21528 12.2612C8.09407 12.3824 7.93512 12.4431 7.77625 12.4431C7.61738 12.4431 7.45842 12.3825 7.33722 12.2612L4.11666 9.04065C4.00017 8.92425 3.93477 8.76628 3.93477 8.60162C3.93477 8.43695 4.00026 8.27899 4.11666 8.16259L4.75612 7.52313C4.9986 7.28073 5.39177 7.28064 5.63417 7.52313L7.77625 9.6652L11.9066 5.53479C12.023 5.41831 12.1809 5.35291 12.3456 5.35291C12.5103 5.35291 12.6682 5.41831 12.7846 5.53479L13.4241 6.17425C13.6666 6.41674 13.6666 6.80991 13.4241 7.05239Z" fill="black"/>
</svg>
