<svg width="24" height="24" viewBox="0 0 24 24" fill="none" xmlns="http://www.w3.org/2000/svg">
<path d="M0 0H24V24H0V0Z" fill="#1A1A1A"/>
<path d="M0 0H24V6.54545H0V0Z" fill="#E6E7E8"/>
<path d="M3.83992 3.27273C3.83992 3.56205 3.73878 3.83953 3.55874 4.04412C3.37871 4.2487 3.13453 4.36364 2.87992 4.36364C2.62531 4.36364 2.38113 4.2487 2.2011 4.04412C2.02106 3.83953 1.91992 3.56205 1.91992 3.27273C1.91992 2.9834 2.02106 2.70592 2.2011 2.50134C2.38113 2.29675 2.62531 2.18182 2.87992 2.18182C3.13453 2.18182 3.37871 2.29675 3.55874 2.50134C3.73878 2.70592 3.83992 2.9834 3.83992 3.27273ZM4.96312 0L7.84312 3.27273L4.96312 6.54545H7.67992L9.20248 4.81636L10.5599 3.27273L9.20248 1.72909L7.67992 0.00109083L4.96312 0ZM10.7231 0L13.6031 3.27273L10.7231 6.54545H13.4399L14.9625 4.81636L16.3199 3.27273L14.9625 1.72909L13.4399 0.00109083L10.7231 0ZM16.4831 0L19.3631 3.27273L16.4831 6.54545H19.1999L20.7225 4.81636L22.0799 3.27273L20.7225 1.72909L19.1999 0.00109083L16.4831 0Z" fill="#1A1A1A"/>
</svg>
