<svg width="177" height="98" viewBox="0 0 177 98" fill="none" xmlns="http://www.w3.org/2000/svg">
<path d="M68.9613 45.0501C68.9613 45.0501 68.9755 45.0501 68.9898 45.0501C69.0041 45.0501 69.0041 45.0501 69.0184 45.0501H74.429C74.429 45.0501 74.4433 45.0501 74.4576 45.0501C74.4576 45.0501 74.4719 45.0501 74.4861 45.0501H79.8968C79.8968 45.0501 79.9111 45.0501 79.9254 45.0501C79.9396 45.0501 79.9396 45.0501 79.9539 45.0501H85.3646C85.3646 45.0501 85.3789 45.0501 85.3931 45.0501C85.4074 45.0501 85.3931 45.0501 85.4217 45.0501H90.8323C90.8323 45.0501 90.8466 45.0501 90.8609 45.0501C90.8609 45.0501 90.8752 45.0501 90.8895 45.0501H96.3001C96.3001 45.0501 96.3144 45.0501 96.3287 45.0501C96.3429 45.0501 96.3429 45.0501 96.3572 45.0501H101.768C101.768 45.0501 101.782 45.0501 101.796 45.0501C101.811 45.0501 101.811 45.0501 101.825 45.0501H107.236C107.236 45.0501 107.25 45.0501 107.264 45.0501C107.264 45.0501 107.278 45.0501 107.293 45.0501H112.703C112.703 45.0501 112.718 45.0501 112.732 45.0501C112.732 45.0501 112.746 45.0501 112.761 45.0501H118.171C118.171 45.0501 118.185 45.0501 118.2 45.0501C118.214 45.0501 118.214 45.0501 118.228 45.0501H123.639C123.639 45.0501 123.653 45.0501 123.668 45.0501C123.682 45.0501 123.682 45.0501 123.696 45.0501H129.107C129.107 45.0501 129.121 45.0501 129.135 45.0501C129.135 45.0501 129.15 45.0501 129.164 45.0501H134.575C134.575 45.0501 134.589 45.0501 134.603 45.0501C134.617 45.0501 134.603 45.0501 134.632 45.0501H140.042C140.042 45.0501 140.057 45.0501 140.071 45.0501C140.085 45.0501 140.085 45.0501 140.099 45.0501H145.51C145.51 45.0501 145.524 45.0501 145.539 45.0501C145.539 45.0501 145.539 45.0501 145.567 45.0501H150.978C150.978 45.0501 151.092 45.0501 151.149 45.0501C151.206 45.0501 151.263 45.0501 151.335 45.0501H155.175C157.245 45.0501 158.773 44.5967 159.758 43.6765C160.743 42.7563 161.357 41.3294 161.571 39.369L162.956 27.0598C162.984 26.7664 162.841 26.6064 162.513 26.6064H159.358C159.03 26.6064 158.844 26.7531 158.815 27.0598L157.459 39.1423C157.359 40.0491 157.102 40.6626 156.688 41.0093C156.274 41.356 155.66 41.5294 154.832 41.5294H151.734C151.734 41.5294 151.62 41.5294 151.563 41.5294C151.506 41.5294 151.449 41.5294 151.392 41.5294H145.981C145.981 41.5294 145.967 41.5294 145.953 41.5294C145.953 41.5294 145.938 41.5294 145.924 41.5294H140.513C140.513 41.5294 140.499 41.5294 140.485 41.5294C140.471 41.5294 140.471 41.5294 140.456 41.5294H135.046C135.046 41.5294 135.031 41.5294 135.017 41.5294C135.003 41.5294 135.003 41.5294 134.989 41.5294H129.578C129.578 41.5294 129.564 41.5294 129.549 41.5294C129.549 41.5294 129.535 41.5294 129.521 41.5294H124.11C124.11 41.5294 124.096 41.5294 124.082 41.5294C124.067 41.5294 124.067 41.5294 124.053 41.5294H118.642C118.642 41.5294 118.628 41.5294 118.614 41.5294C118.599 41.5294 118.599 41.5294 118.585 41.5294H113.175C113.175 41.5294 113.16 41.5294 113.146 41.5294C113.146 41.5294 113.132 41.5294 113.117 41.5294H107.707C107.707 41.5294 107.692 41.5294 107.678 41.5294C107.664 41.5294 107.664 41.5294 107.65 41.5294H102.239C102.239 41.5294 102.225 41.5294 102.21 41.5294C102.196 41.5294 102.196 41.5294 102.182 41.5294H96.7712C96.7712 41.5294 96.757 41.5294 96.7427 41.5294C96.7427 41.5294 96.7284 41.5294 96.7141 41.5294H91.3035C91.3035 41.5294 91.2892 41.5294 91.2749 41.5294C91.2606 41.5294 91.2606 41.5294 91.2464 41.5294H85.8357C85.8357 41.5294 85.8214 41.5294 85.8071 41.5294C85.7929 41.5294 85.7929 41.5294 85.7786 41.5294H80.3679C80.3679 41.5294 80.3536 41.5294 80.3394 41.5294C80.3394 41.5294 80.3251 41.5294 80.3108 41.5294H74.9002C74.9002 41.5294 74.8859 41.5294 74.8716 41.5294C74.8716 41.5294 74.8573 41.5294 74.843 41.5294H69.4324C69.4324 41.5294 69.4181 41.5294 69.4038 41.5294C69.3896 41.5294 69.3896 41.5294 69.3753 41.5294H63.9646C63.9646 41.5294 63.9503 41.5294 63.9361 41.5294C63.9361 41.5294 63.9218 41.5294 63.9075 41.5294H58.4968C58.4968 41.5294 58.4826 41.5294 58.4683 41.5294C58.4683 41.5294 58.4683 41.5294 58.4397 41.5294H53.0291C53.0291 41.5294 53.0148 41.5294 53.0005 41.5294C52.9862 41.5294 52.9862 41.5294 52.972 41.5294H47.5613C47.5613 41.5294 47.547 41.5294 47.5328 41.5294C47.5185 41.5294 47.5185 41.5294 47.5042 41.5294H42.0935C42.0935 41.5294 42.0793 41.5294 42.065 41.5294C42.065 41.5294 42.0507 41.5294 42.0364 41.5294H36.6258C36.6258 41.5294 36.6115 41.5294 36.5972 41.5294C36.5829 41.5294 36.5972 41.5294 36.5687 41.5294H31.158C31.158 41.5294 31.1437 41.5294 31.1294 41.5294C31.1152 41.5294 31.1152 41.5294 31.1009 41.5294H25.6902C25.6902 41.5294 25.676 41.5294 25.6617 41.5294C25.6617 41.5294 25.6474 41.5294 25.6331 41.5294H20.2225C20.2225 41.5294 20.2082 41.5294 20.1939 41.5294C20.1939 41.5294 20.1939 41.5294 20.1796 41.5294H18.0097C17.1816 41.5294 16.6106 41.356 16.268 41.0093C15.9253 40.6626 15.8111 40.0358 15.9111 39.1423L18.6378 14.844C18.6664 14.5373 18.5236 14.3906 18.1953 14.3906H15.0402C14.7119 14.3906 14.5263 14.5373 14.4977 14.844L11.7424 39.369C11.5283 41.316 11.7995 42.7563 12.5847 43.6765C13.3699 44.5967 14.7975 45.0501 16.8533 45.0501H19.7514C19.7514 45.0501 19.7656 45.0501 19.7799 45.0501C19.7799 45.0501 19.7799 45.0501 19.7942 45.0501H25.2048C25.2048 45.0501 25.2191 45.0501 25.2334 45.0501C25.2477 45.0501 25.2477 45.0501 25.2619 45.0501H30.6726C30.6726 45.0501 30.6869 45.0501 30.7012 45.0501C30.7154 45.0501 30.7154 45.0501 30.7297 45.0501H36.1404C36.1404 45.0501 36.1547 45.0501 36.1689 45.0501C36.1689 45.0501 36.1689 45.0501 36.1832 45.0501H41.5939C41.5939 45.0501 41.6082 45.0501 41.6224 45.0501C41.6224 45.0501 41.6367 45.0501 41.651 45.0501H47.0616C47.0616 45.0501 47.0759 45.0501 47.0902 45.0501C47.1045 45.0501 47.0902 45.0501 47.1187 45.0501H52.5294C52.5294 45.0501 52.5437 45.0501 52.558 45.0501C52.558 45.0501 52.5722 45.0501 52.5865 45.0501H57.9972C57.9972 45.0501 58.0115 45.0501 58.0257 45.0501C58.0257 45.0501 58.0257 45.0501 58.0543 45.0501H63.465C63.465 45.0501 63.4792 45.0501 63.4935 45.0501C63.5078 45.0501 63.5078 45.0501 63.5221 45.0501H68.9327H68.9613Z" fill="#2E2F2D"/>
<path d="M176.403 7.25479H171.435C171.107 7.01474 170.793 6.64133 170.478 6.1479C170.164 5.65447 170.05 5.06768 170.122 4.41422C170.193 3.72075 170.478 3.12063 170.978 2.61386C171.478 2.10709 172.163 1.85371 173.062 1.85371C173.548 1.85371 173.962 1.94706 174.333 2.1471C174.69 2.34714 175.004 2.58719 175.261 2.89391C175.375 3.01394 175.561 2.98727 175.803 2.80056L176.903 2.02707C177.003 1.93372 177.031 1.78703 176.96 1.57365C176.631 1.06688 176.146 0.6668 175.518 0.40008C174.876 0.13336 174.133 0 173.305 0C172.377 0 171.578 0.146696 170.921 0.426752C170.264 0.706808 169.708 1.06688 169.279 1.50697C168.837 1.94706 168.508 2.42715 168.294 2.94726C168.08 3.4807 167.937 3.97413 167.88 4.45423C167.823 5.02768 167.837 5.54778 167.937 6.02788L168.209 7.24145H166.595C166.41 7.24145 166.296 7.34814 166.267 7.56152L166.124 8.82844C166.096 9.04181 166.181 9.1485 166.381 9.1485H176.175C176.36 9.1485 176.474 9.04181 176.503 8.82844L176.646 7.56152C176.674 7.34814 176.589 7.24145 176.389 7.24145" fill="#F06A25"/>
<path d="M40.709 68.2014C40.2665 67.748 39.724 67.3746 39.0958 67.0546C38.4677 66.7345 37.7539 66.4944 36.9401 66.3077C36.1264 66.121 35.1413 66.041 33.985 66.041C32.5716 66.041 31.2868 66.2544 30.1447 66.6678C29.0026 67.0946 28.0318 67.6413 27.2323 68.3081C26.4329 68.9883 25.8047 69.7618 25.3336 70.6286C24.8625 71.4954 24.577 72.4023 24.477 73.3358C24.3771 74.2027 24.4485 75.0161 24.6912 75.7496C24.9339 76.4831 25.2765 77.1632 25.7191 77.7767C26.1616 78.3902 26.7041 78.9503 27.318 79.4437C27.9319 79.9371 28.5743 80.3772 29.2453 80.7773C30.9013 81.7642 32.2004 82.631 33.157 83.3645C34.0992 84.098 34.5417 84.8181 34.4561 85.5116C34.3704 86.2584 33.9136 86.9119 33.0998 87.4453C32.2861 87.9921 30.9156 88.2588 28.974 88.2588H18.3097C17.2533 88.2588 16.254 88.1521 15.326 87.9254C14.3981 87.6987 13.5986 87.3386 12.9134 86.8185C12.2281 86.3117 11.7142 85.6183 11.3858 84.7648C11.0432 83.9113 10.9433 82.8711 11.086 81.6308C11.2431 80.2839 11.6428 78.9903 12.3138 77.75C12.9847 76.5231 13.6557 75.4829 14.3267 74.6427C14.5123 74.4027 14.4837 74.2027 14.241 74.056L11.7427 72.709C11.4429 72.5357 11.2145 72.549 11.0575 72.749C10.101 73.8559 9.21584 75.2429 8.4021 76.8699C7.58835 78.5102 7.08869 80.2172 6.88882 81.9909C6.5462 85.0582 7.26 87.472 9.01597 89.219C10.7862 90.9794 13.5415 91.8595 17.3104 91.8595H28.6029C30.2732 91.8595 31.7151 91.6862 32.9143 91.3394C34.1135 90.9927 35.0985 90.5259 35.8694 89.9391C36.6403 89.3524 37.2257 88.6856 37.6111 87.9387C37.9966 87.1919 38.2393 86.4184 38.3249 85.6449C38.482 84.2313 38.1822 83.0311 37.397 82.0442C36.6261 81.0574 35.4126 80.0438 33.7565 79.017C33.057 78.5902 32.386 78.1634 31.7293 77.7367C31.0726 77.2966 30.4873 76.8432 30.0019 76.3764C29.5023 75.9097 29.1168 75.4296 28.8313 74.9361C28.5458 74.4427 28.4458 73.8959 28.5029 73.2958C28.6457 72.0689 29.2025 71.1354 30.1732 70.4952C31.144 69.8685 32.2718 69.5484 33.5567 69.5484C34.8415 69.5484 35.9265 69.7618 36.6974 70.1752C37.4684 70.6019 38.1679 71.162 38.796 71.8822C38.9674 72.0956 39.1815 72.1089 39.467 71.9222L41.7655 70.2952C42.0796 70.0818 42.1509 69.8685 41.9796 69.6684C41.5656 69.135 41.123 68.6282 40.6805 68.1748" fill="#2E2F2D"/>
<path d="M53.2298 67.8415H50.1461C49.8177 67.8415 49.6464 67.9882 49.6179 68.2949L47.4194 87.8988C47.1338 90.446 45.6919 91.7262 43.0794 91.7262H41.9659C41.6518 91.7262 41.4662 91.873 41.4376 92.1797L41.1378 94.7935C41.1093 95.1003 41.2521 95.247 41.5661 95.247H42.8653C45.4064 95.247 47.4051 94.6202 48.8755 93.3532C50.3317 92.0863 51.2025 90.246 51.4738 87.8055L53.658 68.2815C53.6866 67.9748 53.5438 67.8281 53.2298 67.8281" fill="#2E2F2D"/>
<path d="M157.661 67.8408H154.577C154.249 67.8408 154.077 67.9875 154.049 68.2942L152.693 80.3766C152.593 81.2835 152.336 81.8969 151.922 82.2437C151.508 82.5904 150.908 82.7638 150.109 82.7638H148.895C147.61 82.7638 146.611 82.5104 145.897 81.9903C145.183 81.4835 144.883 80.71 144.998 79.6965L145.84 72.175C145.869 71.8683 145.726 71.7216 145.412 71.7216H142.328C142 71.7216 141.828 71.8683 141.8 72.175L140.872 80.3766C140.772 81.2835 140.515 81.8969 140.115 82.2437C139.701 82.5904 139.102 82.7638 138.288 82.7638H137.074C135.79 82.7638 134.79 82.5104 134.076 81.9903C133.363 81.4835 133.063 80.71 133.177 79.6965L134.019 72.175C134.048 71.8683 133.905 71.7216 133.591 71.7216H130.507C130.193 71.7216 130.008 71.8683 129.979 72.175L129.065 80.3766C128.966 81.2835 128.709 81.8969 128.295 82.2437C127.881 82.5904 127.281 82.7638 126.482 82.7638H116.688C116.688 82.7638 116.674 82.7638 116.66 82.7638C116.645 82.7638 116.66 82.7638 116.631 82.7638H116.103C114.789 82.7638 113.761 82.5104 113.033 81.9903C112.305 81.4835 111.991 80.71 112.105 79.6965C112.134 79.4564 112.177 79.1631 112.234 78.8163C112.291 78.4696 112.334 78.0962 112.377 77.7094C112.534 76.2691 112.519 74.8955 112.305 73.6019C112.091 72.3083 111.606 71.1748 110.821 70.2013C110.035 69.2277 108.95 68.4542 107.537 67.8808C106.124 67.3073 104.282 67.0273 102.041 67.0273C100.014 67.0273 98.0006 67.294 96.0162 67.8408C94.0318 68.3876 92.2045 69.041 90.5341 69.8279L92.076 56.0784C92.1045 55.7717 91.9618 55.625 91.6477 55.625H88.564C88.25 55.625 88.0644 55.7717 88.0358 56.0784L85.3091 80.3766C85.2091 81.2835 84.9522 81.8969 84.5382 82.2437C84.1242 82.5904 83.5246 82.7638 82.7251 82.7638H79.6843C79.6843 82.7638 79.67 82.7638 79.6557 82.7638C79.6557 82.7638 79.6414 82.7638 79.6272 82.7638H76.3008L76.9575 76.8559C77.343 73.4019 76.8148 70.8947 75.3871 69.3478C73.9453 67.8008 71.8038 67.0273 68.9486 67.0273C67.6923 67.0273 66.4788 67.2273 65.3082 67.6407C64.1375 68.0408 63.0811 68.6676 62.1389 69.4945C61.1966 70.3213 60.3972 71.3748 59.7548 72.6551C59.1123 73.9353 58.6983 75.429 58.4985 77.136C58.2986 78.843 58.3557 80.2966 58.6412 81.4569C58.9267 82.6304 59.4407 83.5639 60.1545 84.2707C60.8826 84.9776 61.7962 85.4843 62.8955 85.8044C64.009 86.1244 65.2654 86.2712 66.6787 86.2712H71.8467L71.7182 87.4447C71.6182 88.2849 71.4327 88.9784 71.1471 89.5385C70.8616 90.0986 70.4904 90.5253 70.0621 90.8454C69.6196 91.1655 69.1199 91.3922 68.5631 91.5255C68.0064 91.6589 67.3925 91.7256 66.7501 91.7256H60.9539C60.6399 91.7256 60.4543 91.8723 60.4257 92.179L60.1259 94.7929C60.0974 95.0996 60.2401 95.2463 60.5542 95.2463H66.5359C67.7922 95.2463 68.9486 95.0996 70.0193 94.7929C71.0757 94.4861 72.018 94.0327 72.8032 93.3926C73.6026 92.7658 74.2451 91.9523 74.759 90.9521C75.2729 89.9652 75.6156 88.765 75.7726 87.3514L75.8868 86.2712H83.0249C84.3811 86.2712 85.4804 86.0711 86.3227 85.6844C86.5939 86.0711 87.1221 86.2712 87.8931 86.2712H104.111C105.681 86.2712 107.009 86.0578 108.065 85.6444C109.122 85.2176 109.993 84.4975 110.649 83.4839C110.906 84.3908 111.449 85.0709 112.277 85.551C113.105 86.0311 114.09 86.2712 115.218 86.2712H126.796C129.337 86.2712 131.093 85.4977 132.078 83.924C132.406 84.7108 132.934 85.2843 133.662 85.6844C134.391 86.0711 135.276 86.2712 136.304 86.2712H138.616C141.157 86.2712 142.913 85.4977 143.898 83.924C144.227 84.7108 144.755 85.2843 145.483 85.6844C146.211 86.0711 147.082 86.2712 148.124 86.2712H150.437C152.464 86.2712 153.963 85.8177 154.934 84.8975C155.905 83.9774 156.504 82.5504 156.718 80.59L158.103 68.2809C158.132 67.9741 157.989 67.8274 157.675 67.8274M72.2321 82.7504H65.7365C63.3381 82.7504 61.5821 82.297 60.4543 81.3768C59.3407 80.4566 58.9125 78.803 59.1837 76.3892C59.4407 74.1487 60.2687 72.3484 61.682 70.9881C63.0954 69.6278 64.8799 68.9477 67.0213 68.9477C69.4197 68.9477 71.0757 69.5745 71.9894 70.8281C72.9031 72.0816 73.2314 73.8287 72.9745 76.0691L72.2178 82.7371L72.2321 82.7504ZM107.694 79.5898C107.494 80.4166 107.194 81.0568 106.823 81.5235C106.452 81.9903 105.967 82.3104 105.367 82.4837C104.767 82.6704 104.011 82.7638 103.111 82.7638H88.821C89.078 81.9236 89.2493 81.0434 89.3635 80.1233L90.3628 71.2548C91.1195 70.8547 91.9475 70.4413 92.8326 70.0412C93.732 69.6411 94.6742 69.2677 95.6593 68.9343C96.6443 68.6009 97.6437 68.3342 98.6716 68.1342C99.6852 67.9341 100.684 67.8274 101.655 67.8274C103.097 67.8274 104.282 68.0142 105.21 68.4009C106.138 68.7876 106.838 69.3478 107.337 70.0812C107.837 70.8147 108.151 71.7216 108.265 72.7751C108.379 73.842 108.379 75.0556 108.222 76.4158C108.08 77.6961 107.908 78.763 107.694 79.5765" fill="#2E2F2D"/>
<path d="M19.7375 94.4993C20.1943 95.0194 20.6797 95.5261 21.1508 96.0062C21.2508 96.0996 21.2508 96.2463 21.1508 96.3663C20.6797 96.9131 20.0659 97.4465 19.3235 97.94C19.2093 98.02 19.0523 98.02 18.9523 97.94C18.3813 97.4999 17.8959 96.9664 17.5104 96.3663C17.439 96.2596 17.4676 96.1263 17.5533 96.0329C18.1243 95.4328 18.7096 94.9127 19.2949 94.4726C19.4234 94.3792 19.609 94.3926 19.709 94.4993" fill="#2E2F2D"/>
<path d="M23.4777 94.4993C23.9346 95.0194 24.42 95.5261 24.8911 96.0062C24.991 96.0996 24.991 96.2463 24.8911 96.3663C24.42 96.9131 23.8061 97.4465 23.0637 97.94C22.9495 98.02 22.7925 98.02 22.6926 97.94C22.1215 97.4999 21.6361 96.9664 21.2507 96.3663C21.1793 96.2596 21.2078 96.1263 21.2935 96.0329C21.8645 95.4328 22.4499 94.9127 23.0352 94.4726C23.1637 94.3792 23.3493 94.3926 23.4492 94.4993" fill="#2E2F2D"/>
<path d="M93.4441 10.9893C95.2715 13.043 97.1417 15.0301 99.0547 16.9505C99.4259 17.3239 99.4401 17.924 99.0547 18.3508C97.1988 20.5112 94.8004 22.5916 91.8595 24.5787C91.4027 24.8854 90.8031 24.8987 90.4033 24.5787C88.1477 22.8183 86.2347 20.7512 84.7071 18.3908C84.4502 17.9907 84.5358 17.4439 84.8927 17.0572C87.1626 14.67 89.4754 12.6163 91.8024 10.8826C92.3163 10.4958 93.0444 10.5359 93.4299 10.9759" fill="#2E2F2D"/>
<path d="M122.098 91.8984H120.884C120.513 91.8984 120.185 92.1118 120.071 92.4452L118.543 96.4593C118.343 96.9928 118.757 97.5396 119.357 97.5396H120.57C120.941 97.5396 121.27 97.3262 121.384 96.9928L122.912 92.9787C123.111 92.4452 122.697 91.8984 122.098 91.8984Z" fill="#F06A25"/>
<path d="M113.375 97.5396H114.589C114.96 97.5396 115.288 97.3262 115.402 96.9928L116.93 92.9787C117.13 92.4452 116.716 91.8984 116.102 91.8984H114.888C114.517 91.8984 114.189 92.1118 114.075 92.4452L112.547 96.4593C112.347 96.9928 112.761 97.5396 113.361 97.5396" fill="#F06A25"/>
<path d="M171.995 11.3887H169.725C169.125 11.3887 168.626 11.8154 168.568 12.3622L159.96 89.0843C159.789 90.6446 158.49 91.8982 157.048 91.8982H127.068C126.568 91.8982 126.14 92.1916 125.968 92.6183L124.655 96.0857C124.384 96.7925 124.955 97.5393 125.754 97.5393H162.316C163.743 97.5393 165.042 96.2724 165.228 94.7254L174.265 14.2159C174.436 12.6556 173.422 11.402 171.995 11.402" fill="#F06A25"/>
<path d="M110.862 93.3121C111.105 92.6186 110.548 91.8984 109.763 91.8984H80.6113C79.2979 91.8984 78.113 93.1653 77.9416 94.7123C77.7846 96.2726 78.7125 97.5262 80.026 97.5262H108.55C109.049 97.5262 109.492 97.2195 109.649 96.7794L110.862 93.3121Z" fill="#F06A25"/>
<path d="M5.74701 0C4.31939 0 3.02026 1.26692 2.83467 2.8139L0.00799209 28.0056C-0.0776649 28.7391 0.53621 29.3659 1.3214 29.3659H4.57636C5.24734 29.3659 5.81839 28.8858 5.88977 28.259L8.11685 8.45503C8.28816 6.89472 9.58729 5.64113 11.0292 5.64113H40.8806C41.4374 5.64113 41.9371 5.30773 42.1227 4.8143L43.3219 1.65366C43.6217 0.853504 42.9935 0 42.0798 0H5.74701V0Z" fill="#F06A25"/>
</svg>
