<svg width="37" height="19" viewBox="0 0 37 19" fill="none" xmlns="http://www.w3.org/2000/svg">
<path d="M6.7606 2.44957C6.32695 3.09134 5.63313 3.59753 4.9393 3.52521C4.85257 2.65747 5.19226 1.73549 5.58976 1.16603C6.0234 0.506185 6.78228 0.036156 7.39661 0C7.46888 0.903901 7.18701 1.78972 6.7606 2.44957ZM7.38938 3.69696C6.38477 3.62464 5.52471 4.41104 5.04771 4.41104C4.56347 4.41104 3.8335 3.73311 3.03849 3.75119C2.00498 3.76927 1.04373 4.50143 0.516133 5.66746C-0.567976 7.99952 0.234265 11.4524 1.28224 13.3506C1.79538 14.2907 2.40971 15.3211 3.21918 15.285C3.98528 15.2488 4.28883 14.6613 5.21394 14.6613C6.14627 14.6613 6.41368 15.285 7.22315 15.2669C8.06153 15.2488 8.58913 14.3268 9.10227 13.3868C9.68769 12.3202 9.9262 11.2807 9.94065 11.2265C9.9262 11.2084 8.32171 10.4401 8.30726 8.12607C8.2928 6.19172 9.57205 5.26974 9.62987 5.21551C8.90713 3.87774 7.77966 3.73311 7.38938 3.69696ZM13.193 1.07564V15.1675H14.942V10.3497H17.3632C19.5748 10.3497 21.1287 8.45148 21.1287 5.70362C21.1287 2.95576 19.6037 1.07564 17.421 1.07564H13.193ZM14.942 2.9196H16.9584C18.4762 2.9196 19.3435 3.93197 19.3435 5.71266C19.3435 7.49334 18.4762 8.51475 16.9512 8.51475H14.942V2.9196ZM24.3232 15.2759C25.4217 15.2759 26.4408 14.5799 26.9033 13.4772H26.9395V15.1675H28.5584V8.15319C28.5584 6.11941 27.2575 4.80875 25.2555 4.80875C23.3981 4.80875 22.0248 6.13749 21.9743 7.96337H23.5498C23.6799 7.09562 24.3232 6.52617 25.2049 6.52617C26.2746 6.52617 26.8744 7.14986 26.8744 8.29781V9.07517L24.6918 9.23787C22.6609 9.39153 21.5623 10.431 21.5623 12.2388C21.5623 14.0647 22.697 15.2759 24.3232 15.2759ZM24.7929 13.6037C23.8606 13.6037 23.268 13.0433 23.268 12.1846C23.268 11.2988 23.8389 10.7835 24.9303 10.7022L26.8744 10.5485V11.344C26.8744 12.6637 25.9782 13.6037 24.7929 13.6037ZM30.7194 19C32.4251 19 33.2273 18.1865 33.9284 15.7188L37 4.94434H35.2221L33.1623 13.2693H33.1261L31.0663 4.94434H29.2378L32.201 15.2036L32.042 15.8273C31.7746 16.8849 31.341 17.2916 30.5676 17.2916C30.4303 17.2916 30.1629 17.2736 30.0545 17.2555V18.9458C30.1557 18.9819 30.5893 19 30.7194 19Z" fill="black"/>
</svg>



