<svg width="22" height="27" viewBox="0 0 22 27" fill="none" xmlns="http://www.w3.org/2000/svg">
<path d="M18.375 13.8285C18.3883 12.832 18.6636 11.8548 19.1753 10.9881C19.6869 10.1213 20.4183 9.39304 21.3013 8.87107C20.7403 8.10076 20.0003 7.46683 19.1399 7.01963C18.2796 6.57242 17.3227 6.32426 16.3451 6.29485C14.2599 6.08439 12.2384 7.4946 11.1757 7.4946C10.0926 7.4946 8.45653 6.31575 6.69478 6.35059C5.55523 6.38599 4.44465 6.70461 3.47125 7.2754C2.49785 7.84619 1.69482 8.64969 1.14041 9.60761C-1.26113 13.6055 0.530205 19.4812 2.83072 22.7128C3.98172 24.2952 5.3269 26.0629 7.08707 26.0002C8.80949 25.9315 9.45279 24.9441 11.5319 24.9441C13.5917 24.9441 14.1952 26.0002 15.9911 25.9603C17.8394 25.9315 19.0038 24.3709 20.1145 22.7734C20.9415 21.6459 21.5778 20.3997 22 19.0811C20.9262 18.6444 20.0099 17.9135 19.3653 16.9794C18.7206 16.0454 18.3762 14.9495 18.375 13.8285Z" fill="black"/>
<path d="M14.9846 4.16773C15.9924 3.00455 16.4888 1.50947 16.3686 0C14.829 0.155479 13.4069 0.86298 12.3855 1.98153C11.8861 2.52798 11.5037 3.16369 11.26 3.85234C11.0163 4.54099 10.9161 5.26907 10.9653 5.99496C11.7354 6.00258 12.4972 5.84209 13.1934 5.52559C13.8896 5.20908 14.5021 4.74481 14.9846 4.16773Z" fill="black"/>
</svg>