<svg width="69" height="17" viewBox="0 0 69 17" fill="none" xmlns="http://www.w3.org/2000/svg">
<path d="M15.9335 12.4315V14.6308C15.9653 15.0648 15.8328 15.4946 15.5631 15.8322C15.4435 15.9636 15.2976 16.0673 15.1354 16.1364C14.9731 16.2055 14.7981 16.2384 14.6223 16.2328C14.4494 16.238 14.2775 16.2042 14.1188 16.134C13.9602 16.0638 13.8187 15.9588 13.7045 15.8265C13.4429 15.4875 13.3148 15.0613 13.3452 14.6312V7.29579C13.3452 6.11183 13.7671 5.51984 14.6051 5.51984C14.7821 5.5038 14.9601 5.53369 15.1227 5.60674C15.2852 5.67978 15.4269 5.79358 15.5344 5.9375C15.7503 6.30746 15.8593 6.73187 15.849 7.16203C16.0942 6.70079 16.4163 6.28645 16.801 5.9375C17.1708 5.6438 17.6322 5.49553 18.1007 5.51984C18.6549 5.52279 19.1996 5.66634 19.6856 5.9375C19.9047 6.02617 20.0939 6.17748 20.2303 6.37318C20.3667 6.56888 20.4446 6.8006 20.4545 7.04036C20.4586 7.18874 20.4317 7.33632 20.3757 7.47337C20.3197 7.61042 20.2357 7.73383 20.1295 7.83548C19.9433 8.03035 19.6894 8.14292 19.4225 8.1489C19.1883 8.11636 18.9588 8.05594 18.7385 7.96889C18.4286 7.85768 18.1035 7.79693 17.775 7.78887C17.4398 7.77355 17.1103 7.88054 16.8457 8.09056C16.58 8.33334 16.3863 8.64697 16.2865 8.99597C16.1434 9.45843 16.0516 9.93575 16.0129 10.419C15.9529 11.0884 15.9263 11.7605 15.9332 12.4326" fill="#3C2D83"/>
<path d="M28.3458 11.526H23.2891C23.2843 12.0754 23.4053 12.6184 23.6424 13.112C23.8379 13.5311 24.1478 13.8841 24.5349 14.129C24.9221 14.3738 25.3703 14.5002 25.826 14.493C26.1129 14.4969 26.3989 14.4598 26.6756 14.3827C26.9381 14.3041 27.1878 14.1867 27.4169 14.0344C27.6496 13.8836 27.8707 13.7148 28.0781 13.5296C28.2775 13.3496 28.5398 13.1059 28.8648 12.7985C29.0276 12.6718 29.2303 12.6099 29.4348 12.6246C29.6689 12.6144 29.8984 12.693 30.0789 12.8451C30.1622 12.9251 30.2273 13.0226 30.2696 13.1309C30.3119 13.2392 30.3303 13.3556 30.3235 13.472C30.3049 13.77 30.2106 14.0579 30.0499 14.3077C29.8337 14.6636 29.5532 14.9747 29.2234 15.2245C28.8012 15.5425 28.3316 15.7894 27.8324 15.9555C27.2101 16.1566 26.5599 16.2535 25.9071 16.2426C24.2482 16.2426 22.956 15.759 22.0306 14.7919C21.1061 13.8294 20.6438 12.5203 20.6438 10.8646C20.6374 10.1268 20.753 9.39319 20.986 8.6945C21.1956 8.05966 21.5335 7.47652 21.9778 6.98258C22.4269 6.49718 22.9785 6.12212 23.591 5.88578C24.2679 5.62332 24.9874 5.49332 25.7117 5.50262C26.62 5.4759 27.5184 5.70054 28.3112 6.15259C28.9964 6.54841 29.5592 7.1314 29.936 7.83569C30.2847 8.48151 30.4708 9.20522 30.4777 9.94214C30.4777 10.6039 30.2896 11.0333 29.9185 11.2303C29.4239 11.4517 28.8855 11.553 28.3458 11.5263M23.2835 10.0289H27.9753C27.972 9.2908 27.7205 8.57607 27.2627 8.00361C27.0526 7.77988 26.7981 7.60415 26.5162 7.48806C26.2343 7.37196 25.9314 7.31814 25.6275 7.33016C25.3309 7.32059 25.0357 7.37631 24.7622 7.49352C24.4886 7.61073 24.2432 7.78666 24.0426 8.0093C23.6263 8.46788 23.2842 10.0289 23.2842 10.0289" fill="#3C2D83"/>
<path d="M34.6407 6.97612V7.2963C35.0341 6.74012 35.5444 6.28023 36.1344 5.95011C36.7127 5.65612 37.3523 5.5088 37.9986 5.52071C38.6366 5.50914 39.2668 5.66499 39.8285 5.97323C40.3523 6.26098 40.7733 6.70985 41.0314 7.25575C41.2033 7.58048 41.3154 7.93447 41.3621 8.30025C41.4181 8.77392 41.4428 9.25088 41.4361 9.72792V14.6306C41.4666 15.0597 41.3408 15.4852 41.0828 15.826C40.9678 15.9588 40.8253 16.0641 40.6656 16.1344C40.506 16.2046 40.333 16.238 40.1591 16.2323C39.9818 16.2378 39.8055 16.2033 39.6429 16.131C39.4803 16.0588 39.3356 15.9507 39.219 15.8146C38.9599 15.4764 38.832 15.0529 38.8597 14.6249V10.232C38.8941 9.54785 38.7732 8.8648 38.5064 8.23586C38.267 7.77729 37.7994 7.54533 37.0927 7.54533C36.6394 7.54228 36.1974 7.68882 35.8328 7.963C35.4478 8.25414 35.1577 8.65653 35.0003 9.11779C34.842 9.83914 34.7788 10.5787 34.8123 11.3171V14.6193C34.8458 15.0524 34.7152 15.4822 34.4475 15.8207C34.3279 15.952 34.182 16.0557 34.0197 16.1248C33.8574 16.1939 33.6825 16.2268 33.5066 16.2212C33.3328 16.2256 33.1601 16.1904 33.0013 16.1181C32.8426 16.0458 32.7016 15.9384 32.5889 15.8036C32.3294 15.4651 32.2014 15.0413 32.2293 14.6128V7.01703C32.1996 6.6149 32.3128 6.21529 32.5483 5.89105C32.6592 5.76615 32.796 5.668 32.9489 5.60375C33.1017 5.5395 33.2667 5.51077 33.4318 5.51964C33.6476 5.51599 33.8602 5.57259 34.0466 5.68329C34.2371 5.80055 34.3898 5.97211 34.4856 6.17673C34.5917 6.42963 34.6441 6.70255 34.6393 6.97754" fill="#3C2D83"/>
<path d="M45.0895 2.58327C44.7512 2.59193 44.4218 2.47193 44.1658 2.24672C44.0359 2.12628 43.9341 1.97773 43.868 1.812C43.8019 1.64627 43.7731 1.46756 43.7838 1.28902C43.7795 1.11538 43.8124 0.94288 43.8802 0.783509C43.9481 0.624138 44.0492 0.481725 44.1766 0.366177C44.4232 0.130205 44.7504 0.00120753 45.0888 0.00650457C45.415 0.00271584 45.7313 0.120377 45.9782 0.33736C46.1098 0.45671 46.2131 0.604924 46.2802 0.770824C46.3474 0.936724 46.3766 1.11598 46.3658 1.29506C46.3754 1.47208 46.3467 1.64907 46.2816 1.81352C46.2166 1.97798 46.1168 2.12587 45.9894 2.24672C45.7397 2.46728 45.4193 2.58702 45.0888 2.58327M46.3658 7.0171V14.6364C46.3967 15.0684 46.2641 15.496 45.9953 15.8317C45.8769 15.9649 45.7314 16.0702 45.5689 16.1404C45.4064 16.2106 45.2309 16.2439 45.0545 16.238C44.8796 16.2436 44.7057 16.209 44.5458 16.1367C44.3858 16.0643 44.244 15.9562 44.1308 15.8204C43.8737 15.4813 43.748 15.0579 43.7775 14.6307V7.08647C43.7468 6.66271 43.8728 6.24256 44.1308 5.90855C44.2481 5.77941 44.3913 5.67737 44.5506 5.60931C44.71 5.54125 44.8818 5.50875 45.0545 5.51401C45.2296 5.50983 45.4037 5.54275 45.5656 5.61066C45.7276 5.67858 45.8739 5.78002 45.9953 5.90855C46.2543 6.21581 46.387 6.61283 46.3658 7.0171Z" fill="#3C2D83"/>
<path d="M55.4598 14.7529V14.4164C55.1762 14.7901 54.8488 15.1272 54.4851 15.4203C54.1506 15.688 53.7719 15.8928 53.3667 16.0251C52.9179 16.1641 52.4504 16.2308 51.9814 16.2226C51.3978 16.2305 50.821 16.094 50.3007 15.8248C49.8225 15.5796 49.4226 15.2012 49.1474 14.7337C48.7824 13.9855 48.6153 13.1535 48.6626 12.3195V7.0984C48.6298 6.67316 48.7544 6.25081 49.0121 5.91443C49.1297 5.78484 49.2736 5.68291 49.4339 5.61576C49.5942 5.5486 49.7669 5.51783 49.94 5.52559C50.1163 5.5186 50.292 5.5502 50.4553 5.61826C50.6186 5.68633 50.7656 5.78927 50.8864 5.92013C51.1481 6.25245 51.2765 6.6733 51.2457 7.09804V11.3174C51.2357 11.8344 51.2873 12.3509 51.3995 12.8553C51.4777 13.2303 51.6691 13.5711 51.9468 13.8301C52.2455 14.0809 52.6261 14.2079 53.0127 14.1858C53.4527 14.1828 53.8816 14.0453 54.2439 13.7913C54.6202 13.5411 54.9141 13.1817 55.0876 12.7596C55.2302 12.3882 55.3043 11.5699 55.3043 10.3049V7.10303C55.2726 6.67817 55.401 6.25697 55.6636 5.92511C55.7836 5.79478 55.9297 5.69214 56.092 5.62408C56.2543 5.55603 56.429 5.52414 56.6044 5.53057C56.7777 5.5226 56.9507 5.55327 57.1112 5.62043C57.2718 5.68759 57.4159 5.78963 57.5337 5.91941C57.7913 6.25579 57.916 6.67815 57.8831 7.10338V14.7355C57.9123 15.142 57.7926 15.5452 57.5469 15.8672C57.4381 15.9903 57.3042 16.0878 57.1546 16.1529C57.005 16.218 56.8432 16.2492 56.6806 16.2443C56.5152 16.2486 56.3509 16.2161 56.1993 16.1489C56.0476 16.0817 55.9122 15.9815 55.8026 15.8554C55.5593 15.5431 55.4374 15.1505 55.4605 14.7526" fill="#3C2D83"/>
<path d="M68.4511 12.7913C68.4828 13.4584 68.2987 14.1177 67.9269 14.668C67.5551 15.2184 67.0163 15.6294 66.393 15.838C65.5969 16.125 64.7559 16.2608 63.9116 16.2386C63.0947 16.2595 62.2821 16.1114 61.5229 15.8035C60.9477 15.5792 60.4404 15.205 60.0519 14.7184C59.7599 14.3466 59.5939 13.8886 59.5787 13.4128C59.5768 13.2746 59.6027 13.1374 59.6546 13.0097C59.7066 12.8819 59.7836 12.7663 59.881 12.67C59.9819 12.5681 60.1021 12.4883 60.2343 12.4354C60.3665 12.3825 60.5079 12.3576 60.6499 12.3622C60.8765 12.3478 61.1001 12.4203 61.2769 12.5654C61.4446 12.7313 61.5851 12.9234 61.6931 13.1346C61.9162 13.5941 62.2712 13.9739 62.7109 14.2236C63.1507 14.4733 63.6546 14.5812 64.1559 14.5331C64.6076 14.5523 65.0539 14.4279 65.433 14.1773C65.5755 14.0961 65.6957 13.9797 65.7824 13.8387C65.8691 13.6978 65.9194 13.5368 65.9289 13.3708C65.9427 13.1693 65.9016 12.9679 65.8101 12.7886C65.7185 12.6094 65.5802 12.4594 65.4102 12.3551C64.8759 12.0693 64.3037 11.8641 63.7114 11.7457C62.971 11.5677 62.2454 11.3314 61.5411 11.0388C61.0261 10.8217 60.5675 10.486 60.2015 10.058C59.8611 9.6375 59.6828 9.10519 59.7 8.5606C59.702 8.02549 59.863 7.50352 60.1617 7.0632C60.5037 6.56347 60.9782 6.17298 61.5299 5.93723C62.2202 5.64119 62.9647 5.49879 63.7135 5.51956C64.3224 5.511 64.9299 5.58275 65.5207 5.73302C65.9933 5.84604 66.4441 6.03841 66.8547 6.30223C67.1759 6.5067 67.4532 6.77509 67.67 7.09131C67.8435 7.33941 67.9408 7.63432 67.9496 7.93873C67.9547 8.07685 67.931 8.2145 67.8799 8.34257C67.8288 8.47063 67.7515 8.58618 67.6533 8.68155C67.4178 8.88686 67.1131 8.99095 66.8037 8.97185C66.5575 8.97974 66.3168 8.89743 66.1253 8.7399C65.8895 8.53083 65.6755 8.29752 65.4868 8.04368C65.2994 7.79387 65.0649 7.58473 64.7969 7.42857C64.4634 7.25783 64.0922 7.17792 63.7194 7.19661C63.3111 7.17967 62.9069 7.28452 62.5563 7.4983C62.4205 7.57253 62.3063 7.68189 62.2253 7.81537C62.1442 7.94884 62.0992 8.10171 62.0947 8.25855C62.0926 8.39164 62.1227 8.52321 62.1824 8.64165C62.242 8.76009 62.3294 8.86176 62.4368 8.9377C62.7139 9.14025 63.0249 9.28973 63.3546 9.37884C63.7421 9.49482 64.2723 9.63428 64.9451 9.80255C65.6277 9.95502 66.2886 10.1948 66.912 10.5162C67.3668 10.748 67.7629 11.0836 68.0691 11.497C68.322 11.8793 68.4552 12.3305 68.4511 12.7913Z" fill="#3C2D83"/>
<path d="M5.30389 15.948L5.33255 14.5495C5.33333 14.4672 5.31578 14.3858 5.28121 14.3115C5.24665 14.2371 5.19597 14.1717 5.13299 14.1201C4.49448 13.5865 3.74203 13.1336 3.75322 12.2456L2.52197 14.7818C2.59157 14.8975 2.67172 15.0062 2.76137 15.1066C3.26379 15.6751 3.8826 16.1244 4.57416 16.4229C4.65263 16.4578 4.73831 16.4724 4.82364 16.4655C4.90898 16.4587 4.99134 16.4305 5.06346 16.3836C5.13558 16.3366 5.19524 16.2724 5.23717 16.1964C5.2791 16.1204 5.30202 16.0351 5.30389 15.948Z" fill="#3C2D83"/>
<path d="M7.24255 15.948L7.21389 14.5495C7.21311 14.4672 7.23066 14.3858 7.26523 14.3115C7.29979 14.2371 7.35047 14.1717 7.41345 14.1201C8.05196 13.5865 8.80441 13.1336 8.79322 12.2456L10.0245 14.7815C9.95487 14.8971 9.87472 15.0059 9.78507 15.1063C9.28265 15.6747 8.66384 16.124 7.97228 16.4226C7.89378 16.4582 7.80782 16.4734 7.72213 16.4668C7.63643 16.4602 7.55369 16.4321 7.48133 16.3849C7.40897 16.3377 7.34927 16.2729 7.30759 16.1964C7.26591 16.1199 7.24356 16.034 7.24255 15.9466" fill="#3C2D83"/>
<path d="M2.03176 14.3116L3.28572 11.6943C3.24657 11.4663 3.23893 11.2339 3.263 11.0037C3.263 10.6029 3.34057 10.2059 3.49127 9.83556C3.64197 9.4652 3.86286 9.12869 4.14132 8.84523C4.41978 8.56177 4.75037 8.33691 5.11419 8.18351C5.47802 8.0301 5.86797 7.95114 6.26177 7.95114C6.65558 7.95114 7.04553 8.0301 7.40935 8.18351C7.77318 8.33691 8.10376 8.56177 8.38223 8.84523C8.66069 9.12869 8.88158 9.4652 9.03228 9.83556C9.18298 10.2059 9.26055 10.6029 9.26055 11.0037C9.26676 11.2226 9.24324 11.4414 9.19065 11.6537L10.5019 14.2653C10.5146 14.2467 10.5263 14.2273 10.5369 14.2073C10.5993 14.1241 10.6564 14.0369 10.7078 13.9462C11.1062 13.2765 11.3536 12.525 11.4319 11.7461C11.5103 10.9672 11.4177 10.1804 11.1608 9.44233C10.904 8.70431 10.4893 8.03359 9.94666 7.47863C9.40407 6.92367 8.74715 6.49833 8.02336 6.23336C6.62881 5.71743 5.09972 5.72159 3.7079 6.2451V1.7821C3.7079 1.88064 3.2291 -0.301229 1.00007 0.0353196V10.9283C0.968155 12.116 1.31409 13.2823 1.98632 14.2536C2.00006 14.274 2.01524 14.2934 2.03176 14.3116Z" fill="#3C2D83"/>
</svg>
