<svg width="88" height="20" viewBox="0 0 88 20" fill="none" xmlns="http://www.w3.org/2000/svg">
<path d="M16.0282 18.7245H13.0312L14.9058 0.332031H17.9025L16.0282 18.7245Z" fill="#00579F"/>
<path d="M26.8963 0.783042C26.3052 0.410896 25.3676 0 24.2083 0C21.2487 0 19.1646 2.50438 19.1518 6.08489C19.1272 8.72658 20.6439 10.1938 21.7783 11.0747C22.9378 11.9747 23.332 12.5622 23.332 13.3645C23.3202 14.5967 22.395 15.1646 21.5322 15.1646C20.3357 15.1646 19.6946 14.8718 18.7203 14.1863L18.3256 13.8924L17.9062 18.0211C18.6091 18.5293 19.9042 18.9802 21.2487 19C24.3933 19 26.4405 16.5344 26.4648 12.7188C26.4767 10.625 25.6758 9.02071 23.9492 7.70974C22.901 6.86819 22.259 6.30074 22.259 5.43968C22.2713 4.6569 22.802 3.85513 23.9852 3.85513C24.9595 3.81586 25.6754 4.18749 26.2176 4.55938L26.4887 4.75468L26.8963 0.783042Z" fill="#00579F"/>
<path d="M30.8829 12.2087C31.1297 11.1521 32.0794 7.06265 32.0794 7.06265C32.0669 7.10192 32.3257 5.98652 32.4737 5.30178L32.6831 6.88659C32.6831 6.88659 33.2507 11.2891 33.3739 12.2087C32.9055 12.2087 31.4748 12.2087 30.8829 12.2087ZM34.5822 0.332031H32.2641C31.5492 0.332031 31.0061 0.664388 30.6977 1.85806L26.2461 18.7243H29.3907C29.3907 18.7243 29.9084 16.4542 30.0197 15.9653C30.3647 15.9653 33.4237 15.9653 33.8675 15.9653C33.9536 16.611 34.2251 18.7243 34.2251 18.7243H37L34.5822 0.332031Z" fill="#00579F"/>
<path d="M10.5359 0.332031L7.60093 12.874L7.2802 10.3303C6.73758 7.39527 5.03581 4.20641 3.13672 2.62082L5.82508 18.705H8.99427L13.705 0.332031H10.5359Z" fill="#00579F"/>
<path d="M4.87113 0.332031H0.049329L0 0.703657C3.76131 2.22995 6.25235 5.90902 7.27581 10.3311L6.2276 1.87809C6.05503 0.703397 5.5247 0.37078 4.87113 0.332031Z" fill="#FAA61A"/>
<path d="M57.7133 18.9597V17.6988C57.7133 17.2165 57.2689 16.9007 56.5062 16.9007C56.1248 16.9007 55.7101 16.9839 55.425 17.2581C55.2028 17.028 54.8844 16.9007 54.4067 16.9007C54.0883 16.9007 53.7698 16.9644 53.5181 17.1945V16.9423H52.8516V18.9597H53.5181V17.8457C53.5181 17.4883 53.8032 17.3193 54.2475 17.3193C54.6918 17.3193 54.914 17.5079 54.914 17.8457V18.9597H55.5805V17.8457C55.5805 17.4883 55.8989 17.3193 56.3099 17.3193C56.7543 17.3193 56.9764 17.5079 56.9764 17.8457V18.9597H57.7133ZM67.5996 16.9423H66.5184V16.3327H65.8519V16.9423H65.2484V17.3414H65.8519V18.2668C65.8519 18.7295 66.137 19.0013 66.8998 19.0013C67.1849 19.0013 67.5034 18.9376 67.7255 18.8544L67.533 18.4749C67.3404 18.5582 67.1183 18.5802 66.959 18.5802C66.6406 18.5802 66.5147 18.4529 66.5147 18.2448V17.3414H67.5959V16.9423H67.5996ZM73.2574 16.8983C72.876 16.8983 72.6206 17.0256 72.4613 17.192V16.9399H71.7948V18.9572H72.4613V17.8212C72.4613 17.4858 72.6835 17.2949 73.0982 17.2949C73.2241 17.2949 73.3833 17.3169 73.5129 17.3365L73.7055 16.9154C73.5722 16.8983 73.3833 16.8983 73.2574 16.8983ZM64.7078 17.1088C64.3893 16.9619 63.945 16.8983 63.4674 16.8983C62.7046 16.8983 62.1973 17.1504 62.1973 17.5495C62.1973 17.8849 62.5787 18.0759 63.2452 18.1371L63.5636 18.1591C63.9117 18.2007 64.1042 18.2644 64.1042 18.3696C64.1042 18.5165 63.8487 18.6218 63.4044 18.6218C62.9601 18.6218 62.6083 18.5165 62.3861 18.4113L62.0677 18.7467C62.4158 18.9156 62.8934 18.9988 63.3711 18.9988C64.2597 18.9988 64.7707 18.7246 64.7707 18.3476C64.7707 17.9902 64.356 17.8017 63.7228 17.738L63.4044 17.716C63.1193 17.6939 62.8971 17.6523 62.8971 17.5274C62.8971 17.3806 63.1193 17.2973 63.4711 17.2973C63.8524 17.2973 64.2338 17.4026 64.4264 17.4662L64.7078 17.1088ZM82.4403 16.8983C82.0589 16.8983 81.8034 17.0256 81.6442 17.192V16.9399H80.9777V18.9572H81.6442V17.8212C81.6442 17.4858 81.8663 17.2949 82.281 17.2949C82.4069 17.2949 82.5661 17.3169 82.6957 17.3365L82.8883 16.9203C82.7587 16.8983 82.5699 16.8983 82.4403 16.8983ZM73.9239 17.951C73.9239 18.5606 74.5608 19.0013 75.5457 19.0013C75.9901 19.0013 76.3085 18.9376 76.6269 18.7712L76.3085 18.4137C76.053 18.541 75.8012 18.6022 75.5124 18.6022C74.9718 18.6022 74.5904 18.3501 74.5904 17.951C74.5904 17.5715 74.9718 17.3193 75.5124 17.2998C75.7975 17.2998 76.053 17.3634 76.3085 17.4883L76.6269 17.1308C76.3085 16.9619 75.9901 16.9007 75.5457 16.9007C74.5608 16.8983 73.9239 17.3414 73.9239 17.951ZM80.089 17.951V16.9423H79.4225V17.1945C79.2003 17.006 78.8819 16.9007 78.4672 16.9007C77.6082 16.9007 76.9417 17.3414 76.9417 17.951C76.9417 18.5606 77.6082 19.0013 78.4672 19.0013C78.9115 19.0013 79.23 18.896 79.4225 18.7075V18.9597H80.089V17.951ZM77.6415 17.951C77.6415 17.5936 77.9895 17.2998 78.5635 17.2998C79.1041 17.2998 79.4855 17.574 79.4855 17.951C79.4855 18.3084 79.1041 18.6022 78.5635 18.6022C77.9933 18.5802 77.6415 18.306 77.6415 17.951ZM69.6658 16.8983C68.7771 16.8983 68.1402 17.3193 68.1402 17.9485C68.1402 18.5802 68.7771 18.9988 69.6991 18.9988C70.1434 18.9988 70.5877 18.9156 70.9395 18.7246L70.6211 18.4088C70.3656 18.5361 70.0471 18.6194 69.7324 18.6194C69.3177 18.6194 68.9067 18.4921 68.8104 18.1371H71.0654C71.0654 18.0734 71.0654 18.0318 71.0654 17.9681C71.095 17.3193 70.5211 16.8983 69.6658 16.8983ZM69.6658 17.2777C70.0805 17.2777 70.3656 17.4467 70.4285 17.76H68.84C68.903 17.4883 69.1881 17.2777 69.6658 17.2777ZM86.2245 17.951V16.1442H85.558V17.1945C85.3358 17.006 85.0174 16.9007 84.6027 16.9007C83.7436 16.9007 83.0771 17.3414 83.0771 17.951C83.0771 18.5606 83.7436 19.0013 84.6027 19.0013C85.047 19.0013 85.3654 18.896 85.558 18.7075V18.9597H86.2245V17.951ZM83.777 17.951C83.777 17.5936 84.125 17.2998 84.6989 17.2998C85.2395 17.2998 85.6209 17.574 85.6209 17.951C85.6209 18.3084 85.2395 18.6022 84.6989 18.6022C84.125 18.5802 83.777 18.306 83.777 17.951ZM61.4642 17.951V16.9423H60.7977V17.1945C60.5755 17.006 60.2571 16.9007 59.8424 16.9007C58.9833 16.9007 58.3168 17.3414 58.3168 17.951C58.3168 18.5606 58.9833 19.0013 59.8424 19.0013C60.2867 19.0013 60.6051 18.896 60.7977 18.7075V18.9597H61.4642V17.951ZM58.987 17.951C58.987 17.5936 59.3351 17.2998 59.909 17.2998C60.4496 17.2998 60.831 17.574 60.831 17.951C60.831 18.3084 60.4496 18.6022 59.909 18.6022C59.3351 18.5802 58.987 18.306 58.987 17.951Z" fill="black"/>
<path d="M74.4927 1.61667H64.4805V13.5102H74.4927V1.61667Z" fill="#FF5A00"/>
<path d="M65.1445 7.56505C65.1445 5.14864 66.8626 3.00398 69.499 1.61828C67.5587 0.609611 65.1112 0 62.4415 0C56.1172 0 51 3.38346 51 7.56505C51 11.7466 56.1172 15.1301 62.4415 15.1301C65.1112 15.1301 67.5587 14.5205 69.499 13.5118C66.8589 12.1457 65.1445 9.98146 65.1445 7.56505Z" fill="#EB001B"/>
<path d="M87.999 7.56505C87.999 11.7466 82.8817 15.1301 76.5574 15.1301C73.8878 15.1301 71.4402 14.5205 69.5 13.5118C72.1697 12.1237 73.8544 9.98146 73.8544 7.56505C73.8544 5.14864 72.1364 3.00398 69.5 1.61828C71.4365 0.609611 73.8841 0 76.5537 0C82.8817 0 87.999 3.4055 87.999 7.56505Z" fill="#F79E1B"/>
</svg>
