<svg width="22" height="26" viewBox="0 0 22 26" fill="none" xmlns="http://www.w3.org/2000/svg">
<path d="M0.511716 25.5195L0.440927 25.4477C0.16368 25.1365 0 24.6534 0 24.0277V24.175V1.82539C0 1.82337 0 1.82186 0 1.82024C0 1.82216 0 1.82378 0 1.8258V1.97344C0 1.29596 0.190833 0.785629 0.510572 0.479631L12.3148 13L0.511716 25.5195ZM0 1.81903C0 1.76335 0.00142904 1.70928 0.00409671 1.65602C0.00142904 1.70888 0 1.76335 0 1.81903ZM0.00409671 1.6536C0.00409671 1.65289 0.00409582 1.65208 0.00438164 1.65128C0.00409582 1.65208 0.00409671 1.65289 0.00409671 1.6536ZM0.00438164 1.64653C0.00438164 1.64612 0.00438164 1.64572 0.00438164 1.64531C0.00438164 1.64572 0.00438164 1.64612 0.00438164 1.64653Z" fill="url(#paint0_linear_3724_102181)"/>
<path d="M16.2466 17.3242L16.3364 17.2702L20.998 14.4607C21.4425 14.1927 21.7387 13.8678 21.8865 13.524C21.7391 13.8678 21.4428 14.1931 20.998 14.4611L16.3364 17.2706L16.2466 17.3242ZM16.2478 17.1762L12.3125 13.0013L16.2474 8.82722L20.998 11.6899C21.6013 12.0535 21.94 12.5221 21.9966 13.0009C21.9966 13.0013 21.9966 13.0021 21.9966 13.0029C21.94 13.4805 21.6013 13.9495 20.998 14.313L16.2478 17.1762Z" fill="url(#paint1_linear_3724_102181)"/>
<path d="M1.35156 26C1.02181 26 0.734087 25.8863 0.509717 25.6716L0.510099 25.6712C0.734469 25.8859 1.02258 26 1.35232 26C1.3809 26 1.40996 25.9992 1.4394 25.9977C1.40958 25.9992 1.38014 26 1.35156 26ZM1.35194 25.852C1.0222 25.8524 0.734469 25.7383 0.510099 25.5235V25.5232L12.3132 13.0037L16.2485 17.1785L2.41929 25.5129C2.03667 25.743 1.67416 25.852 1.35194 25.852ZM0.506765 25.6688C0.4859 25.6487 0.465415 25.6274 0.445312 25.6053L0.506765 25.6688Z" fill="url(#paint2_linear_3724_102181)"/>
<path d="M12.3121 12.9961L0.507812 0.475739C0.732182 0.261399 1.01953 0.147711 1.34889 0.147711C1.67196 0.147711 2.03477 0.257054 2.41815 0.487563L16.247 8.82197L12.3121 12.9961ZM16.3359 8.72768L2.41815 0.340019C2.03477 0.109409 1.67196 6.77109e-05 1.34889 6.77109e-05C1.34737 6.77109e-05 1.34632 6.77109e-05 1.34479 6.77109e-05C1.3467 6.77109e-05 1.34813 6.77109e-05 1.35041 6.77109e-05C1.67273 6.77109e-05 2.03515 0.109005 2.41815 0.339615L16.3359 8.72768Z" fill="url(#paint3_linear_3724_102181)"/>
<path d="M21.9992 12.9961C21.9426 12.5173 21.6039 12.0487 21.0006 11.6851L16.25 8.82237L16.3386 8.72839H16.339L21.0006 11.5379C21.6657 11.9389 21.9988 12.4675 21.9992 12.9961Z" fill="url(#paint4_linear_3724_102181)"/>
<defs>
<linearGradient id="paint0_linear_3724_102181" x1="11.2681" y1="1.58963" x2="-5.66222" y2="17.5513" gradientUnits="userSpaceOnUse">
<stop stop-color="#00A0FF"/>
<stop offset="0.00657445" stop-color="#00A1FF"/>
<stop offset="0.2601" stop-color="#00BEFF"/>
<stop offset="0.5122" stop-color="#00D2FF"/>
<stop offset="0.7604" stop-color="#00DFFF"/>
<stop offset="1" stop-color="#00E3FF"/>
</linearGradient>
<linearGradient id="paint1_linear_3724_102181" x1="22.7316" y1="13.0019" x2="-0.321766" y2="13.0019" gradientUnits="userSpaceOnUse">
<stop stop-color="#FFE000"/>
<stop offset="0.4087" stop-color="#FFBD00"/>
<stop offset="0.7754" stop-color="#FFA500"/>
<stop offset="1" stop-color="#FF9C00"/>
</linearGradient>
<linearGradient id="paint2_linear_3724_102181" x1="14.1506" y1="15.3232" x2="-8.80816" y2="36.9683" gradientUnits="userSpaceOnUse">
<stop stop-color="#FF3A44"/>
<stop offset="1" stop-color="#C31162"/>
</linearGradient>
<linearGradient id="paint3_linear_3724_102181" x1="-2.55172" y1="-7.03789" x2="7.70032" y2="2.62753" gradientUnits="userSpaceOnUse">
<stop stop-color="#32A071"/>
<stop offset="0.0685" stop-color="#2DA771"/>
<stop offset="0.4762" stop-color="#15CF74"/>
<stop offset="0.8009" stop-color="#06E775"/>
<stop offset="1" stop-color="#00F076"/>
</linearGradient>
<linearGradient id="paint4_linear_3724_102181" x1="22.7342" y1="12.9971" x2="-0.319155" y2="12.9971" gradientUnits="userSpaceOnUse">
<stop stop-color="#FFE840"/>
<stop offset="0.4087" stop-color="#FFCE40"/>
<stop offset="0.7754" stop-color="#FFBC40"/>
<stop offset="1" stop-color="#FFB540"/>
</linearGradient>
</defs>
</svg>
