<svg width="38" height="19" viewBox="0 0 38 19" fill="none" xmlns="http://www.w3.org/2000/svg">
<path d="M15.6515 10.9531H0V18.9815H15.6515V10.9531Z" fill="#84B740"/>
<path d="M15.6515 0H0V8.03553H15.6515V0Z" fill="#259BD6"/>
<path d="M31.3025 17.3527L31.2328 17.3742C30.9911 17.4458 30.9028 17.4744 30.7262 17.4744C30.3173 17.4744 29.834 17.1524 29.834 15.6354C29.834 14.8555 29.9176 13.818 30.6798 13.818H30.6844C30.8145 13.8323 30.9632 13.8537 31.2421 13.9825L31.3025 14.0112V17.3527ZM31.4279 9.78947L31.3025 9.82524V12.6302L31.1909 12.5801L31.1584 12.5658C31.0329 12.5085 30.7448 12.3797 30.466 12.3797C28.9417 12.3797 28.6211 14.1543 28.6211 15.6426C28.6211 17.6819 29.3646 18.8554 30.6612 18.8554C31.2095 18.8554 31.6138 18.7695 32.0228 18.562C32.3992 18.376 32.534 18.1112 32.534 17.5459V9.49609C32.1715 9.59627 31.7951 9.69645 31.4279 9.78947Z" fill="#27292D"/>
<path d="M35.8326 17.4026L35.7676 17.4313L35.5352 17.5243C35.3168 17.6101 35.1216 17.6602 34.9729 17.6602C34.6151 17.6602 34.4013 17.3883 34.4013 16.9232C34.4013 16.6227 34.4896 16.1147 35.0752 16.1147H35.8326V17.4026ZM35.2982 12.3438C34.8289 12.3438 34.3456 12.4725 33.7461 12.7588L33.3557 12.9376L33.4859 14.2972L33.8669 14.104C34.2666 13.9036 34.7638 13.7748 35.1356 13.7748C35.3029 13.7748 35.8141 13.7748 35.8141 14.6263V14.9984H35.1031C33.8065 14.9984 33.207 15.6352 33.207 17.0019C33.207 18.1683 33.76 18.8695 34.6895 18.8695C34.9776 18.8695 35.3772 18.7836 35.7211 18.6548L35.7397 18.6477L35.7583 18.6548L35.8745 18.6834C36.2369 18.7836 36.6134 18.8838 36.9805 18.9911V14.5262C36.9805 13.0808 36.4135 12.3438 35.2982 12.3438Z" fill="#27292D"/>
<path d="M26.8014 17.4026L26.7363 17.4313L26.504 17.5243C26.2856 17.6101 26.095 17.6602 25.9417 17.6602C25.5839 17.6602 25.3701 17.3883 25.3701 16.9232C25.3701 16.6227 25.4584 16.1147 26.0393 16.1147H26.7968L26.8014 17.4026ZM26.2716 12.3438C25.7976 12.3438 25.319 12.4725 24.7195 12.7588L24.3291 12.9376L24.4593 14.2972L24.8403 14.104C25.24 13.9036 25.7372 13.7748 26.109 13.7748C26.2763 13.7748 26.7875 13.7748 26.7875 14.6263V14.9984H26.0765C24.7799 14.9984 24.1758 15.6352 24.1758 17.0019C24.1758 18.1683 24.7288 18.8695 25.6629 18.8695C25.951 18.8695 26.3506 18.7836 26.6945 18.6548L26.7131 18.6477L26.7317 18.6548L26.8432 18.6834C27.2103 18.7836 27.5821 18.8838 27.9492 18.9983V14.5333C27.9539 13.0736 27.3869 12.3438 26.2716 12.3438Z" fill="#27292D"/>
<path d="M21.9137 12.3587C21.3235 12.3587 20.8355 12.6592 20.6543 12.788L20.6078 12.8238L20.566 12.7737C20.3151 12.4947 19.9479 12.3516 19.4368 12.3516C18.986 12.3516 18.5631 12.4517 18.103 12.6592C17.708 12.8453 17.5547 13.1387 17.5547 13.6896V18.7914H18.7908V14.076L18.8512 14.0474C19.1022 13.9186 19.2509 13.8971 19.3949 13.8971C19.7528 13.8971 19.934 14.1905 19.934 14.7629V18.7986H21.1516V14.6842C21.1516 14.4409 21.119 14.2978 21.1144 14.2692L21.0725 14.1476L21.1562 14.0903C21.3421 13.9615 21.5466 13.8971 21.7603 13.8971C22.0066 13.8971 22.2994 14.0474 22.2994 14.7629V18.7986H23.5123V14.5769C23.5123 13.0814 22.9918 12.3587 21.9137 12.3587Z" fill="#27292D"/>
<path d="M34.9241 5.23776C34.7428 5.23776 34.4408 5.20914 34.2038 5.13759L34.1341 5.11612V2.36129C34.1341 2.13231 34.1062 1.98921 34.1015 1.96774L34.0643 1.85325L34.1433 1.80316C34.1619 1.78885 34.1805 1.7817 34.2038 1.76739L34.2177 1.75308C34.2456 1.73877 34.2735 1.72446 34.3013 1.71014C34.3153 1.70299 34.3246 1.69583 34.3339 1.69583C34.6081 1.58135 34.859 1.59566 34.9705 1.58135H34.9752C35.7327 1.58135 35.821 2.61888 35.821 3.39882C35.8163 4.91577 35.3284 5.23776 34.9241 5.23776ZM34.9194 0C34.9101 0 34.8962 0 34.8869 0C34.1759 0 33.4463 0.300527 33.186 0.887271C33.0466 1.17349 32.9676 1.53126 32.963 1.95343V4.79413C32.963 5.03741 32.9305 5.13043 32.9258 5.1519L32.884 5.27354H30.6394V3.29865H30.6348C30.6069 1.21642 29.8076 0.0715542 28.6505 0.0715542H28.5157H27.5212C27.4747 0.579589 27.4376 0.937359 27.3911 1.44539H28.5157C29.1059 1.44539 29.4172 2.21818 29.4172 3.40598V5.39518L29.3382 5.33078C29.3243 5.32363 29.2267 5.27354 29.0733 5.27354H27.1309C27.0937 5.65278 27.0472 6.1465 26.9961 6.64023H32.9676C33.1721 6.57583 33.4091 6.51858 33.6136 6.4685C33.9156 6.69747 34.4779 6.81911 34.8637 6.81911C36.1602 6.81911 37.0013 5.48105 37.0013 3.42029C36.9967 1.381 36.1834 0.0429325 34.9194 0Z" fill="#27292D"/>
<path d="M24.451 7.47683H24.5068C25.8033 7.47683 26.4074 6.81853 26.4074 5.19425C26.4074 4.02791 25.8544 3.09771 24.925 3.09771H23.7307C23.3729 3.09771 23.1591 2.78287 23.1591 2.25337C23.1591 1.8956 23.2474 1.45196 23.8329 1.45196H26.4446C26.5004 0.929619 26.5283 0.60047 26.5794 0.078125H23.8655C22.6014 0.078125 21.9648 0.893842 21.9648 2.25337C21.9648 3.59859 22.5178 4.29982 23.4472 4.29982H24.6415C24.9994 4.29982 25.2131 4.7363 25.2131 5.19425C25.2131 5.49477 25.1248 6.1173 24.5439 6.1173H24.3441L20.5195 6.10299H19.8225C19.2323 6.10299 18.8187 5.5878 18.8187 4.39284V3.56997C18.8187 2.32493 19.1394 1.55214 19.8225 1.55214H20.9564C21.0075 1.02264 21.04 0.686335 21.0865 0.185456H19.6738H19.539C18.3819 0.185456 17.5826 1.38041 17.5547 3.46264V3.54135V4.39284C17.5826 6.47507 18.3819 7.46967 19.539 7.46967H19.6738H20.6683L22.7409 7.47683H23.977H24.451Z" fill="#27292D"/>
</svg>
