<svg width="297" height="37" viewBox="0 0 297 37" fill="none" xmlns="http://www.w3.org/2000/svg">
<rect x="183" width="53" height="37" rx="1.5" fill="white"/>
<rect x="183.25" y="0.25" width="52.5" height="36.5" rx="1.25" stroke="#D9D9D9" stroke-opacity="0.5" stroke-width="0.5"/>
<path d="M199.664 12.1917C199.301 12.7659 198.72 13.2188 198.138 13.1541C198.066 12.3777 198.35 11.5528 198.683 11.0433C199.047 10.4529 199.682 10.0324 200.197 10C200.258 10.8088 200.022 11.6013 199.664 12.1917ZM200.191 13.3078C199.349 13.2431 198.629 13.9467 198.229 13.9467C197.823 13.9467 197.212 13.3402 196.546 13.3563C195.68 13.3725 194.874 14.0276 194.432 15.0709C193.524 17.1575 194.196 20.2469 195.074 21.9453C195.504 22.7864 196.019 23.7084 196.697 23.676C197.339 23.6437 197.593 23.118 198.368 23.118C199.15 23.118 199.374 23.676 200.052 23.6598C200.754 23.6437 201.196 22.8187 201.626 21.9776C202.117 21.0233 202.317 20.0932 202.329 20.0447C202.317 20.0285 200.972 19.3411 200.96 17.2707C200.948 15.54 202.02 14.715 202.068 14.6665C201.463 13.4696 200.518 13.3402 200.191 13.3078ZM205.054 10.9624V23.5709H206.519V19.2602H208.548C210.4 19.2602 211.702 17.5618 211.702 15.1032C211.702 12.6446 210.425 10.9624 208.596 10.9624H205.054V10.9624ZM206.519 12.6123H208.208C209.48 12.6123 210.207 13.5181 210.207 15.1113C210.207 16.7046 209.48 17.6185 208.202 17.6185H206.519V12.6123V12.6123ZM214.379 23.6679C215.299 23.6679 216.153 23.0452 216.541 22.0585H216.571V23.5709H217.927V17.295C217.927 15.4753 216.837 14.3026 215.16 14.3026C213.604 14.3026 212.453 15.4914 212.411 17.1251H213.731C213.84 16.3487 214.379 15.8392 215.118 15.8392C216.014 15.8392 216.516 16.3972 216.516 17.4244V18.1199L214.688 18.2655C212.986 18.4029 212.066 19.333 212.066 20.9505C212.066 22.5842 213.016 23.6679 214.379 23.6679ZM214.772 22.1717C213.991 22.1717 213.495 21.6703 213.495 20.902C213.495 20.1094 213.973 19.6484 214.888 19.5756L216.516 19.4382V20.1499C216.516 21.3306 215.766 22.1717 214.772 22.1717ZM219.738 27C221.167 27 221.839 26.2721 222.426 24.0642L225 14.4239H223.51L221.785 21.8725H221.754L220.029 14.4239H218.497L220.979 23.6032L220.846 24.1613C220.622 25.1075 220.259 25.4715 219.611 25.4715C219.496 25.4715 219.272 25.4553 219.181 25.4391V26.9515C219.266 26.9838 219.629 27 219.738 27Z" fill="black"/>
<rect x="122" width="53" height="37" rx="1.5" fill="white"/>
<rect x="122.25" y="0.25" width="52.5" height="36.5" rx="1.25" stroke="#D9D9D9" stroke-opacity="0.5" stroke-width="0.5"/>
<path d="M146.434 26.7553H143.923L145.494 10.2988H148.005L146.434 26.7553Z" fill="#00579F"/>
<path d="M155.537 10.7006C155.042 10.3676 154.256 10 153.285 10C150.805 10 149.059 12.2408 149.048 15.4444C149.027 17.808 150.298 19.1208 151.249 19.9089C152.221 20.7142 152.551 21.2399 152.551 21.9577C152.541 23.0602 151.766 23.5684 151.043 23.5684C150.04 23.5684 149.503 23.3064 148.686 22.693L148.356 22.4301L148.004 26.1242C148.593 26.5788 149.679 26.9823 150.805 27C153.44 27 155.156 24.7939 155.176 21.3799C155.186 19.5066 154.515 18.0712 153.068 16.8982C152.19 16.1452 151.652 15.6375 151.652 14.8671C151.662 14.1667 152.107 13.4493 153.098 13.4493C153.915 13.4142 154.514 13.7467 154.969 14.0794L155.196 14.2542L155.537 10.7006V10.7006Z" fill="#00579F"/>
<path d="M158.874 20.9253C159.081 19.9799 159.877 16.321 159.877 16.321C159.866 16.3561 160.083 15.3581 160.207 14.7454L160.383 16.1634C160.383 16.1634 160.858 20.1026 160.961 20.9253C160.569 20.9253 159.37 20.9253 158.874 20.9253ZM161.974 10.2988H160.031C159.432 10.2988 158.977 10.5962 158.719 11.6642L154.989 26.755H157.624C157.624 26.755 158.058 24.7239 158.151 24.2865C158.44 24.2865 161.003 24.2865 161.375 24.2865C161.447 24.8642 161.675 26.755 161.675 26.755H164L161.974 10.2988V10.2988Z" fill="#00579F"/>
<path d="M141.825 10.2988L139.365 21.5205L139.096 19.2447C138.642 16.6186 137.216 13.7654 135.625 12.3467L137.877 26.7378H140.533L144.48 10.2988H141.825V10.2988Z" fill="#00579F"/>
<path d="M137.082 10.2988H133.041L133 10.6313C136.152 11.997 138.239 15.2888 139.097 19.2453L138.218 11.6821C138.074 10.6311 137.629 10.3335 137.082 10.2988Z" fill="#FAA61A"/>
<rect width="53" height="37" rx="1.5" fill="white"/>
<rect x="0.25" y="0.25" width="52.5" height="36.5" rx="1.25" stroke="#D9D9D9" stroke-opacity="0.5" stroke-width="0.5"/>
<path d="M26.5 3L35 6.64286V7.85714H33.8667C33.8667 8.02157 33.8062 8.16387 33.6852 8.28404C33.5642 8.4042 33.421 8.46429 33.2557 8.46429H19.7443C19.579 8.46429 19.4358 8.4042 19.3148 8.28404C19.1938 8.16387 19.1333 8.02157 19.1333 7.85714H18V6.64286L26.5 3ZM20.2667 9.07143H22.5333V16.3571H23.6667V9.07143H25.9333V16.3571H27.0667V9.07143H29.3333V16.3571H30.4667V9.07143H32.7333V16.3571H33.2557C33.421 16.3571 33.5642 16.4172 33.6852 16.5374C33.8062 16.6576 33.8667 16.7999 33.8667 16.9643V17.5714H19.1333V16.9643C19.1333 16.7999 19.1938 16.6576 19.3148 16.5374C19.4358 16.4172 19.579 16.3571 19.7443 16.3571H20.2667V9.07143V9.07143ZM34.3891 18.1786C34.5543 18.1786 34.6975 18.2387 34.8185 18.3588C34.9395 18.479 35 18.6213 35 18.7857V20H18V18.7857C18 18.6213 18.0605 18.479 18.1815 18.3588C18.3025 18.2387 18.4457 18.1786 18.6109 18.1786H34.3891V18.1786Z" fill="black"/>
<path d="M11.2653 29C11.1933 29.552 10.8813 29.984 10.3293 30.296C9.83132 30.572 9.21032 30.71 8.46632 30.71C7.47032 30.71 6.72032 30.425 6.21632 29.855C5.84432 29.429 5.65832 28.907 5.65832 28.289C5.65832 27.815 5.76932 27.401 5.99132 27.047L7.07132 26.822C6.83132 27.23 6.71132 27.659 6.71132 28.109C6.71132 28.613 6.86132 29 7.16132 29.27C7.46132 29.546 7.89632 29.684 8.46632 29.684C9.35432 29.684 9.89432 29.456 10.0863 29H9.22232L9.78932 27.911H11.2923V29H11.2653ZM7.86332 32.699C7.68332 32.699 7.53932 32.642 7.43132 32.528C7.32332 32.42 7.26932 32.276 7.26932 32.096C7.26932 31.922 7.32332 31.781 7.43132 31.673C7.53932 31.565 7.68332 31.511 7.86332 31.511C8.04332 31.511 8.18432 31.562 8.28632 31.664C8.39432 31.772 8.44832 31.916 8.44832 32.096C8.44832 32.498 8.25332 32.699 7.86332 32.699ZM9.24932 32.699C9.06932 32.699 8.92532 32.645 8.81732 32.537C8.70932 32.429 8.65532 32.282 8.65532 32.096C8.65532 31.706 8.85332 31.511 9.24932 31.511C9.42932 31.511 9.57032 31.562 9.67232 31.664C9.78032 31.772 9.83432 31.916 9.83432 32.096C9.83432 32.498 9.63932 32.699 9.24932 32.699ZM15.6916 27.911H16.4026V29H15.5746C15.1366 29 14.7766 28.883 14.4946 28.649C14.2066 28.883 13.8436 29 13.4056 29H10.8316V27.911H13.2886C13.7086 27.911 13.9186 27.704 13.9186 27.29V27.236C13.9186 26.906 13.7956 26.642 13.5496 26.444C13.3036 26.24 12.9796 26.138 12.5776 26.138C12.2716 26.138 11.9506 26.198 11.6146 26.318V25.229L13.4416 23.195H14.5846L12.9466 25.031C13.4206 25.079 13.8226 25.22 14.1526 25.454C14.7526 25.862 15.0526 26.453 15.0526 27.227V27.263C15.0526 27.497 15.1006 27.665 15.1966 27.767C15.2986 27.863 15.4636 27.911 15.6916 27.911ZM17.6229 24.095C17.4429 24.095 17.2989 24.041 17.1909 23.933C17.0829 23.825 17.0289 23.678 17.0289 23.492C17.0289 23.318 17.0829 23.177 17.1909 23.069C17.2989 22.961 17.4429 22.907 17.6229 22.907C17.8029 22.907 17.9439 22.961 18.0459 23.069C18.1539 23.171 18.2079 23.312 18.2079 23.492C18.2079 23.894 18.0129 24.095 17.6229 24.095ZM19.0629 27.911H19.8729V29H18.9549C18.5169 29 18.1539 28.883 17.8659 28.649C17.5779 28.883 17.2149 29 16.7769 29H15.8589V27.911H16.6689C16.8969 27.911 17.0589 27.863 17.1549 27.767C17.2509 27.665 17.2989 27.497 17.2989 27.263V25.598L18.4329 25.004V27.263C18.4329 27.497 18.4809 27.665 18.5769 27.767C18.6729 27.863 18.8349 27.911 19.0629 27.911ZM19.3306 29V27.911H20.1406C20.3686 27.911 20.5306 27.863 20.6266 27.767C20.7226 27.665 20.7706 27.497 20.7706 27.263V25.598L21.9046 25.004V27.317C21.9046 27.863 21.7366 28.289 21.4006 28.595C21.1066 28.865 20.7226 29 20.2486 29H19.3306ZM21.2386 31.007C21.0586 31.007 20.9146 30.953 20.8066 30.845C20.6986 30.737 20.6446 30.59 20.6446 30.404C20.6446 30.23 20.6986 30.089 20.8066 29.981C20.9146 29.873 21.0586 29.819 21.2386 29.819C21.4186 29.819 21.5596 29.87 21.6616 29.972C21.7696 30.08 21.8236 30.224 21.8236 30.404C21.8236 30.806 21.6286 31.007 21.2386 31.007ZM31.21 27.911H32.146V29H31.102C30.922 29 30.724 28.955 30.508 28.865C30.376 29.459 30.067 29.927 29.581 30.269C29.143 30.569 28.624 30.719 28.024 30.719C27.172 30.719 26.512 30.437 26.044 29.873C25.684 29.441 25.504 28.928 25.504 28.334C25.504 27.866 25.612 27.452 25.828 27.092L26.944 26.84C26.698 27.23 26.575 27.677 26.575 28.181C26.575 28.625 26.704 28.976 26.962 29.234C27.226 29.498 27.58 29.63 28.024 29.63C28.462 29.63 28.81 29.507 29.068 29.261C29.326 29.015 29.455 28.679 29.455 28.253V23.798L30.58 23.195V27.263C30.58 27.497 30.628 27.665 30.724 27.767C30.82 27.863 30.982 27.911 31.21 27.911ZM31.6089 29V27.911H32.4189C32.6469 27.911 32.8089 27.863 32.9049 27.767C33.0009 27.665 33.0489 27.497 33.0489 27.263V25.598L34.1829 25.004V27.317C34.1829 27.863 34.0149 28.289 33.6789 28.595C33.3849 28.865 33.0009 29 32.5269 29H31.6089ZM32.0949 31.007C31.9149 31.007 31.7709 30.953 31.6629 30.845C31.5549 30.737 31.5009 30.59 31.5009 30.404C31.5009 30.014 31.6989 29.819 32.0949 29.819C32.2749 29.819 32.4159 29.87 32.5179 29.972C32.6259 30.08 32.6799 30.224 32.6799 30.404C32.6799 30.806 32.4849 31.007 32.0949 31.007ZM33.4809 31.007C33.3009 31.007 33.1569 30.953 33.0489 30.845C32.9409 30.737 32.8869 30.59 32.8869 30.404C32.8869 30.014 33.0849 29.819 33.4809 29.819C33.6609 29.819 33.8019 29.87 33.9039 29.972C34.0119 30.08 34.0659 30.224 34.0659 30.404C34.0659 30.806 33.8709 31.007 33.4809 31.007ZM40.0752 27.911V29H38.9682C38.9262 29.54 38.6862 29.972 38.2482 30.296C37.8882 30.56 37.4682 30.692 36.9882 30.692C36.6102 30.692 36.2412 30.59 35.8812 30.386V29.405C36.2052 29.591 36.5292 29.684 36.8532 29.684C37.1052 29.684 37.3272 29.615 37.5192 29.477C37.7172 29.339 37.8252 29.174 37.8432 28.982C37.7952 28.976 37.7202 28.97 37.6182 28.964C37.5162 28.952 37.4382 28.943 37.3842 28.937C36.7662 28.871 36.2892 28.628 35.9532 28.208C35.6712 27.854 35.5302 27.425 35.5302 26.921C35.5302 26.261 35.7102 25.739 36.0702 25.355C36.3882 25.019 36.8082 24.851 37.3302 24.851C37.8642 24.851 38.2812 25.022 38.5812 25.364C38.8392 25.658 38.9682 26.042 38.9682 26.516V27.911H40.0752ZM37.8432 26.498C37.8432 26.102 37.6722 25.904 37.3302 25.904C36.8742 25.904 36.6462 26.231 36.6462 26.885C36.6462 27.467 36.9102 27.791 37.4382 27.857C37.5222 27.875 37.6572 27.89 37.8432 27.902V26.498ZM45.4046 27.911H46.1606V29H45.3956C44.9216 29 44.5406 28.949 44.2526 28.847C43.9706 28.739 43.7066 28.553 43.4606 28.289C42.7106 28.763 41.8466 29 40.8686 29H39.5366V27.911H40.8776C41.9336 27.911 42.7736 27.596 43.3976 26.966C42.9896 26.252 42.4946 25.895 41.9126 25.895C41.4326 25.895 40.9076 26.156 40.3376 26.678V25.679C40.8416 25.127 41.4116 24.851 42.0476 24.851C42.5156 24.851 42.9716 25.022 43.4156 25.364C43.8596 25.706 44.2526 26.192 44.5946 26.822V27.272C44.4986 27.398 44.3726 27.539 44.2166 27.695C44.4566 27.839 44.8526 27.911 45.4046 27.911ZM46.2667 24.095C46.0867 24.095 45.9427 24.041 45.8347 23.933C45.7267 23.825 45.6727 23.678 45.6727 23.492C45.6727 23.102 45.8707 22.907 46.2667 22.907C46.4467 22.907 46.5877 22.961 46.6897 23.069C46.7977 23.171 46.8517 23.312 46.8517 23.492C46.8517 23.894 46.6567 24.095 46.2667 24.095ZM47.6527 24.095C47.4727 24.095 47.3287 24.041 47.2207 23.933C47.1127 23.825 47.0587 23.678 47.0587 23.492C47.0587 23.102 47.2567 22.907 47.6527 22.907C47.8327 22.907 47.9737 22.961 48.0757 23.069C48.1837 23.171 48.2377 23.312 48.2377 23.492C48.2377 23.894 48.0427 24.095 47.6527 24.095ZM45.6187 29V27.911H46.4287C46.6567 27.911 46.8187 27.863 46.9147 27.767C47.0107 27.665 47.0587 27.497 47.0587 27.263V25.598L48.1927 25.004V27.317C48.1927 27.863 48.0247 28.289 47.6887 28.595C47.3947 28.865 47.0107 29 46.5367 29H45.6187Z" fill="black"/>
<rect x="244" width="53" height="37" rx="1.5" fill="white"/>
<rect x="244.25" y="0.25" width="52.5" height="36.5" rx="1.25" stroke="#D9D9D9" stroke-opacity="0.5" stroke-width="0.5"/>
<path d="M268.114 19.8027H255V26.9869H268.114V19.8027Z" fill="#84B740"/>
<path d="M268.114 10H255V17.1906H268.114V10Z" fill="#259BD6"/>
<path d="M281.229 25.5266L281.17 25.5458C280.968 25.6098 280.894 25.6354 280.746 25.6354C280.403 25.6354 279.998 25.3473 279.998 23.9899C279.998 23.2919 280.068 22.3635 280.707 22.3635H280.711C280.82 22.3763 280.944 22.3955 281.178 22.5108L281.229 22.5364V25.5266ZM281.334 18.7586L281.229 18.7906V21.3006L281.135 21.2558L281.108 21.243C281.003 21.1918 280.761 21.0765 280.528 21.0765C279.251 21.0765 278.982 22.6644 278.982 23.9963C278.982 25.8211 279.605 26.8712 280.691 26.8712C281.151 26.8712 281.489 26.7944 281.832 26.6087C282.147 26.4422 282.26 26.2053 282.26 25.6995V18.4961C281.957 18.5857 281.641 18.6754 281.334 18.7586Z" fill="#27292D"/>
<path d="M285.023 25.5718L284.969 25.5975L284.774 25.6807C284.591 25.7575 284.427 25.8023 284.303 25.8023C284.003 25.8023 283.824 25.559 283.824 25.1428C283.824 24.8739 283.898 24.4193 284.388 24.4193H285.023V25.5718ZM284.575 21.0449C284.182 21.0449 283.777 21.1602 283.275 21.4163L282.948 21.5764L283.057 22.7929L283.376 22.6201C283.711 22.4408 284.128 22.3255 284.439 22.3255C284.579 22.3255 285.008 22.3255 285.008 23.0875V23.4204H284.412C283.326 23.4204 282.823 23.9903 282.823 25.2133C282.823 26.257 283.287 26.8845 284.065 26.8845C284.307 26.8845 284.642 26.8076 284.93 26.6924L284.945 26.686L284.961 26.6924L285.058 26.718C285.362 26.8076 285.677 26.8973 285.985 26.9933V22.9978C285.985 21.7044 285.51 21.0449 284.575 21.0449Z" fill="#27292D"/>
<path d="M277.458 25.5718L277.404 25.5974L277.209 25.6807C277.026 25.7575 276.866 25.8023 276.738 25.8023C276.438 25.8023 276.259 25.559 276.259 25.1428C276.259 24.8739 276.333 24.4193 276.82 24.4193H277.454L277.458 25.5718ZM277.014 21.0449C276.617 21.0449 276.216 21.1602 275.714 21.4163L275.387 21.5764L275.496 22.7929L275.815 22.6201C276.15 22.4408 276.567 22.3255 276.878 22.3255C277.018 22.3255 277.447 22.3255 277.447 23.0875V23.4204H276.851C275.764 23.4204 275.258 23.9903 275.258 25.2133C275.258 26.257 275.722 26.8845 276.504 26.8845C276.746 26.8845 277.081 26.8076 277.369 26.6924L277.384 26.686L277.4 26.6924L277.493 26.718C277.801 26.8076 278.112 26.8973 278.42 26.9997V23.0042C278.424 21.698 277.949 21.0449 277.014 21.0449Z" fill="#27292D"/>
<path d="M273.358 21.0572C272.864 21.0572 272.455 21.3261 272.303 21.4414L272.264 21.4734L272.229 21.4286C272.019 21.1788 271.711 21.0508 271.283 21.0508C270.905 21.0508 270.551 21.1404 270.166 21.3261C269.835 21.4926 269.706 21.7551 269.706 22.2481V26.8135H270.742V22.5939L270.792 22.5683C271.003 22.453 271.127 22.4338 271.248 22.4338C271.548 22.4338 271.7 22.6964 271.7 23.2086V26.8199H272.72V23.1382C272.72 22.9205 272.692 22.7924 272.689 22.7668L272.654 22.6579L272.724 22.6067C272.879 22.4915 273.051 22.4338 273.23 22.4338C273.436 22.4338 273.681 22.5683 273.681 23.2086V26.8199H274.698V23.0421C274.698 21.7039 274.262 21.0572 273.358 21.0572Z" fill="#27292D"/>
<path d="M284.259 14.687C284.107 14.687 283.854 14.6614 283.656 14.5973L283.597 14.5781V12.113C283.597 11.9081 283.574 11.78 283.57 11.7608L283.539 11.6584L283.605 11.6136C283.621 11.6007 283.636 11.5943 283.656 11.5815L283.667 11.5687C283.691 11.5559 283.714 11.5431 283.737 11.5303C283.749 11.5239 283.757 11.5175 283.765 11.5175C283.994 11.4151 284.205 11.4279 284.298 11.4151H284.302C284.937 11.4151 285.011 12.3435 285.011 13.0414C285.007 14.3989 284.598 14.687 284.259 14.687ZM284.255 10C284.248 10 284.236 10 284.228 10C283.632 10 283.021 10.2689 282.803 10.794C282.686 11.0501 282.62 11.3702 282.616 11.748V14.29C282.616 14.5077 282.589 14.5909 282.585 14.6102L282.55 14.719H280.669V12.9518H280.665C280.642 11.0885 279.972 10.064 279.003 10.064H278.89H278.057C278.018 10.5186 277.987 10.8388 277.948 11.2934H278.89C279.384 11.2934 279.645 11.9849 279.645 13.0478V14.8279L279.579 14.7702C279.567 14.7638 279.486 14.719 279.357 14.719H277.73C277.698 15.0584 277.66 15.5002 277.617 15.942H282.62C282.791 15.8844 282.99 15.8331 283.161 15.7883C283.414 15.9932 283.885 16.1021 284.209 16.1021C285.295 16.1021 286 14.9047 286 13.0606C285.996 11.2358 285.314 10.0384 284.255 10Z" fill="#27292D"/>
<path d="M275.484 16.691H275.531C276.617 16.691 277.123 16.1019 277.123 14.6485C277.123 13.6048 276.66 12.7724 275.881 12.7724H274.881C274.581 12.7724 274.402 12.4906 274.402 12.0168C274.402 11.6967 274.476 11.2997 274.966 11.2997H277.155C277.201 10.8323 277.225 10.5377 277.267 10.0703H274.994C273.935 10.0703 273.401 10.8003 273.401 12.0168C273.401 13.2206 273.864 13.8481 274.643 13.8481H275.644C275.944 13.8481 276.123 14.2387 276.123 14.6485C276.123 14.9174 276.049 15.4744 275.562 15.4744H275.395L272.19 15.4616H271.606C271.112 15.4616 270.765 15.0006 270.765 13.9313V13.195C270.765 12.0809 271.034 11.3893 271.606 11.3893H272.556C272.599 10.9155 272.626 10.6146 272.665 10.1664H271.482H271.369C270.399 10.1664 269.729 11.2357 269.706 13.0989V13.1694V13.9313C269.729 15.7946 270.399 16.6846 271.369 16.6846H271.482H272.315L274.051 16.691H275.087H275.484Z" fill="#27292D"/>
<rect x="61" width="53" height="37" rx="1.5" fill="white"/>
<rect x="61.25" y="0.25" width="52.5" height="36.5" rx="1.25" stroke="#D9D9D9" stroke-opacity="0.5" stroke-width="0.5"/>
<path d="M77.6195 30.9451V29.286C77.6195 28.6513 77.2472 28.2357 76.6081 28.2357C76.2885 28.2357 75.941 28.3453 75.7021 28.7061C75.516 28.4033 75.2492 28.2357 74.849 28.2357C74.5821 28.2357 74.3153 28.3195 74.1044 28.6223V28.2905H73.5459V30.9451H74.1044V29.4793C74.1044 29.0089 74.3432 28.7866 74.7155 28.7866C75.0879 28.7866 75.274 29.0347 75.274 29.4793V30.9451H75.8325V29.4793C75.8325 29.0089 76.0993 28.7866 76.4437 28.7866C76.816 28.7866 77.0021 29.0347 77.0021 29.4793V30.9451H77.6195ZM85.9032 28.2905H84.9973V27.4883H84.4388V28.2905H83.9331V28.8156H84.4388V30.0334C84.4388 30.6423 84.6777 30.9999 85.3169 30.9999C85.5557 30.9999 85.8226 30.9162 86.0087 30.8066L85.8474 30.3073C85.6861 30.4168 85.4999 30.4458 85.3665 30.4458C85.0997 30.4458 84.9942 30.2783 84.9942 30.0044V28.8156H85.9001V28.2905H85.9032ZM90.6439 28.2325C90.3243 28.2325 90.1102 28.4 89.9768 28.6191V28.2873H89.4184V30.9419H89.9768V29.4471C89.9768 29.0057 90.163 28.7544 90.5105 28.7544C90.616 28.7544 90.7494 28.7834 90.858 28.8092L91.0193 28.2551C90.9076 28.2325 90.7494 28.2325 90.6439 28.2325ZM83.4802 28.5096C83.2133 28.3163 82.841 28.2325 82.4408 28.2325C81.8017 28.2325 81.3767 28.5643 81.3767 29.0895C81.3767 29.5308 81.6962 29.7821 82.2547 29.8627L82.5215 29.8917C82.8131 29.9464 82.9745 30.0302 82.9745 30.1687C82.9745 30.362 82.7604 30.5006 82.3881 30.5006C82.0158 30.5006 81.721 30.362 81.5349 30.2235L81.2681 30.6649C81.5597 30.8872 81.9599 30.9967 82.3602 30.9967C83.1048 30.9967 83.5329 30.6359 83.5329 30.1397C83.5329 29.6694 83.1854 29.4213 82.6549 29.3375L82.3881 29.3085C82.1492 29.2795 81.963 29.2248 81.963 29.0605C81.963 28.8672 82.1492 28.7576 82.4439 28.7576C82.7635 28.7576 83.083 28.8962 83.2444 28.9799L83.4802 28.5096ZM98.3381 28.2325C98.0186 28.2325 97.8045 28.4 97.6711 28.6191V28.2873H97.1126V30.9419H97.6711V29.4471C97.6711 29.0057 97.8572 28.7544 98.2047 28.7544C98.3102 28.7544 98.4436 28.7834 98.5522 28.8092L98.7135 28.2615C98.6049 28.2325 98.4467 28.2325 98.3381 28.2325ZM91.2023 29.6178C91.2023 30.42 91.736 30.9999 92.5612 30.9999C92.9335 30.9999 93.2004 30.9162 93.4672 30.6971L93.2004 30.2267C92.9863 30.3942 92.7753 30.4748 92.5333 30.4748C92.0803 30.4748 91.7608 30.143 91.7608 29.6178C91.7608 29.1185 92.0803 28.7866 92.5333 28.7609C92.7722 28.7609 92.9863 28.8446 93.2004 29.0089L93.4672 28.5386C93.2004 28.3163 92.9335 28.2357 92.5612 28.2357C91.736 28.2325 91.2023 28.8156 91.2023 29.6178ZM96.368 29.6178V28.2905H95.8096V28.6223C95.6234 28.3743 95.3566 28.2357 95.0091 28.2357C94.2893 28.2357 93.7309 28.8156 93.7309 29.6178C93.7309 30.42 94.2893 30.9999 95.0091 30.9999C95.3814 30.9999 95.6482 30.8614 95.8096 30.6133V30.9451H96.368V29.6178ZM94.3173 29.6178C94.3173 29.1475 94.6089 28.7609 95.0898 28.7609C95.5428 28.7609 95.8623 29.1217 95.8623 29.6178C95.8623 30.0882 95.5428 30.4748 95.0898 30.4748C94.612 30.4458 94.3173 30.085 94.3173 29.6178ZM87.6344 28.2325C86.8898 28.2325 86.3562 28.7866 86.3562 29.6146C86.3562 30.4458 86.8898 30.9967 87.6624 30.9967C88.0347 30.9967 88.407 30.8872 88.7017 30.6359L88.4349 30.2203C88.2208 30.3878 87.954 30.4973 87.6903 30.4973C87.3428 30.4973 86.9984 30.3298 86.9178 29.8627H88.8072C88.8072 29.7789 88.8072 29.7241 88.8072 29.6404C88.832 28.7866 88.3511 28.2325 87.6344 28.2325ZM87.6344 28.7319C87.9819 28.7319 88.2208 28.9542 88.2736 29.3665H86.9426C86.9953 29.0089 87.2342 28.7319 87.6344 28.7319ZM101.509 29.6178V27.2402H100.95V28.6223C100.764 28.3743 100.497 28.2357 100.15 28.2357C99.4302 28.2357 98.8718 28.8156 98.8718 29.6178C98.8718 30.42 99.4302 30.9999 100.15 30.9999C100.522 30.9999 100.789 30.8614 100.95 30.6133V30.9451H101.509V29.6178ZM99.4581 29.6178C99.4581 29.1475 99.7498 28.7609 100.231 28.7609C100.684 28.7609 101.003 29.1217 101.003 29.6178C101.003 30.0882 100.684 30.4748 100.231 30.4748C99.7498 30.4458 99.4581 30.085 99.4581 29.6178ZM80.7624 29.6178V28.2905H80.2039V28.6223C80.0178 28.3743 79.7509 28.2357 79.4035 28.2357C78.6837 28.2357 78.1252 28.8156 78.1252 29.6178C78.1252 30.42 78.6837 30.9999 79.4035 30.9999C79.7758 30.9999 80.0426 30.8614 80.2039 30.6133V30.9451H80.7624V29.6178ZM78.6868 29.6178C78.6868 29.1475 78.9784 28.7609 79.4593 28.7609C79.9123 28.7609 80.2318 29.1217 80.2318 29.6178C80.2318 30.0882 79.9123 30.4748 79.4593 30.4748C78.9784 30.4458 78.6868 30.085 78.6868 29.6178Z" fill="black"/>
<path d="M91.6822 8.12891H83.293V23.7798H91.6822V8.12891Z" fill="#FF5A00"/>
<path d="M83.8516 15.9549C83.8516 12.7752 85.2912 9.95298 87.5002 8.12952C85.8745 6.80219 83.8237 6 81.5868 6C76.2877 6 72 10.4523 72 15.9549C72 21.4575 76.2877 25.9099 81.5868 25.9099C83.8237 25.9099 85.8745 25.1077 87.5002 23.7804C85.2881 21.9827 83.8516 19.1347 83.8516 15.9549Z" fill="#EB001B"/>
<path d="M103 15.9549C103 21.4575 98.7123 25.9099 93.4132 25.9099C91.1762 25.9099 89.1255 25.1077 87.4998 23.7804C89.7367 21.9537 91.1483 19.1347 91.1483 15.9549C91.1483 12.7752 89.7087 9.95298 87.4998 8.12952C89.1224 6.80219 91.1731 6 93.4101 6C98.7123 6 103 10.4813 103 15.9549Z" fill="#F79E1B"/>
</svg>
