<svg width="224" height="37" viewBox="0 0 224 37" fill="none" xmlns="http://www.w3.org/2000/svg">
<rect x="114" width="53" height="37" rx="1.5" fill="white"/>
<rect x="114.25" y="0.25" width="52.5" height="36.5" rx="1.25" stroke="#D9D9D9" stroke-opacity="0.7" stroke-width="0.5"/>
<path d="M130.62 30.9471V29.2879C130.62 28.6533 130.248 28.2377 129.609 28.2377C129.29 28.2377 128.942 28.3472 128.703 28.708C128.517 28.4052 128.25 28.2377 127.85 28.2377C127.583 28.2377 127.316 28.3214 127.105 28.6243V28.2925H126.547V30.9471H127.105V29.4812C127.105 29.0109 127.344 28.7886 127.717 28.7886C128.089 28.7886 128.275 29.0367 128.275 29.4812V30.9471H128.833V29.4812C128.833 29.0109 129.1 28.7886 129.445 28.7886C129.817 28.7886 130.003 29.0367 130.003 29.4812V30.9471H130.62ZM138.904 28.2925H137.998V27.4903H137.44V28.2925H136.934V28.8176H137.44V30.0354C137.44 30.6443 137.679 31.0019 138.318 31.0019C138.557 31.0019 138.824 30.9181 139.01 30.8086L138.848 30.3092C138.687 30.4187 138.501 30.4477 138.367 30.4477C138.101 30.4477 137.995 30.2802 137.995 30.0064V28.8176H138.901V28.2925H138.904ZM143.645 28.2345C143.325 28.2345 143.111 28.402 142.978 28.6211V28.2892H142.419V30.9439H142.978V29.449C142.978 29.0077 143.164 28.7564 143.511 28.7564C143.617 28.7564 143.75 28.7854 143.859 28.8111L144.02 28.257C143.909 28.2345 143.75 28.2345 143.645 28.2345ZM136.481 28.5115C136.214 28.3182 135.842 28.2345 135.442 28.2345C134.803 28.2345 134.378 28.5663 134.378 29.0914C134.378 29.5328 134.697 29.7841 135.256 29.8646L135.522 29.8936C135.814 29.9484 135.975 30.0322 135.975 30.1707C135.975 30.364 135.761 30.5025 135.389 30.5025C135.017 30.5025 134.722 30.364 134.536 30.2255L134.269 30.6668C134.561 30.8891 134.961 30.9987 135.361 30.9987C136.106 30.9987 136.534 30.6378 136.534 30.1417C136.534 29.6713 136.186 29.4233 135.656 29.3395L135.389 29.3105C135.15 29.2815 134.964 29.2267 134.964 29.0624C134.964 28.8691 135.15 28.7596 135.445 28.7596C135.764 28.7596 136.084 28.8981 136.245 28.9819L136.481 28.5115ZM151.339 28.2345C151.02 28.2345 150.805 28.402 150.672 28.6211V28.2892H150.114V30.9439H150.672V29.449C150.672 29.0077 150.858 28.7564 151.206 28.7564C151.311 28.7564 151.445 28.7854 151.553 28.8111L151.715 28.2635C151.606 28.2345 151.448 28.2345 151.339 28.2345ZM144.203 29.6198C144.203 30.422 144.737 31.0019 145.562 31.0019C145.935 31.0019 146.201 30.9181 146.468 30.699L146.201 30.2287C145.987 30.3962 145.776 30.4767 145.534 30.4767C145.081 30.4767 144.762 30.1449 144.762 29.6198C144.762 29.1204 145.081 28.7886 145.534 28.7628C145.773 28.7628 145.987 28.8466 146.201 29.0109L146.468 28.5405C146.201 28.3182 145.935 28.2377 145.562 28.2377C144.737 28.2345 144.203 28.8176 144.203 29.6198ZM149.369 29.6198V28.2925H148.811V28.6243C148.624 28.3762 148.358 28.2377 148.01 28.2377C147.29 28.2377 146.732 28.8176 146.732 29.6198C146.732 30.422 147.29 31.0019 148.01 31.0019C148.382 31.0019 148.649 30.8633 148.811 30.6153V30.9471H149.369V29.6198ZM147.318 29.6198C147.318 29.1494 147.61 28.7628 148.091 28.7628C148.544 28.7628 148.863 29.1236 148.863 29.6198C148.863 30.0901 148.544 30.4767 148.091 30.4767C147.613 30.4477 147.318 30.0869 147.318 29.6198ZM140.635 28.2345C139.891 28.2345 139.357 28.7886 139.357 29.6166C139.357 30.4477 139.891 30.9987 140.663 30.9987C141.036 30.9987 141.408 30.8891 141.703 30.6378L141.436 30.2222C141.222 30.3898 140.955 30.4993 140.691 30.4993C140.344 30.4993 139.999 30.3318 139.919 29.8646H141.808C141.808 29.7809 141.808 29.7261 141.808 29.6423C141.833 28.7886 141.352 28.2345 140.635 28.2345ZM140.635 28.7338C140.983 28.7338 141.222 28.9561 141.275 29.3685H139.944C139.996 29.0109 140.235 28.7338 140.635 28.7338ZM154.51 29.6198V27.2422H153.951V28.6243C153.765 28.3762 153.498 28.2377 153.151 28.2377C152.431 28.2377 151.873 28.8176 151.873 29.6198C151.873 30.422 152.431 31.0019 153.151 31.0019C153.523 31.0019 153.79 30.8633 153.951 30.6153V30.9471H154.51V29.6198ZM152.459 29.6198C152.459 29.1494 152.751 28.7628 153.232 28.7628C153.685 28.7628 154.004 29.1236 154.004 29.6198C154.004 30.0901 153.685 30.4767 153.232 30.4767C152.751 30.4477 152.459 30.0869 152.459 29.6198ZM133.763 29.6198V28.2925H133.205V28.6243C133.019 28.3762 132.752 28.2377 132.404 28.2377C131.685 28.2377 131.126 28.8176 131.126 29.6198C131.126 30.422 131.685 31.0019 132.404 31.0019C132.777 31.0019 133.044 30.8633 133.205 30.6153V30.9471H133.763V29.6198ZM131.688 29.6198C131.688 29.1494 131.979 28.7628 132.46 28.7628C132.913 28.7628 133.233 29.1236 133.233 29.6198C133.233 30.0901 132.913 30.4767 132.46 30.4767C131.979 30.4477 131.688 30.0869 131.688 29.6198Z" fill="black"/>
<path d="M144.682 8.12891H136.293V23.7798H144.682V8.12891Z" fill="#FF5A00"/>
<path d="M136.852 15.9549C136.852 12.7752 138.291 9.95298 140.5 8.12952C138.874 6.80219 136.824 6 134.587 6C129.288 6 125 10.4523 125 15.9549C125 21.4575 129.288 25.9099 134.587 25.9099C136.824 25.9099 138.874 25.1077 140.5 23.7804C138.288 21.9827 136.852 19.1347 136.852 15.9549Z" fill="#EB001B"/>
<path d="M156 15.9549C156 21.4575 151.713 25.9099 146.413 25.9099C144.176 25.9099 142.126 25.1077 140.5 23.7804C142.737 21.9537 144.149 19.1347 144.149 15.9549C144.149 12.7752 142.709 9.95298 140.5 8.12952C142.123 6.80219 144.173 6 146.41 6C151.713 6 156 10.4813 156 15.9549Z" fill="#F79E1B"/>
<rect x="57" width="53" height="37" rx="1.5" fill="white"/>
<rect x="57.25" y="0.25" width="52.5" height="36.5" rx="1.25" stroke="#D9D9D9" stroke-opacity="0.7" stroke-width="0.5"/>
<path d="M81.4331 26.7533H78.9219L80.4926 10.2969H83.0037L81.4331 26.7533Z" fill="#00579F"/>
<path d="M90.5369 10.7006C90.0416 10.3676 89.256 10 88.2846 10C85.8046 10 84.0583 12.2408 84.0476 15.4444C84.027 17.808 85.2979 19.1208 86.2485 19.9089C87.22 20.7142 87.5503 21.2399 87.5503 21.9577C87.5404 23.0602 86.7652 23.5684 86.0422 23.5684C85.0396 23.5684 84.5024 23.3064 83.686 22.693L83.3553 22.4301L83.0039 26.1242C83.5929 26.5788 84.678 26.9823 85.8046 27C88.4396 27 90.1551 24.7939 90.1754 21.3799C90.1854 19.5066 89.5143 18.0712 88.0675 16.8982C87.1891 16.1452 86.6512 15.6375 86.6512 14.8671C86.6615 14.1667 87.1062 13.4493 88.0977 13.4493C88.9141 13.4142 89.5139 13.7467 89.9683 14.0794L90.1954 14.2542L90.5369 10.7006V10.7006Z" fill="#00579F"/>
<path d="M93.8736 20.9234C94.0804 19.978 94.8762 16.319 94.8762 16.319C94.8658 16.3541 95.0826 15.3562 95.2066 14.7435L95.3821 16.1615C95.3821 16.1615 95.8576 20.1006 95.9609 20.9234C95.5684 20.9234 94.3696 20.9234 93.8736 20.9234ZM96.9734 10.2969H95.031C94.4319 10.2969 93.9769 10.5942 93.7184 11.6623L89.9883 26.7531H92.6233C92.6233 26.7531 93.0571 24.722 93.1503 24.2845C93.4394 24.2845 96.0027 24.2845 96.3745 24.2845C96.4466 24.8623 96.6742 26.7531 96.6742 26.7531H98.9993L96.9734 10.2969V10.2969Z" fill="#00579F"/>
<path d="M76.825 10.2969L74.3657 21.5186L74.097 19.2427C73.6423 16.6166 72.2163 13.7634 70.625 12.3447L72.8777 26.7359H75.5332L79.4805 10.2969H76.825V10.2969Z" fill="#00579F"/>
<path d="M72.0817 10.2969H68.0413L68 10.6294C71.1517 11.995 73.239 15.2868 74.0966 19.2434L73.2183 11.6802C73.0737 10.6291 72.6293 10.3315 72.0817 10.2969Z" fill="#FAA61A"/>
<rect width="53" height="37" rx="1.5" fill="white"/>
<rect x="0.25" y="0.25" width="52.5" height="36.5" rx="1.25" stroke="#D9D9D9" stroke-opacity="0.7" stroke-width="0.5"/>
<path d="M26.5 3L35 6.64286V7.85714H33.8667C33.8667 8.02157 33.8062 8.16387 33.6852 8.28404C33.5642 8.4042 33.421 8.46429 33.2557 8.46429H19.7443C19.579 8.46429 19.4358 8.4042 19.3148 8.28404C19.1938 8.16387 19.1333 8.02157 19.1333 7.85714H18V6.64286L26.5 3ZM20.2667 9.07143H22.5333V16.3571H23.6667V9.07143H25.9333V16.3571H27.0667V9.07143H29.3333V16.3571H30.4667V9.07143H32.7333V16.3571H33.2557C33.421 16.3571 33.5642 16.4172 33.6852 16.5374C33.8062 16.6576 33.8667 16.7999 33.8667 16.9643V17.5714H19.1333V16.9643C19.1333 16.7999 19.1938 16.6576 19.3148 16.5374C19.4358 16.4172 19.579 16.3571 19.7443 16.3571H20.2667V9.07143V9.07143ZM34.3891 18.1786C34.5543 18.1786 34.6975 18.2387 34.8185 18.3588C34.9395 18.479 35 18.6213 35 18.7857V20H18V18.7857C18 18.6213 18.0605 18.479 18.1815 18.3588C18.3025 18.2387 18.4457 18.1786 18.6109 18.1786H34.3891V18.1786Z" fill="black"/>
<path d="M11.2653 29C11.1933 29.552 10.8813 29.984 10.3293 30.296C9.83132 30.572 9.21032 30.71 8.46632 30.71C7.47032 30.71 6.72032 30.425 6.21632 29.855C5.84432 29.429 5.65832 28.907 5.65832 28.289C5.65832 27.815 5.76932 27.401 5.99132 27.047L7.07132 26.822C6.83132 27.23 6.71132 27.659 6.71132 28.109C6.71132 28.613 6.86132 29 7.16132 29.27C7.46132 29.546 7.89632 29.684 8.46632 29.684C9.35432 29.684 9.89432 29.456 10.0863 29H9.22232L9.78932 27.911H11.2923V29H11.2653ZM7.86332 32.699C7.68332 32.699 7.53932 32.642 7.43132 32.528C7.32332 32.42 7.26932 32.276 7.26932 32.096C7.26932 31.922 7.32332 31.781 7.43132 31.673C7.53932 31.565 7.68332 31.511 7.86332 31.511C8.04332 31.511 8.18432 31.562 8.28632 31.664C8.39432 31.772 8.44832 31.916 8.44832 32.096C8.44832 32.498 8.25332 32.699 7.86332 32.699ZM9.24932 32.699C9.06932 32.699 8.92532 32.645 8.81732 32.537C8.70932 32.429 8.65532 32.282 8.65532 32.096C8.65532 31.706 8.85332 31.511 9.24932 31.511C9.42932 31.511 9.57032 31.562 9.67232 31.664C9.78032 31.772 9.83432 31.916 9.83432 32.096C9.83432 32.498 9.63932 32.699 9.24932 32.699ZM15.6916 27.911H16.4026V29H15.5746C15.1366 29 14.7766 28.883 14.4946 28.649C14.2066 28.883 13.8436 29 13.4056 29H10.8316V27.911H13.2886C13.7086 27.911 13.9186 27.704 13.9186 27.29V27.236C13.9186 26.906 13.7956 26.642 13.5496 26.444C13.3036 26.24 12.9796 26.138 12.5776 26.138C12.2716 26.138 11.9506 26.198 11.6146 26.318V25.229L13.4416 23.195H14.5846L12.9466 25.031C13.4206 25.079 13.8226 25.22 14.1526 25.454C14.7526 25.862 15.0526 26.453 15.0526 27.227V27.263C15.0526 27.497 15.1006 27.665 15.1966 27.767C15.2986 27.863 15.4636 27.911 15.6916 27.911ZM17.6229 24.095C17.4429 24.095 17.2989 24.041 17.1909 23.933C17.0829 23.825 17.0289 23.678 17.0289 23.492C17.0289 23.318 17.0829 23.177 17.1909 23.069C17.2989 22.961 17.4429 22.907 17.6229 22.907C17.8029 22.907 17.9439 22.961 18.0459 23.069C18.1539 23.171 18.2079 23.312 18.2079 23.492C18.2079 23.894 18.0129 24.095 17.6229 24.095ZM19.0629 27.911H19.8729V29H18.9549C18.5169 29 18.1539 28.883 17.8659 28.649C17.5779 28.883 17.2149 29 16.7769 29H15.8589V27.911H16.6689C16.8969 27.911 17.0589 27.863 17.1549 27.767C17.2509 27.665 17.2989 27.497 17.2989 27.263V25.598L18.4329 25.004V27.263C18.4329 27.497 18.4809 27.665 18.5769 27.767C18.6729 27.863 18.8349 27.911 19.0629 27.911ZM19.3306 29V27.911H20.1406C20.3686 27.911 20.5306 27.863 20.6266 27.767C20.7226 27.665 20.7706 27.497 20.7706 27.263V25.598L21.9046 25.004V27.317C21.9046 27.863 21.7366 28.289 21.4006 28.595C21.1066 28.865 20.7226 29 20.2486 29H19.3306ZM21.2386 31.007C21.0586 31.007 20.9146 30.953 20.8066 30.845C20.6986 30.737 20.6446 30.59 20.6446 30.404C20.6446 30.23 20.6986 30.089 20.8066 29.981C20.9146 29.873 21.0586 29.819 21.2386 29.819C21.4186 29.819 21.5596 29.87 21.6616 29.972C21.7696 30.08 21.8236 30.224 21.8236 30.404C21.8236 30.806 21.6286 31.007 21.2386 31.007ZM31.21 27.911H32.146V29H31.102C30.922 29 30.724 28.955 30.508 28.865C30.376 29.459 30.067 29.927 29.581 30.269C29.143 30.569 28.624 30.719 28.024 30.719C27.172 30.719 26.512 30.437 26.044 29.873C25.684 29.441 25.504 28.928 25.504 28.334C25.504 27.866 25.612 27.452 25.828 27.092L26.944 26.84C26.698 27.23 26.575 27.677 26.575 28.181C26.575 28.625 26.704 28.976 26.962 29.234C27.226 29.498 27.58 29.63 28.024 29.63C28.462 29.63 28.81 29.507 29.068 29.261C29.326 29.015 29.455 28.679 29.455 28.253V23.798L30.58 23.195V27.263C30.58 27.497 30.628 27.665 30.724 27.767C30.82 27.863 30.982 27.911 31.21 27.911ZM31.6089 29V27.911H32.4189C32.6469 27.911 32.8089 27.863 32.9049 27.767C33.0009 27.665 33.0489 27.497 33.0489 27.263V25.598L34.1829 25.004V27.317C34.1829 27.863 34.0149 28.289 33.6789 28.595C33.3849 28.865 33.0009 29 32.5269 29H31.6089ZM32.0949 31.007C31.9149 31.007 31.7709 30.953 31.6629 30.845C31.5549 30.737 31.5009 30.59 31.5009 30.404C31.5009 30.014 31.6989 29.819 32.0949 29.819C32.2749 29.819 32.4159 29.87 32.5179 29.972C32.6259 30.08 32.6799 30.224 32.6799 30.404C32.6799 30.806 32.4849 31.007 32.0949 31.007ZM33.4809 31.007C33.3009 31.007 33.1569 30.953 33.0489 30.845C32.9409 30.737 32.8869 30.59 32.8869 30.404C32.8869 30.014 33.0849 29.819 33.4809 29.819C33.6609 29.819 33.8019 29.87 33.9039 29.972C34.0119 30.08 34.0659 30.224 34.0659 30.404C34.0659 30.806 33.8709 31.007 33.4809 31.007ZM40.0752 27.911V29H38.9682C38.9262 29.54 38.6862 29.972 38.2482 30.296C37.8882 30.56 37.4682 30.692 36.9882 30.692C36.6102 30.692 36.2412 30.59 35.8812 30.386V29.405C36.2052 29.591 36.5292 29.684 36.8532 29.684C37.1052 29.684 37.3272 29.615 37.5192 29.477C37.7172 29.339 37.8252 29.174 37.8432 28.982C37.7952 28.976 37.7202 28.97 37.6182 28.964C37.5162 28.952 37.4382 28.943 37.3842 28.937C36.7662 28.871 36.2892 28.628 35.9532 28.208C35.6712 27.854 35.5302 27.425 35.5302 26.921C35.5302 26.261 35.7102 25.739 36.0702 25.355C36.3882 25.019 36.8082 24.851 37.3302 24.851C37.8642 24.851 38.2812 25.022 38.5812 25.364C38.8392 25.658 38.9682 26.042 38.9682 26.516V27.911H40.0752ZM37.8432 26.498C37.8432 26.102 37.6722 25.904 37.3302 25.904C36.8742 25.904 36.6462 26.231 36.6462 26.885C36.6462 27.467 36.9102 27.791 37.4382 27.857C37.5222 27.875 37.6572 27.89 37.8432 27.902V26.498ZM45.4046 27.911H46.1606V29H45.3956C44.9216 29 44.5406 28.949 44.2526 28.847C43.9706 28.739 43.7066 28.553 43.4606 28.289C42.7106 28.763 41.8466 29 40.8686 29H39.5366V27.911H40.8776C41.9336 27.911 42.7736 27.596 43.3976 26.966C42.9896 26.252 42.4946 25.895 41.9126 25.895C41.4326 25.895 40.9076 26.156 40.3376 26.678V25.679C40.8416 25.127 41.4116 24.851 42.0476 24.851C42.5156 24.851 42.9716 25.022 43.4156 25.364C43.8596 25.706 44.2526 26.192 44.5946 26.822V27.272C44.4986 27.398 44.3726 27.539 44.2166 27.695C44.4566 27.839 44.8526 27.911 45.4046 27.911ZM46.2667 24.095C46.0867 24.095 45.9427 24.041 45.8347 23.933C45.7267 23.825 45.6727 23.678 45.6727 23.492C45.6727 23.102 45.8707 22.907 46.2667 22.907C46.4467 22.907 46.5877 22.961 46.6897 23.069C46.7977 23.171 46.8517 23.312 46.8517 23.492C46.8517 23.894 46.6567 24.095 46.2667 24.095ZM47.6527 24.095C47.4727 24.095 47.3287 24.041 47.2207 23.933C47.1127 23.825 47.0587 23.678 47.0587 23.492C47.0587 23.102 47.2567 22.907 47.6527 22.907C47.8327 22.907 47.9737 22.961 48.0757 23.069C48.1837 23.171 48.2377 23.312 48.2377 23.492C48.2377 23.894 48.0427 24.095 47.6527 24.095ZM45.6187 29V27.911H46.4287C46.6567 27.911 46.8187 27.863 46.9147 27.767C47.0107 27.665 47.0587 27.497 47.0587 27.263V25.598L48.1927 25.004V27.317C48.1927 27.863 48.0247 28.289 47.6887 28.595C47.3947 28.865 47.0107 29 46.5367 29H45.6187Z" fill="black"/>
<rect x="171" width="53" height="37" rx="1.5" fill="white"/>
<rect x="171.25" y="0.25" width="52.5" height="36.5" rx="1.25" stroke="#D9D9D9" stroke-opacity="0.7" stroke-width="0.5"/>
<path d="M195.114 19.8008H182V26.9849H195.114V19.8008Z" fill="#84B740"/>
<path d="M195.114 10H182V17.1906H195.114V10Z" fill="#259BD6"/>
<path d="M208.227 25.5266L208.169 25.5458C207.966 25.6098 207.892 25.6354 207.744 25.6354C207.402 25.6354 206.997 25.3473 206.997 23.9899C206.997 23.2919 207.067 22.3635 207.705 22.3635H207.709C207.818 22.3763 207.943 22.3955 208.176 22.5108L208.227 22.5364V25.5266ZM208.332 18.7586L208.227 18.7906V21.3006L208.134 21.2558L208.106 21.243C208.001 21.1918 207.76 21.0765 207.526 21.0765C206.249 21.0765 205.98 22.6644 205.98 23.9963C205.98 25.8211 206.603 26.8712 207.69 26.8712C208.149 26.8712 208.488 26.7944 208.831 26.6087C209.146 26.4422 209.259 26.2053 209.259 25.6995V18.4961C208.955 18.5857 208.64 18.6754 208.332 18.7586Z" fill="#27292D"/>
<path d="M212.024 25.5738L211.97 25.5994L211.775 25.6826C211.592 25.7595 211.428 25.8043 211.304 25.8043C211.004 25.8043 210.825 25.561 210.825 25.1448C210.825 24.8759 210.899 24.4213 211.389 24.4213H212.024V25.5738ZM211.576 21.0469C211.183 21.0469 210.778 21.1621 210.276 21.4182L209.949 21.5783L210.058 22.7949L210.377 22.622C210.712 22.4427 211.129 22.3275 211.44 22.3275C211.58 22.3275 212.009 22.3275 212.009 23.0894V23.4224H211.413C210.326 23.4224 209.824 23.9923 209.824 25.2152C209.824 26.2589 210.288 26.8864 211.066 26.8864C211.308 26.8864 211.643 26.8096 211.931 26.6943L211.946 26.6879L211.962 26.6943L212.059 26.7199C212.363 26.8096 212.678 26.8992 212.986 26.9953V22.9998C212.986 21.7064 212.511 21.0469 211.576 21.0469Z" fill="#27292D"/>
<path d="M204.458 25.5738L204.403 25.5994L204.209 25.6826C204.026 25.7595 203.866 25.8043 203.737 25.8043C203.438 25.8043 203.258 25.561 203.258 25.1448C203.258 24.8759 203.332 24.4213 203.819 24.4213H204.454L204.458 25.5738ZM204.014 21.0469C203.617 21.0469 203.216 21.1621 202.713 21.4182L202.386 21.5783L202.495 22.7949L202.815 22.622C203.149 22.4427 203.566 22.3275 203.878 22.3275C204.018 22.3275 204.446 22.3275 204.446 23.0894V23.4224H203.85C202.764 23.4224 202.258 23.9923 202.258 25.2152C202.258 26.2589 202.721 26.8864 203.504 26.8864C203.745 26.8864 204.08 26.8096 204.368 26.6943L204.384 26.6879L204.399 26.6943L204.493 26.7199C204.8 26.8096 205.112 26.8992 205.419 27.0017V23.0062C205.423 21.7 204.948 21.0469 204.014 21.0469Z" fill="#27292D"/>
<path d="M200.359 21.0572C199.865 21.0572 199.456 21.3261 199.304 21.4414L199.265 21.4734L199.23 21.4286C199.02 21.1788 198.712 21.0508 198.284 21.0508C197.906 21.0508 197.552 21.1404 197.166 21.3261C196.836 21.4926 196.707 21.7551 196.707 22.2481V26.8135H197.743V22.5939L197.793 22.5683C198.004 22.453 198.128 22.4338 198.249 22.4338C198.549 22.4338 198.701 22.6964 198.701 23.2086V26.8199H199.721V23.1382C199.721 22.9205 199.693 22.7924 199.69 22.7668L199.655 22.6579L199.725 22.6067C199.88 22.4915 200.052 22.4338 200.231 22.4338C200.437 22.4338 200.682 22.5683 200.682 23.2086V26.8199H201.699V23.0421C201.699 21.7039 201.263 21.0572 200.359 21.0572Z" fill="#27292D"/>
<path d="M211.26 14.687C211.108 14.687 210.855 14.6614 210.656 14.5973L210.598 14.5781V12.113C210.598 11.9081 210.574 11.78 210.571 11.7608L210.539 11.6584L210.606 11.6136C210.621 11.6007 210.637 11.5943 210.656 11.5815L210.668 11.5687C210.691 11.5559 210.715 11.5431 210.738 11.5303C210.75 11.5239 210.757 11.5175 210.765 11.5175C210.995 11.4151 211.205 11.4279 211.299 11.4151H211.303C211.937 11.4151 212.011 12.3435 212.011 13.0414C212.007 14.3989 211.598 14.687 211.26 14.687ZM211.256 10C211.248 10 211.236 10 211.229 10C210.633 10 210.022 10.2689 209.803 10.794C209.687 11.0501 209.62 11.3702 209.617 11.748V14.29C209.617 14.5077 209.589 14.5909 209.585 14.6102L209.55 14.719H207.67V12.9518H207.666C207.643 11.0885 206.973 10.064 206.003 10.064H205.89H205.057C205.018 10.5186 204.987 10.8388 204.948 11.2934H205.89C206.385 11.2934 206.646 11.9849 206.646 13.0478V14.8279L206.58 14.7702C206.568 14.7638 206.486 14.719 206.358 14.719H204.73C204.699 15.0584 204.66 15.5002 204.617 15.942H209.62C209.792 15.8844 209.99 15.8331 210.162 15.7883C210.415 15.9932 210.886 16.1021 211.209 16.1021C212.295 16.1021 213 14.9047 213 13.0606C212.996 11.2358 212.315 10.0384 211.256 10Z" fill="#27292D"/>
<path d="M202.485 16.691H202.532C203.618 16.691 204.124 16.1019 204.124 14.6485C204.124 13.6048 203.661 12.7724 202.882 12.7724H201.882C201.582 12.7724 201.403 12.4906 201.403 12.0168C201.403 11.6967 201.477 11.2997 201.967 11.2997H204.156C204.202 10.8323 204.226 10.5377 204.268 10.0703H201.995C200.936 10.0703 200.402 10.8003 200.402 12.0168C200.402 13.2206 200.865 13.8481 201.644 13.8481H202.645C202.945 13.8481 203.124 14.2387 203.124 14.6485C203.124 14.9174 203.05 15.4744 202.563 15.4744H202.396L199.191 15.4616H198.607C198.113 15.4616 197.766 15.0006 197.766 13.9313V13.195C197.766 12.0809 198.035 11.3893 198.607 11.3893H199.557C199.6 10.9155 199.627 10.6146 199.666 10.1664H198.483H198.37C197.4 10.1664 196.73 11.2357 196.707 13.0989V13.1694V13.9313C196.73 15.7946 197.4 16.6846 198.37 16.6846H198.483H199.316L201.052 16.691H202.088H202.485Z" fill="#27292D"/>
</svg>
