<svg width="38" height="50" viewBox="0 0 38 50" fill="none" xmlns="http://www.w3.org/2000/svg">
<path d="M27.1534 1.41512H27.1502C27.1568 1.1352 27.0873 0.85967 26.9507 0.625175C26.8142 0.390679 26.6172 0.208334 26.386 0.10242C26.1548 -0.00349426 25.9003 -0.0279566 25.6563 0.0322688C25.4124 0.0924941 25.1905 0.234567 25.0204 0.439576V0.436523L21.5503 5.11277L22.7959 9.96024L26.7131 7.47764L27.1534 1.41512Z" fill="#A3D09D"/>
<path d="M36.7654 13.4563H36.7627C36.9438 13.2635 37.0682 13.0135 37.1195 12.7395C37.1709 12.4655 37.1466 12.1805 37.05 11.9224C36.9533 11.6642 36.7888 11.4451 36.5784 11.2943C36.3681 11.1434 36.1217 11.0679 35.8721 11.0777V11.0742L30.4682 11.6299L28.2915 16.0444L32.6274 17.3939L36.7654 13.4563Z" fill="#3B7D98"/>
<path d="M35.9627 29.5835V29.58C36.2124 29.5872 36.4581 29.5091 36.6672 29.356C36.8764 29.2029 37.039 28.982 37.1334 28.7228C37.2279 28.4636 37.2497 28.1783 37.196 27.9048C37.1423 27.6314 37.0157 27.3827 36.8329 27.1919V27.1919L32.662 23.3018L28.3379 24.6982L30.5525 29.0894L35.9627 29.5835Z" fill="#25AFA5"/>
<path d="M25.2305 40.3543C25.4024 40.5574 25.6254 40.6971 25.8698 40.7546C26.1142 40.8122 26.3685 40.785 26.5988 40.6766C26.829 40.5683 27.0244 40.3839 27.159 40.148C27.2935 39.9121 27.3607 39.6358 27.3518 39.356H27.3554L26.8597 33.2981L22.9217 30.8579L22.1655 36.3096L25.2305 40.3543Z" fill="#126C66"/>
<path d="M12.9022 40.3543C12.7303 40.5574 12.5073 40.6969 12.2629 40.7544C12.0184 40.8119 11.7642 40.7847 11.5339 40.6764C11.3036 40.568 11.1082 40.3837 10.9737 40.1478C10.8391 39.912 10.7717 39.6358 10.7805 39.356H10.7773L11.2731 33.2981L15.211 30.8579L15.9677 36.3096L12.9022 40.3543Z" fill="#25AFA5"/>
<path d="M1.23178 27.4132C1.05068 27.606 0.926198 27.856 0.874884 28.13C0.82357 28.404 0.847852 28.689 0.944503 28.9471C1.04115 29.2053 1.20558 29.4243 1.41596 29.5752C1.62634 29.7261 1.87271 29.8016 2.1223 29.7917V29.7958L7.5262 29.24L9.70292 24.8255L5.36706 23.4756L1.23178 27.4132Z" fill="#A3D09D"/>
<path d="M2.03191 11.2891V11.2931C1.78192 11.2854 1.53576 11.3632 1.32626 11.5164C1.11676 11.6695 0.953883 11.8905 0.859341 12.1501C0.7648 12.4096 0.743076 12.6954 0.797094 12.9691C0.851113 13.2428 0.978285 13.4916 1.16166 13.6822V13.6822L5.33257 17.5724L9.65671 16.1759L7.44258 11.7852L2.03191 11.2891Z" fill="#00B1C2"/>
<path d="M12.7753 0.516105V0.519127C12.6034 0.316016 12.3804 0.176394 12.136 0.11882C11.8916 0.061246 11.6373 0.0884605 11.407 0.196834C11.1768 0.305207 10.9814 0.489608 10.8468 0.725509C10.7123 0.961411 10.6451 1.23763 10.654 1.51743H10.6504L11.1461 7.57489L15.084 10.0151L16.2878 5.15494L12.7753 0.516105Z" fill="#25AFA5"/>
<path d="M30.4529 7.55086C30.4021 7.49487 30.3356 7.46036 30.2646 7.45327C30.1937 7.44617 30.1228 7.46691 30.064 7.51195L22.5509 12.4529L21.2891 14.9284C21.4243 15.0002 21.5635 15.0684 21.6946 15.1522L23.3855 13.866C23.4747 13.7872 23.5865 13.7478 23.6998 13.7553C23.813 13.7627 23.92 13.8165 24.0003 13.9064L24.7853 14.787C24.8657 14.8769 24.9138 14.9967 24.9205 15.1237C24.9272 15.2508 24.8921 15.3761 24.8218 15.4761L23.6744 17.3716C23.7488 17.5156 23.8096 17.6702 23.8727 17.8213L26.081 16.4067L30.4876 7.98382C30.5271 7.91817 30.5451 7.83927 30.5388 7.76042C30.5325 7.68157 30.5021 7.60758 30.4529 7.55086V7.55086Z" fill="#404040"/>
<path d="M0.0281616 40.0029C0.0549791 39.9313 0.102364 39.8718 0.162778 39.8339C0.223192 39.7959 0.293172 39.7816 0.361649 39.7933L16.8362 46.1761L17.3666 50L12.1271 47.1931L0.111974 40.4091C0.0596334 40.3616 0.0229651 40.2958 0.00777936 40.2222C-0.0074064 40.1486 -0.000228145 40.0714 0.0281616 40.0029Z" fill="#404040"/>
<path d="M37.9717 40.0029C37.9449 39.9313 37.8975 39.8718 37.8371 39.8339C37.7767 39.7959 37.7067 39.7816 37.6382 39.7933L21.1637 46.1761L20.6333 50L25.8727 47.1931L37.8879 40.4091C37.9403 40.3616 37.977 40.2958 37.9922 40.2222C38.0074 40.1486 38.0002 40.0714 37.9717 40.0029V40.0029Z" fill="#404040"/>
<path d="M34.946 20.0527L26.5186 17.5913L24.0615 18.3421C24.1124 18.5002 24.1674 18.6563 24.2066 18.8205L26.2126 19.2509C26.3252 19.2659 26.4291 19.3266 26.5045 19.4217C26.5799 19.5168 26.6216 19.6395 26.6217 19.7668V21.0111C26.6218 21.1384 26.5801 21.2613 26.5047 21.3564C26.4293 21.4516 26.3253 21.5124 26.2126 21.5274L24.2066 21.9573C24.1674 22.1205 24.1129 22.2756 24.0624 22.4327L26.5167 23.183V23.1865L34.9442 20.7236C35.0143 20.7093 35.0777 20.6678 35.1234 20.6064C35.1691 20.545 35.1941 20.4676 35.1941 20.3877C35.1941 20.3077 35.1691 20.2303 35.1234 20.1689C35.0777 20.1076 35.0143 20.066 34.9442 20.0517L34.946 20.0527Z" fill="#404040"/>
<path d="M30.4853 32.7917L26.0778 24.3704L23.8696 22.9558C23.8056 23.1074 23.7447 23.2635 23.6699 23.4105L24.8173 25.306C24.8876 25.406 24.9228 25.5315 24.916 25.6586C24.9093 25.7857 24.8612 25.9057 24.7808 25.9956L23.9957 26.8757C23.9155 26.9657 23.8086 27.0195 23.6952 27.027C23.5819 27.0344 23.4701 26.995 23.381 26.9161L21.6902 25.6299C21.5613 25.7132 21.4238 25.7814 21.2891 25.8522L22.5509 28.3277L30.064 33.2676C30.1226 33.3131 30.1936 33.3341 30.2646 33.327C30.3357 33.3198 30.4022 33.285 30.4527 33.2285C30.5031 33.172 30.5343 33.0974 30.5408 33.0178C30.5472 32.9382 30.5286 32.8585 30.488 32.7928L30.4853 32.7917Z" fill="#404040"/>
<path d="M20.4 26.2235L20.016 28.4722C20.0027 28.5985 19.9485 28.715 19.8637 28.7995C19.7789 28.8841 19.6694 28.9308 19.5559 28.9309H18.4459C18.3324 28.9309 18.2228 28.8842 18.1379 28.7997C18.053 28.7151 17.9987 28.5986 17.9854 28.4722L17.6014 26.2235C17.4563 26.1795 17.3179 26.1184 17.1778 26.0613L16.5081 28.8132H16.5054L18.7015 49.7167C18.714 49.7957 18.751 49.8671 18.8058 49.9186C18.8606 49.9701 18.9299 49.9983 19.0014 49.9983C19.0729 49.9983 19.1421 49.9701 19.197 49.9186C19.2518 49.8671 19.2887 49.7957 19.3013 49.7167L21.4969 28.8132L20.8273 26.0603C20.6857 26.1174 20.546 26.179 20.4 26.2235Z" fill="#404040"/>
<path d="M16.3101 25.6248L14.6192 26.9111C14.5301 26.9898 14.4183 27.0292 14.305 27.0218C14.1917 27.0143 14.0848 26.9606 14.0045 26.8707L13.2194 25.9906C13.1391 25.9006 13.091 25.7806 13.0843 25.6535C13.0777 25.5263 13.1129 25.4009 13.1834 25.301L14.3308 23.4055C14.2564 23.2615 14.1956 23.1074 14.1325 22.9558L11.9242 24.3704H11.9215L7.51492 32.7928C7.47439 32.8585 7.45573 32.9382 7.46219 33.0178C7.46865 33.0974 7.49981 33.172 7.55027 33.2285C7.60072 33.285 7.66727 33.3199 7.7383 33.327C7.80933 33.3342 7.88035 33.3132 7.93899 33.2676L15.4511 28.3267L16.713 25.8512C16.5778 25.7769 16.4399 25.7087 16.3101 25.6248Z" fill="#404040"/>
<path d="M13.7979 21.9573L11.7901 21.5274C11.6774 21.5124 11.5734 21.4516 11.498 21.3564C11.4226 21.2613 11.3809 21.1384 11.3809 21.0111V19.7667C11.381 19.6395 11.4228 19.5168 11.4982 19.4217C11.5736 19.3266 11.6775 19.2659 11.7901 19.2509L13.796 18.8205C13.8353 18.6573 13.8898 18.5027 13.9403 18.3451L11.486 17.5948V17.5913L3.05852 20.0542C2.98837 20.0686 2.92495 20.1101 2.87929 20.1714C2.83362 20.2328 2.80859 20.3102 2.80859 20.3902C2.80859 20.4701 2.83362 20.5475 2.87929 20.6089C2.92495 20.6703 2.98837 20.7118 3.05852 20.7261L11.486 23.1875L13.9412 22.4373C13.892 22.2776 13.8375 22.1215 13.7979 21.9573Z" fill="#404040"/>
<path d="M14.1343 17.8282C14.1983 17.6767 14.2587 17.5206 14.334 17.3736L13.1866 15.478C13.1161 15.3782 13.0809 15.2528 13.0875 15.1257C13.0942 14.9987 13.1423 14.8788 13.2226 14.7889L14.0077 13.9083C14.088 13.8184 14.1949 13.7647 14.3082 13.7572C14.4215 13.7498 14.5333 13.7892 14.6224 13.8679L16.3133 15.1542C16.4422 15.0708 16.5796 15.0026 16.7144 14.9319L15.4525 12.4563L7.93948 7.51639C7.88089 7.47046 7.80976 7.44913 7.73854 7.45614C7.66733 7.46315 7.60059 7.49805 7.55004 7.55472C7.49949 7.61139 7.46835 7.6862 7.4621 7.76604C7.45585 7.84587 7.47488 7.92562 7.51585 7.99129L11.9229 16.4132L14.1343 17.8282Z" fill="#404040"/>
<path d="M17.6023 14.5561L17.9863 12.3074C17.9996 12.181 18.0539 12.0644 18.1388 11.9799C18.2236 11.8953 18.3333 11.8486 18.4468 11.8486H19.5568C19.6703 11.8488 19.7798 11.8955 19.8646 11.98C19.9494 12.0646 20.0036 12.1811 20.0169 12.3074L20.4009 14.5561C20.546 14.6 20.6844 14.6612 20.825 14.7177L21.4942 11.9658H21.4974L19.3004 2.51842C19.2876 2.43979 19.2506 2.36869 19.1958 2.3175C19.141 2.2663 19.072 2.23828 19.0007 2.23828C18.9294 2.23828 18.8604 2.2663 18.8056 2.3175C18.7508 2.36869 18.7138 2.43979 18.701 2.51842L16.5054 11.9658L17.1746 14.7188C17.317 14.6617 17.4563 14.5995 17.6023 14.5561Z" fill="#404040"/>
</svg>
